<svg width="48" height="48" viewBox="0 0 48 48" fill="none" xmlns="http://www.w3.org/2000/svg">
<path d="M26.1213 16.1214C24.9497 14.9498 24.9497 13.0503 26.1213 11.8787L31.8787 6.12136C33.0502 4.94978 34.9497 4.94978 36.1213 6.12135L41.8787 11.8787C43.0503 13.0503 43.0503 14.9498 41.8787 16.1214L36.1213 21.8787C34.9497 23.0503 33.0502 23.0503 31.8787 21.8787L26.1213 16.1214Z" fill="#F03033"/>
<path d="M10 6.00005C7.79086 6.00005 6 7.79091 6 10V18C6 20.2092 7.79086 22 10 22H18C20.2091 22 22 20.2092 22 18V10C22 7.79091 20.2091 6.00005 18 6.00005H10Z" fill="#F03033"/>
<path d="M6 30C6 27.7909 7.79086 26 10 26H18C20.2091 26 22 27.7909 22 30V38.0001C22 40.2092 20.2091 42.0001 18 42.0001H10C7.79086 42.0001 6 40.2092 6 38.0001V30Z" fill="#F03033"/>
<path d="M26 30C26 27.7909 27.7909 26 30 26H38C40.2091 26 42 27.7909 42 30V38.0001C42 40.2092 40.2091 42.0001 38 42.0001H30C27.7909 42.0001 26 40.2092 26 38.0001V30Z" fill="#F03033"/>
</svg>
