<svg width="48" height="48" viewBox="0 0 48 48" fill="none" xmlns="http://www.w3.org/2000/svg">
<path d="M24.0002 12L12.8802 20L6.38019 15.6C5.22019 14.82 5.20022 13.14 6.34022 12.32L14.0002 6.79997C14.6802 6.31997 15.6002 6.29999 16.2802 6.75999L24.0002 12Z" fill="#F03033"/>
<path d="M41.62 15.6001L35.12 20.0001L24 12.0001L31.72 6.78011C32.42 6.32011 33.32 6.32009 34 6.82009L41.66 12.3401C42.8 13.1401 42.78 14.8201 41.62 15.6001Z" fill="#F03033"/>
<path d="M23.9998 28L15.1198 34L9.99984 30.32L6.31985 27.68C5.19985 26.86 5.21983 25.18 6.35983 24.4L12.8598 20L23.9998 28Z" fill="#F03033"/>
<path d="M41.62 24.4C42.78 25.18 42.8 26.86 41.66 27.68L37.98 30.32L32.86 34L23.98 28L35.1 20L41.62 24.4Z" fill="#F03033"/>
<path d="M37.36 34.68C37.62 34.48 38 34.68 38 35V36.46C38 37.24 37.54 37.9401 36.84 38.2801L24.84 43.82C24.3 44.06 23.7 44.06 23.16 43.82L11.16 38.2801C10.46 37.9401 10 37.24 10 36.46V35C10 34.68 10.36 34.48 10.64 34.68L14.5 37.46C14.84 37.7 15.3 37.72 15.64 37.48L23.44 32.2C23.78 31.98 24.22 31.98 24.56 32.2L32.36 37.48C32.7 37.72 33.16 37.7 33.5 37.46L37.36 34.68Z" fill="#F03033"/>
</svg>
