<svg width="48" height="48" viewBox="0 0 48 48" fill="none" xmlns="http://www.w3.org/2000/svg">
<path fill-rule="evenodd" clip-rule="evenodd" d="M16.5 13.5C16.5 9.35786 19.8579 6 24 6C28.1421 6 31.5 9.35786 31.5 13.5C31.5 17.6421 28.1421 21 24 21C19.8579 21 16.5 17.6421 16.5 13.5Z" fill="#F03033"/>
<path fill-rule="evenodd" clip-rule="evenodd" d="M31.5 19.5C31.5 16.1863 34.1863 13.5 37.5 13.5C40.8137 13.5 43.5 16.1863 43.5 19.5C43.5 22.8137 40.8137 25.5 37.5 25.5C34.1863 25.5 31.5 22.8137 31.5 19.5Z" fill="#F03033"/>
<path fill-rule="evenodd" clip-rule="evenodd" d="M4.5 19.5C4.5 16.1863 7.18629 13.5 10.5 13.5C13.8137 13.5 16.5 16.1863 16.5 19.5C16.5 22.8137 13.8137 25.5 10.5 25.5C7.18629 25.5 4.5 22.8137 4.5 19.5Z" fill="#F03033"/>
<path fill-rule="evenodd" clip-rule="evenodd" d="M12.6197 30.235C15.0157 26.4888 19.2167 24 24 24C28.7839 24 32.9854 26.4894 35.3812 30.2364C37.0375 32.8268 37.7541 35.9504 37.4179 38.9958C37.3654 39.4718 37.0888 39.894 36.6735 40.1323C32.9388 42.2752 28.6102 43.5 24 43.5C19.3898 43.5 15.0612 42.2752 11.3265 40.1323C10.9112 39.894 10.6346 39.4718 10.5821 38.9958C10.2459 35.9498 10.9628 32.8257 12.6197 30.235Z" fill="#F03033"/>
<path d="M10.1646 28.5074C10.1405 28.5444 10.1165 28.5815 10.0928 28.6187C8.16183 31.6378 7.27816 35.2334 7.54943 38.778C6.33334 38.5933 5.15339 38.2962 4.02086 37.8973L3.79094 37.8164C3.37152 37.6687 3.07845 37.2878 3.04318 36.8445L3.02385 36.6015C3.00803 36.4028 3 36.2022 3 36C3 31.9703 6.17809 28.6828 10.1646 28.5074Z" fill="#F03033"/>
<path d="M40.4513 38.7779C40.7225 35.234 39.8392 31.6391 37.909 28.6204C37.8849 28.5826 37.8606 28.5449 37.8362 28.5074C41.8223 28.6832 45 31.9705 45 36C45 36.2022 44.992 36.4028 44.9762 36.6015L44.9568 36.8445C44.9215 37.2878 44.6285 37.6687 44.2091 37.8164L43.9791 37.8973C42.8468 38.2961 41.6671 38.5932 40.4513 38.7779Z" fill="#F03033"/>
</svg>
