<svg width="48" height="48" viewBox="0 0 48 48" fill="none" xmlns="http://www.w3.org/2000/svg">
<path fill-rule="evenodd" clip-rule="evenodd" d="M31.5 9C31.5 5.68629 34.1863 3 37.5 3C40.8137 3 43.5 5.68629 43.5 9C43.5 12.3137 40.8137 15 37.5 15C35.7867 15 34.2423 14.2815 33.1502 13.1325L16.3078 22.4894C16.4333 22.9727 16.5 23.4791 16.5 24C16.5 24.5209 16.4333 25.0273 16.3078 25.5106L33.1502 34.8675C34.2423 33.7185 35.7867 33 37.5 33C40.8137 33 43.5 35.6863 43.5 39C43.5 42.3137 40.8137 45 37.5 45C34.1863 45 31.5 42.3137 31.5 39C31.5 38.4791 31.5667 37.9727 31.6922 37.4894L14.8498 28.1325C13.7577 29.2815 12.2133 30 10.5 30C7.18629 30 4.5 27.3137 4.5 24C4.5 20.6863 7.18629 18 10.5 18C12.2133 18 13.7577 18.7185 14.8498 19.8675L31.6922 10.5106C31.5667 10.0273 31.5 9.52091 31.5 9Z" fill="#F03033"/>
</svg>
