<svg width="48" height="48" viewBox="0 0 48 48" fill="none" xmlns="http://www.w3.org/2000/svg">
<path d="M14.48 4H10.68C6.3 4 4 6.3 4 10.66V14.46C4 18.82 6.3 21.12 10.66 21.12H14.46C18.82 21.12 21.12 18.82 21.12 14.46V10.66C21.14 6.3 18.84 4 14.48 4Z" fill="#F03033"/>
<path d="M37.3399 4H33.5399C29.1799 4 26.8799 6.3 26.8799 10.66V14.46C26.8799 18.82 29.1799 21.12 33.5399 21.12H37.3399C41.6999 21.12 43.9999 18.82 43.9999 14.46V10.66C43.9999 6.3 41.6999 4 37.3399 4Z" fill="#F03033"/>
<path d="M37.3399 26.86H33.5399C29.1799 26.86 26.8799 29.16 26.8799 33.52V37.32C26.8799 41.68 29.1799 43.98 33.5399 43.98H37.3399C41.6999 43.98 43.9999 41.68 43.9999 37.32V33.52C43.9999 29.16 41.6999 26.86 37.3399 26.86Z" fill="#F03033"/>
<path d="M14.48 26.86H10.68C6.3 26.86 4 29.16 4 33.52V37.32C4 41.7 6.3 44 10.66 44H14.46C18.82 44 21.12 41.7 21.12 37.34V33.54C21.14 29.16 18.84 26.86 14.48 26.86Z" fill="#F03033"/>
</svg>
