<svg width="48" height="48" viewBox="0 0 48 48" fill="none" xmlns="http://www.w3.org/2000/svg">
<g clip-path="url(#clip0_1171_100575)">
<path d="M24 48C37.2548 48 48 37.2548 48 24C48 10.7452 37.2548 0 24 0C10.7452 0 0 10.7452 0 24C0 37.2548 10.7452 48 24 48Z" fill="#F03033"/>
<path d="M24 44.3686C35.2493 44.3686 44.3686 35.2493 44.3686 24C44.3686 12.7507 35.2493 3.63135 24 3.63135C12.7507 3.63135 3.63135 12.7507 3.63135 24C3.63135 35.2493 12.7507 44.3686 24 44.3686Z" fill="#F93D40"/>
<path d="M34.6566 6.61572C36.6847 9.78221 37.8608 13.5474 37.8608 17.5869C37.8608 28.8363 28.7416 37.9556 17.4922 37.9556C13.5857 37.9556 9.93617 36.855 6.83545 34.9478C10.4555 40.599 16.79 44.3452 23.9998 44.3452C35.2492 44.3452 44.3684 35.226 44.3684 23.9766C44.3684 16.6337 40.4831 10.1995 34.6566 6.61572Z" fill="#CC282A"/>
<path d="M7.19928 25.8641C7.19928 15.9338 15.2489 7.88414 25.1792 7.88414C30.9838 7.88414 36.1444 10.6349 39.4319 14.9035C36.3273 9.51311 30.5084 5.88477 23.8413 5.88477C13.911 5.88477 5.86133 13.9344 5.86133 23.8647C5.86133 27.9905 7.25219 31.7912 9.5887 34.8254C8.06933 32.1873 7.19928 29.1266 7.19928 25.8641Z" fill="#FF7678"/>
<path d="M25.681 10.8533V13.4483C26.7227 13.6161 27.5746 13.96 28.236 14.4809C28.8982 15.0017 29.5286 15.8007 30.1295 16.8771L27.5481 18.3201C26.7711 16.9081 25.7559 16.2021 24.5033 16.2021C23.7263 16.2021 23.0822 16.4319 22.5705 16.8907C22.0587 17.3495 21.8025 17.9233 21.8025 18.6119C21.8025 19.2385 22.0096 19.7594 22.4246 20.1743C22.8305 20.5803 23.6514 21.0618 24.8873 21.6174C25.9554 22.1027 26.8376 22.56 27.5353 22.9878C28.2322 23.4157 28.7576 23.8284 29.1106 24.226C30.1076 25.3032 30.6065 26.6048 30.6065 28.1318C30.6065 29.6322 30.1568 30.9566 29.2565 32.1033C28.3645 33.2417 27.1732 34.0097 25.6818 34.4073V37.1474H23.3649V34.4867C21.6347 34.204 20.3156 33.6083 19.4063 32.6997C18.4969 31.7903 17.8264 30.3874 17.394 28.4893L20.3065 27.88C20.7034 29.2218 21.1887 30.1795 21.7632 30.7532C22.3634 31.3005 23.1616 31.5742 24.1594 31.5742C25.13 31.5742 25.9418 31.2612 26.5957 30.6338C27.2397 30.0162 27.5625 29.2172 27.5625 28.2376C27.5625 27.3638 27.2934 26.6623 26.7552 26.1324C26.4815 25.8769 26.0779 25.5874 25.5435 25.2654C25.009 24.9433 24.3272 24.5926 23.498 24.2131C21.7859 23.4451 20.6603 22.7391 20.1221 22.0951C19.2657 21.1328 18.8378 19.9816 18.8378 18.6399C18.8378 18.0041 18.9391 17.413 19.1425 16.8657C19.3458 16.3185 19.6391 15.8218 20.0231 15.3766C20.4071 14.9314 20.8818 14.5451 21.4465 14.2186C22.0111 13.892 22.6514 13.6358 23.3657 13.4506V10.8555H25.681V10.8533Z" fill="white"/>
</g>
<defs>
<clipPath id="clip0_1171_100575">
<rect width="48" height="48" fill="white"/>
</clipPath>
</defs>
</svg>
