<svg width="48" height="48" viewBox="0 0 48 48" fill="none" xmlns="http://www.w3.org/2000/svg">
<path fill-rule="evenodd" clip-rule="evenodd" d="M10.3323 5.24272V6.95719C8.26252 7.25329 6.21431 7.61647 4.18994 8.04446C3.40289 8.21086 2.88723 8.96849 3.02114 9.76171C4.04204 15.8091 9.08029 20.4897 15.2983 20.9609C16.8696 22.2441 18.7371 23.1813 20.7832 23.6539C20.5855 25.9904 19.793 28.1552 18.5576 30H17.0818C15.0107 30 13.3318 31.6789 13.3318 33.75V39H11.8315C9.34626 39 7.33154 41.0147 7.33154 43.5C7.33154 44.3284 8.00312 45 8.83154 45H38.8315C39.66 45 40.3315 44.3284 40.3315 43.5C40.3315 41.0147 38.3168 39 35.8315 39H34.3318V33.75C34.3318 31.6789 32.6528 30 30.5818 30H29.1049C27.8699 28.1555 27.0779 25.9906 26.8803 23.6542C28.9268 23.1817 30.7947 22.2444 32.3662 20.9609C38.5842 20.4897 43.6225 15.8091 44.6434 9.76171C44.7773 8.96849 44.2616 8.21086 43.4746 8.04446C41.4502 7.61647 39.402 7.25329 37.3323 6.95719V5.24272C37.3323 4.48607 36.7687 3.84788 36.0179 3.75425C32.0253 3.25639 27.9584 3 23.8323 3C19.7061 3 15.6392 3.25639 11.6467 3.75425C10.8958 3.84788 10.3323 4.48607 10.3323 5.24272ZM10.3323 10.5C10.3323 12.8924 10.9552 15.1399 12.0468 17.0885C9.33251 15.8734 7.22752 13.5395 6.32005 10.6737C7.64741 10.4165 8.98503 10.188 10.3323 9.98876V10.5ZM37.3323 10.5V9.98876C38.6795 10.188 40.0171 10.4165 41.3445 10.6738C40.437 13.5395 38.332 15.8734 35.6178 17.0885C36.7093 15.1399 37.3323 12.8924 37.3323 10.5Z" fill="#F03033"/>
</svg>
