<svg width="148" height="148" viewBox="0 0 148 148" fill="none" xmlns="http://www.w3.org/2000/svg">
<g filter="url(#filter0_d_657_63776)">
<circle cx="74" cy="74" r="24" fill="#1A1D20"/>
<circle cx="74" cy="74" r="23.5" stroke="#F03033"/>
</g>
<path d="M63.864 71.2L61.288 72.496V70.448L64.392 68.8H66.072V80H63.864V71.2ZM71.4923 80.128C70.7243 80.128 70.0469 80.0053 69.4603 79.76C68.8736 79.504 68.4149 79.152 68.0843 78.704C67.7643 78.2453 67.6043 77.7227 67.6043 77.136V76.384C67.6043 75.9787 67.7589 75.5787 68.0683 75.184C68.3776 74.7893 68.7829 74.4747 69.2843 74.24V74.224C68.8896 73.9893 68.5696 73.6907 68.3243 73.328C68.0896 72.9653 67.9723 72.6027 67.9723 72.24V71.536C67.9723 70.9707 68.1216 70.4747 68.4203 70.048C68.7296 69.6107 69.1616 69.2747 69.7163 69.04C70.2816 68.7947 70.9269 68.672 71.6523 68.672H73.0283C73.7536 68.672 74.3936 68.7947 74.9483 69.04C75.5136 69.2747 75.9456 69.6107 76.2443 70.048C76.5536 70.4747 76.7083 70.9707 76.7083 71.536V72.24C76.7083 72.592 76.5856 72.9547 76.3403 73.328C76.1056 73.6907 75.7909 73.9893 75.3963 74.224V74.24C75.8976 74.4747 76.3029 74.7893 76.6123 75.184C76.9216 75.5787 77.0763 75.9787 77.0763 76.384V77.136C77.0763 77.7227 76.9109 78.2453 76.5803 78.704C76.2603 79.152 75.8069 79.504 75.2203 79.76C74.6336 80.0053 73.9563 80.128 73.1883 80.128H71.4923ZM73.0283 73.344C73.4656 73.344 73.8176 73.2427 74.0843 73.04C74.3616 72.8373 74.5003 72.5707 74.5003 72.24V71.568C74.5003 71.2693 74.3616 71.0293 74.0843 70.848C73.8176 70.6667 73.4656 70.576 73.0283 70.576H71.6523C71.2149 70.576 70.8576 70.6667 70.5803 70.848C70.3136 71.0293 70.1803 71.2693 70.1803 71.568V72.24C70.1803 72.5707 70.3136 72.8373 70.5803 73.04C70.8576 73.2427 71.2149 73.344 71.6523 73.344H73.0283ZM73.1883 78.224C73.6896 78.224 74.0949 78.1173 74.4043 77.904C74.7136 77.68 74.8683 77.3867 74.8683 77.024V76.432C74.8683 76.0587 74.6976 75.76 74.3563 75.536C74.0256 75.312 73.5829 75.2 73.0283 75.2H71.6523C71.0976 75.2 70.6496 75.312 70.3083 75.536C69.9776 75.76 69.8123 76.0587 69.8123 76.432V77.024C69.8123 77.3867 69.9669 77.68 70.2763 77.904C70.5856 78.1173 70.9909 78.224 71.4923 78.224H73.1883ZM81.0513 75.76H78.1393V73.872H81.0513V70.96H83.2273V73.872H86.1393V75.76H83.2273V78.672H81.0513V75.76Z" fill="#F03033"/>
<defs>
<filter id="filter0_d_657_63776" x="0" y="0" width="148" height="148" filterUnits="userSpaceOnUse" color-interpolation-filters="sRGB">
<feFlood flood-opacity="0" result="BackgroundImageFix"/>
<feColorMatrix in="SourceAlpha" type="matrix" values="0 0 0 0 0 0 0 0 0 0 0 0 0 0 0 0 0 0 127 0" result="hardAlpha"/>
<feMorphology radius="4" operator="dilate" in="SourceAlpha" result="effect1_dropShadow_657_63776"/>
<feOffset/>
<feGaussianBlur stdDeviation="23"/>
<feComposite in2="hardAlpha" operator="out"/>
<feColorMatrix type="matrix" values="0 0 0 0 0.941176 0 0 0 0 0.188235 0 0 0 0 0.2 0 0 0 0.55 0"/>
<feBlend mode="normal" in2="BackgroundImageFix" result="effect1_dropShadow_657_63776"/>
<feBlend mode="normal" in="SourceGraphic" in2="effect1_dropShadow_657_63776" result="shape"/>
</filter>
</defs>
</svg>
