<svg width="28" height="26" viewBox="0 0 28 26" fill="none" xmlns="http://www.w3.org/2000/svg">
<path d="M4.55076 0.544308C7.31694 0.185173 10.1373 0 13.0004 0C15.8632 0 18.6833 0.185136 21.4492 0.544201C24.0122 0.876924 25.8378 3.02583 25.9897 5.51326C25.5553 5.36819 25.0949 5.27195 24.6134 5.23198C22.7619 5.07832 20.8898 5 19 5C17.1102 5 15.238 5.07831 13.3866 5.23197C10.2423 5.49295 8 8.15289 8 11.1443V16.8583C8 19.1125 9.2729 21.1768 11.2437 22.1705L7.70711 25.7071C7.42111 25.9931 6.99099 26.0787 6.61732 25.9239C6.24364 25.7691 6 25.4045 6 25V19.6274C5.51532 19.5755 5.03223 19.5182 4.55078 19.4557C1.87288 19.1081 0 16.7777 0 14.1502V5.84984C0 3.22229 1.87288 0.89198 4.55076 0.544308Z" fill="#848B8D"/>
<path d="M19 7C17.1655 7 15.3485 7.07602 13.5521 7.22512C11.4997 7.39546 10 9.13709 10 11.1443V16.8583C10 18.8685 11.504 20.6111 13.5589 20.7788C15.2174 20.9142 16.8934 20.9883 18.5845 20.9987L22.2929 24.7071C22.5789 24.9931 23.009 25.0787 23.3827 24.9239C23.7564 24.7691 24 24.4045 24 24V20.8135C24.1471 20.8025 24.2941 20.791 24.441 20.779C26.496 20.6113 28 18.8687 28 16.8584V11.1443C28 9.1371 26.5003 7.39548 24.4479 7.22513C22.6515 7.07603 20.8345 7 19 7Z" fill="#848B8D"/>
</svg>
