<svg width="14" height="14" viewBox="0 0 14 14" fill="none" xmlns="http://www.w3.org/2000/svg">
<path fill-rule="evenodd" clip-rule="evenodd" d="M5.35355 0.646447C5.54882 0.841709 5.54882 1.15829 5.35355 1.35355L2.20711 4.5H9C11.4853 4.5 13.5 6.51472 13.5 9C13.5 11.4853 11.4853 13.5 9 13.5H7C6.72386 13.5 6.5 13.2761 6.5 13C6.5 12.7239 6.72386 12.5 7 12.5H9C10.933 12.5 12.5 10.933 12.5 9C12.5 7.067 10.933 5.5 9 5.5H2.20711L5.35355 8.64645C5.54882 8.84171 5.54882 9.15829 5.35355 9.35355C5.15829 9.54882 4.84171 9.54882 4.64645 9.35355L0.646447 5.35355C0.451184 5.15829 0.451184 4.84171 0.646447 4.64645L4.64645 0.646447C4.84171 0.451184 5.15829 0.451184 5.35355 0.646447Z" fill="#767676"/>
</svg>
