<svg width="40" height="40" viewBox="0 0 40 40" fill="none" xmlns="http://www.w3.org/2000/svg">
<g filter="url(#filter0_d_36_6225)">
<rect x="4" width="32" height="32" rx="8" fill="#BC2628"/>
</g>
<rect x="4" width="32" height="29.7143" rx="8" fill="url(#paint0_linear_36_6225)"/>
<path d="M14.3187 9.60287C14.1422 9.5516 13.9518 9.60129 13.8229 9.73227C13.694 9.86325 13.6473 10.0544 13.7013 10.2301L15.3228 15.5H21C21.2761 15.5 21.5 15.7239 21.5 16C21.5 16.2761 21.2761 16.5 21 16.5H15.3228L13.7014 21.7698C13.6473 21.9454 13.694 22.1366 13.8229 22.2676C13.9519 22.3985 14.1423 22.4482 14.3188 22.397C18.7845 21.0996 22.9316 19.0543 26.6155 16.4058C26.7462 16.3119 26.8236 16.1608 26.8236 15.9998C26.8236 15.8389 26.7462 15.6878 26.6155 15.5939C22.9316 12.9454 18.7844 10.9001 14.3187 9.60287Z" fill="white"/>
<defs>
<filter id="filter0_d_36_6225" x="0" y="0" width="40" height="40" filterUnits="userSpaceOnUse" color-interpolation-filters="sRGB">
<feFlood flood-opacity="0" result="BackgroundImageFix"/>
<feColorMatrix in="SourceAlpha" type="matrix" values="0 0 0 0 0 0 0 0 0 0 0 0 0 0 0 0 0 0 127 0" result="hardAlpha"/>
<feOffset dy="4"/>
<feGaussianBlur stdDeviation="2"/>
<feComposite in2="hardAlpha" operator="out"/>
<feColorMatrix type="matrix" values="0 0 0 0 0.0823529 0 0 0 0 0.0901961 0 0 0 0 0.0980392 0 0 0 0.55 0"/>
<feBlend mode="normal" in2="BackgroundImageFix" result="effect1_dropShadow_36_6225"/>
<feBlend mode="normal" in="SourceGraphic" in2="effect1_dropShadow_36_6225" result="shape"/>
</filter>
<linearGradient id="paint0_linear_36_6225" x1="20" y1="0" x2="20" y2="29.7143" gradientUnits="userSpaceOnUse">
<stop stop-color="#F03033"/>
<stop offset="1" stop-color="#E5383B" stop-opacity="0"/>
</linearGradient>
</defs>
</svg>
