<svg width="14" height="12" viewBox="0 0 14 12" fill="none" xmlns="http://www.w3.org/2000/svg">
<path d="M6.76331 11.9404L6.75896 11.9381L6.74386 11.9299C6.731 11.9229 6.7126 11.9128 6.68905 11.8997C6.64195 11.8734 6.57416 11.8349 6.48864 11.7846C6.31767 11.684 6.07545 11.5359 5.7857 11.3433C5.20716 10.9587 4.43414 10.3934 3.65906 9.67088C2.12521 8.24103 0.5 6.11673 0.5 3.5C0.5 1.54796 2.1424 0 4.125 0C5.29092 0 6.33488 0.532725 7 1.36773C7.66512 0.532725 8.70908 0 9.875 0C11.8576 0 13.5 1.54796 13.5 3.5C13.5 6.11673 11.8748 8.24103 10.3409 9.67088C9.56586 10.3934 8.79284 10.9587 8.2143 11.3433C7.92455 11.5359 7.68233 11.684 7.51136 11.7846C7.42584 11.8349 7.35805 11.8734 7.31095 11.8997C7.2874 11.9128 7.269 11.9229 7.25614 11.9299L7.24104 11.9381L7.23669 11.9404L7.23485 11.9414C7.08821 12.0193 6.91179 12.0193 6.76515 11.9414L6.76331 11.9404Z" fill="#767676"/>
</svg>
