<svg width="173" height="173" viewBox="0 0 173 173" fill="none" xmlns="http://www.w3.org/2000/svg">
<g filter="url(#filter0_f_623_90968)">
<ellipse cx="86.5301" cy="86.1318" rx="29.0541" ry="29.1318" fill="#F03033"/>
</g>
<path d="M119.533 101.279C119.645 95.1037 111.923 89.956 102.286 89.781C92.6486 89.6061 84.7459 94.4702 84.6344 100.645C84.5229 106.82 92.2448 111.968 101.882 112.143C111.519 112.318 119.422 107.454 119.533 101.279Z" fill="#F93D40"/>
<path d="M101.843 114.331C90.3344 114.122 81.0799 107.953 81.2133 100.579C81.3467 93.2048 90.8175 87.375 102.326 87.5848C113.834 87.7935 123.088 93.9628 122.955 101.337C122.822 108.711 113.351 114.541 101.843 114.331ZM102.286 89.7766C92.665 89.6023 84.7465 94.4755 84.6344 100.641C84.5232 106.806 92.2607 111.964 101.882 112.138C111.503 112.312 119.422 107.439 119.534 101.274C119.645 95.1089 111.908 89.952 102.286 89.7766Z" fill="#F03033"/>
<path d="M107.574 105.947C106.65 106.506 105.419 106.843 103.882 106.961L103.85 108.685L101.378 108.641L101.409 106.948C100.326 106.876 99.3226 106.724 98.3979 106.489C97.4722 106.254 96.6657 105.944 95.9774 105.559L97.0699 104.118C98.4626 104.848 99.9755 105.264 101.606 105.366L101.664 102.135C100.585 101.94 99.6754 101.729 98.9356 101.503C98.1958 101.277 97.5793 100.95 97.0861 100.522C96.5929 100.093 96.3524 99.543 96.3645 98.8692C96.3746 98.3098 96.602 97.8041 97.0467 97.3512C97.4914 96.8982 98.1079 96.5263 98.8982 96.2355C99.6875 95.9447 100.592 95.7663 101.612 95.7025L101.643 93.9788L104.115 94.0233L104.084 95.7318C105.02 95.821 105.898 95.9821 106.719 96.2152C107.539 96.4483 108.228 96.7351 108.788 97.0766L107.696 98.5175C106.528 97.8751 105.257 97.4789 103.886 97.3299L103.825 100.7C104.904 100.896 105.798 101.102 106.505 101.316C107.213 101.531 107.805 101.845 108.283 102.258C108.76 102.67 108.994 103.203 108.981 103.855C108.966 104.691 108.496 105.39 107.574 105.947ZM100.059 99.7052C100.443 99.9352 100.989 100.134 101.698 100.302L101.752 97.3046C101.056 97.3856 100.507 97.5569 100.106 97.8183C99.7047 98.0808 99.5015 98.4132 99.4934 98.8175C99.4874 99.1793 99.6754 99.4752 100.059 99.7052ZM105.302 104.835C105.661 104.587 105.845 104.262 105.852 103.858C105.858 103.537 105.685 103.275 105.333 103.072C104.981 102.869 104.467 102.694 103.791 102.547L103.74 105.327C104.421 105.245 104.942 105.082 105.302 104.835Z" fill="#CC282A"/>
<path d="M82.486 100.602C82.6164 93.3649 91.7435 87.6151 102.962 87.603C102.75 87.5949 102.538 87.5888 102.325 87.5847C90.8167 87.376 81.346 93.2047 81.2126 100.579C81.0802 107.953 90.3347 114.122 101.843 114.331C102.056 114.335 102.267 114.336 102.48 114.336C91.2685 113.917 82.3556 107.84 82.486 100.602Z" fill="#FF7678"/>
<path d="M102.287 89.7766C102.1 89.7736 101.915 89.7726 101.73 89.7726C111.091 90.1313 118.53 95.2082 118.421 101.254C118.311 107.299 110.694 112.103 101.327 112.122C101.511 112.129 101.697 112.135 101.883 112.138C111.505 112.312 119.423 107.439 119.535 101.274C119.645 95.1089 111.908 89.9519 102.287 89.7766Z" fill="#CC282A"/>
<path d="M99.6044 99.3359C99.9884 99.566 100.534 99.7646 101.243 99.9328L101.297 96.9353C100.601 97.0164 100.052 97.1877 99.6509 97.4491C99.2496 97.7116 99.0465 98.0439 99.0384 98.4483C99.0313 98.811 99.2203 99.1069 99.6044 99.3359ZM104.846 104.466C105.205 104.218 105.389 103.893 105.396 103.489C105.402 103.167 105.229 102.906 104.877 102.702C104.525 102.5 104.011 102.324 103.335 102.177L103.284 104.958C103.965 104.877 104.486 104.713 104.846 104.466ZM107.117 105.579C106.194 106.138 104.963 106.475 103.426 106.593L103.394 108.317L100.922 108.273L100.953 106.579C99.8702 106.507 98.8666 106.355 97.9419 106.12C97.0161 105.886 96.2096 105.576 95.5214 105.191L96.6139 103.75C98.0065 104.48 99.5195 104.896 101.15 104.998L101.208 101.767C100.129 101.571 99.2193 101.361 98.4795 101.135C97.7397 100.909 97.1232 100.581 96.63 100.154C96.1368 99.7251 95.8963 99.1748 95.9084 98.5009C95.9185 97.9416 96.1459 97.4359 96.5906 96.983C97.0353 96.53 97.6518 96.1581 98.4421 95.8673C99.2314 95.5764 100.136 95.3981 101.156 95.3342L101.187 93.6105L103.659 93.6551L103.628 95.3636C104.564 95.4528 105.442 95.6139 106.262 95.847C107.083 96.0801 107.772 96.3668 108.332 96.7083L107.24 98.1493C106.071 97.5069 104.801 97.1106 103.43 96.9617L103.369 100.332C104.448 100.528 105.342 100.733 106.049 100.948C106.757 101.163 107.349 101.477 107.827 101.89C108.304 102.302 108.537 102.835 108.525 103.487C108.51 104.323 108.04 105.021 107.117 105.579Z" fill="white"/>
<path d="M122.847 105.673L122.878 105.674L122.955 101.338C122.822 108.712 113.351 114.542 101.843 114.333C90.3348 114.125 81.0803 107.955 81.2137 100.581C81.2137 100.581 81.1278 105.356 81.1238 105.577C81.0015 112.375 90.264 118.075 101.772 118.283C113.28 118.492 122.743 113.132 122.865 106.334C122.869 106.112 122.862 105.892 122.847 105.673Z" fill="#CC282A"/>
<path d="M92.0434 96.0093C92.1549 89.8342 84.433 84.6864 74.796 84.5115C65.159 84.3366 57.2562 89.2007 57.1447 95.3758C57.0333 101.551 64.7552 106.699 74.3922 106.874C84.0292 107.049 91.9319 102.184 92.0434 96.0093Z" fill="#F93D40"/>
<path d="M74.3538 109.062C62.8456 108.854 53.5912 102.684 53.7246 95.3103C53.858 87.9361 63.3287 82.1063 74.8369 82.3161C86.3451 82.5248 95.5996 88.6941 95.4662 96.0682C95.3328 103.442 85.8621 109.272 74.3538 109.062ZM74.7975 84.508C65.1762 84.3337 57.2578 89.2069 57.1456 95.3721C57.0344 101.537 64.7719 106.695 74.3933 106.87C84.0146 107.044 91.933 102.171 92.0452 96.0054C92.1563 89.8402 84.4189 84.6833 74.7975 84.508Z" fill="#F03033"/>
<path d="M80.0839 100.681C79.1602 101.239 77.9292 101.576 76.392 101.694L76.3607 103.419L73.8887 103.374L73.919 101.681C72.8366 101.609 71.833 101.457 70.9083 101.222C69.9825 100.988 69.176 100.678 68.4878 100.293L69.5803 98.8516C70.973 99.5812 72.4859 99.9977 74.1161 100.099L74.1747 96.8685C73.0953 96.6729 72.1857 96.4621 71.4459 96.2361C70.7062 96.0102 70.0897 95.6828 69.5965 95.2552C69.1033 94.8266 68.8627 94.2763 68.8749 93.6024C68.885 93.0431 69.1124 92.5374 69.5571 92.0845C70.0017 91.6315 70.6182 91.2596 71.4086 90.9688C72.1979 90.6779 73.1024 90.4996 74.1221 90.4357L74.1535 88.712L76.6255 88.7566L76.5942 90.4651C77.53 90.5543 78.4083 90.7154 79.2289 90.9485C80.0496 91.1816 80.7388 91.4683 81.2987 91.8098L80.2062 93.2508C79.0379 92.6084 77.7675 92.2121 76.3961 92.0632L76.3354 95.4336C77.4148 95.6291 78.3082 95.8349 79.0157 96.0497C79.7231 96.2645 80.3154 96.5786 80.7934 96.9911C81.2704 97.4035 81.5039 97.9365 81.4918 98.5881C81.4766 99.4241 81.0066 100.123 80.0839 100.681ZM72.5698 94.4385C72.9538 94.6685 73.4996 94.8671 74.208 95.0353L74.2626 92.0378C73.5663 92.1189 73.0175 92.2902 72.6163 92.5516C72.215 92.8141 72.0119 93.1464 72.0038 93.5508C71.9978 93.9125 72.1857 94.2084 72.5698 94.4385ZM77.812 99.568C78.1718 99.3208 78.3557 98.9955 78.3628 98.5912C78.3689 98.2699 78.195 98.0085 77.8433 97.8048C77.4916 97.6021 76.9772 97.4268 76.3011 97.2799L76.2506 100.061C76.9317 99.9784 77.4522 99.8153 77.812 99.568Z" fill="#CC282A"/>
<path d="M54.997 95.3335C55.1274 88.0962 64.2545 82.3464 75.4726 82.3343C75.2614 82.3262 75.0492 82.3201 74.8359 82.316C63.3277 82.1073 53.857 87.9361 53.7236 95.3102C53.5912 102.684 62.8456 108.854 74.3539 109.062C74.5671 109.066 74.7783 109.067 74.9906 109.067C63.7795 108.648 54.8666 102.571 54.997 95.3335Z" fill="#FF7678"/>
<path d="M74.797 84.5088C74.6101 84.5057 74.4251 84.5047 74.2402 84.5047C83.6018 84.8634 91.0401 89.9403 90.931 95.9859C90.8218 102.032 83.2046 106.835 73.8369 106.854C74.0219 106.861 74.2078 106.867 74.3938 106.87C84.0151 107.045 91.9335 102.171 92.0457 96.0062C92.1559 89.841 84.4184 84.6841 74.797 84.5088Z" fill="#CC282A"/>
<path d="M72.1157 94.069C72.4998 94.2991 73.0455 94.4977 73.754 94.6659L73.8085 91.6684C73.1122 91.7495 72.5634 91.9207 72.1622 92.1822C71.761 92.4446 71.5578 92.777 71.5498 93.1813C71.5427 93.5441 71.7317 93.84 72.1157 94.069ZM77.3569 99.1986C77.7167 98.9513 77.9006 98.6261 77.9077 98.2217C77.9138 97.9005 77.74 97.6391 77.3882 97.4354C77.0365 97.2327 76.5221 97.0574 75.846 96.9105L75.7955 99.6911C76.4766 99.61 76.9971 99.4459 77.3569 99.1986ZM79.6288 100.312C78.7051 100.871 77.4741 101.208 75.937 101.326L75.9056 103.05L73.4336 103.006L73.4639 101.312C72.3815 101.24 71.3779 101.088 70.4532 100.853C69.5275 100.619 68.721 100.309 68.0327 99.9242L69.1252 98.4832C70.5179 99.2128 72.0308 99.6293 73.661 99.7306L73.7196 96.5001C72.6402 96.3045 71.7307 96.0937 70.9909 95.8677C70.2511 95.6418 69.6346 95.3144 69.1414 94.8868C68.6482 94.4582 68.4077 93.9079 68.4198 93.234C68.4299 92.6747 68.6573 92.169 69.102 91.716C69.5467 91.2631 70.1631 90.8912 70.9535 90.6004C71.7428 90.3095 72.6473 90.1312 73.6671 90.0673L73.6984 88.3436L76.1704 88.3882L76.1391 90.0967C77.0749 90.1859 77.9532 90.347 78.7738 90.5801C79.5945 90.8132 80.2837 91.0999 80.8436 91.4414L79.7511 92.8824C78.5828 92.2399 77.3125 91.8437 75.941 91.6948L75.8804 95.0652C76.9597 95.2607 77.8531 95.4664 78.5606 95.6813C79.268 95.8961 79.8603 96.2102 80.3383 96.6227C80.8153 97.0351 81.0488 97.5681 81.0367 98.2197C81.0215 99.0557 80.5516 99.7539 79.6288 100.312Z" fill="white"/>
<path d="M95.3579 100.407L95.3883 100.408L95.4661 96.0715C95.3327 103.446 85.8619 109.275 74.3537 109.067C62.8455 108.858 53.591 102.689 53.7244 95.3145C53.7244 95.3145 53.6385 100.089 53.6345 100.31C53.5122 107.108 62.7748 112.808 74.283 113.017C85.7912 113.225 95.2539 107.865 95.3761 101.067C95.3802 100.845 95.3731 100.625 95.3579 100.407Z" fill="#CC282A"/>
<path d="M129.034 94.0814C129.145 87.9063 121.423 82.7585 111.786 82.5836C102.149 82.4087 94.2465 87.2728 94.135 93.4479C94.0235 99.623 101.745 104.771 111.382 104.946C121.019 105.121 128.922 100.257 129.034 94.0814Z" fill="#F93D40"/>
<path d="M111.344 107.135C99.8354 106.926 90.5809 100.757 90.7143 93.3825C90.8477 86.0084 100.318 80.1786 111.827 80.3884C123.335 80.5971 132.589 86.7664 132.456 94.1405C132.323 101.515 122.852 107.344 111.344 107.135ZM111.787 82.5802C102.166 82.4059 94.2475 87.2791 94.1353 93.4443C94.0242 99.6095 101.762 104.767 111.383 104.942C121.004 105.116 128.923 100.243 129.035 94.0777C129.146 87.9125 121.409 82.7555 111.787 82.5802Z" fill="#F03033"/>
<path d="M117.074 98.7501C116.15 99.3084 114.919 99.6459 113.382 99.7634L113.35 101.488L110.878 101.444L110.909 99.7502C109.826 99.6783 108.823 99.5263 107.898 99.2912C106.972 99.0571 106.166 98.747 105.478 98.362L106.57 96.921C107.963 97.6506 109.476 98.0671 111.106 98.1684L111.164 94.9379C110.085 94.7423 109.175 94.5315 108.436 94.3055C107.696 94.0796 107.079 93.7522 106.586 93.3246C106.093 92.896 105.852 92.3457 105.865 91.6718C105.875 91.1125 106.102 90.6068 106.547 90.1539C106.991 89.7009 107.608 89.329 108.398 89.0382C109.188 88.7473 110.092 88.569 111.112 88.5051L111.143 86.7814L113.615 86.826L113.584 88.5345C114.52 88.6237 115.398 88.7848 116.219 89.0179C117.039 89.251 117.729 89.5377 118.288 89.8792L117.196 91.3202C116.028 90.6778 114.757 90.2815 113.386 90.1326L113.325 93.503C114.405 93.6985 115.298 93.9042 116.005 94.1191C116.713 94.3339 117.305 94.648 117.783 95.0605C118.26 95.4729 118.494 96.0059 118.481 96.6575C118.466 97.4935 117.996 98.1927 117.074 98.7501ZM109.56 92.5079C109.944 92.7379 110.489 92.9365 111.198 93.1047L111.252 90.1072C110.556 90.1883 110.007 90.3596 109.606 90.621C109.205 90.8835 109.002 91.2158 108.994 91.6202C108.988 91.9819 109.175 92.2778 109.56 92.5079ZM114.802 97.6374C115.162 97.3902 115.345 97.0649 115.353 96.6606C115.359 96.3393 115.185 96.0779 114.833 95.8742C114.481 95.6715 113.967 95.4962 113.291 95.3493L113.24 98.1299C113.921 98.0478 114.442 97.8847 114.802 97.6374Z" fill="#CC282A"/>
<path d="M91.9867 93.4058C92.1171 86.1684 101.244 80.4187 112.462 80.4066C112.251 80.3984 112.039 80.3924 111.826 80.3883C100.317 80.1796 90.8467 86.0083 90.7133 93.3825C90.5809 100.757 99.8354 106.926 111.344 107.135C111.557 107.139 111.768 107.14 111.98 107.14C100.769 106.72 91.8564 100.643 91.9867 93.4058Z" fill="#FF7678"/>
<path d="M111.787 82.5814C111.6 82.5784 111.415 82.5774 111.23 82.5774C120.592 82.9361 128.03 88.013 127.921 94.0586C127.812 100.104 120.195 104.908 110.827 104.927C111.012 104.934 111.198 104.94 111.384 104.943C121.005 105.117 128.924 100.244 129.036 94.0789C129.146 87.9137 121.409 82.7568 111.787 82.5814Z" fill="#CC282A"/>
<path d="M109.105 92.1415C109.489 92.3715 110.035 92.5701 110.743 92.7383L110.798 89.7409C110.101 89.8219 109.553 89.9932 109.151 90.2546C108.75 90.5171 108.547 90.8495 108.539 91.2538C108.532 91.6166 108.721 91.9125 109.105 92.1415ZM114.346 97.271C114.706 97.0238 114.89 96.6985 114.897 96.2942C114.903 95.973 114.729 95.7115 114.378 95.5078C114.026 95.3052 113.511 95.1298 112.835 94.9829L112.785 97.7635C113.466 97.6825 113.986 97.5183 114.346 97.271ZM116.618 98.3847C115.694 98.9431 114.463 99.2805 112.926 99.3981L112.895 101.123L110.423 101.078L110.453 99.3849C109.371 99.3129 108.367 99.1609 107.442 98.9258C106.517 98.6918 105.71 98.3817 105.022 97.9966L106.114 96.5556C107.507 97.2852 109.02 97.7017 110.65 97.8031L110.709 94.5725C109.629 94.3769 108.72 94.1662 107.98 93.9402C107.24 93.7142 106.624 93.3869 106.131 92.9593C105.637 92.5306 105.397 91.9804 105.409 91.3065C105.419 90.7471 105.647 90.2415 106.091 89.7885C106.536 89.3355 107.152 88.9636 107.943 88.6728C108.732 88.382 109.637 88.2036 110.656 88.1398L110.688 86.4161L113.16 86.4607L113.128 88.1692C114.064 88.2583 114.942 88.4195 115.763 88.6525C116.584 88.8856 117.273 89.1724 117.833 89.5139L116.74 90.9549C115.572 90.3124 114.302 89.9162 112.93 89.7672L112.87 93.1376C113.949 93.3332 114.842 93.5389 115.55 93.7537C116.257 93.9686 116.85 94.2827 117.328 94.6951C117.805 95.1076 118.038 95.6406 118.026 96.2922C118.011 97.1282 117.541 97.8264 116.618 98.3847Z" fill="white"/>
<path d="M132.348 98.4788L132.378 98.4798L132.456 94.1437C132.322 101.518 122.852 107.348 111.343 107.139C99.8353 106.93 90.5808 100.761 90.7142 93.3867C90.7142 93.3867 90.6283 98.1616 90.6242 98.3825C90.502 105.18 99.7645 110.88 111.273 111.089C122.781 111.298 132.244 105.937 132.366 99.1395C132.37 98.9176 132.363 98.6977 132.348 98.4788Z" fill="#CC282A"/>
<path d="M88.6079 87.192C88.7194 81.0169 80.9974 75.8691 71.3604 75.6942C61.7234 75.5193 53.8207 80.3834 53.7092 86.5585C53.5977 92.7336 61.3197 97.8814 70.9567 98.0563C80.5936 98.2312 88.4964 93.3671 88.6079 87.192Z" fill="#F93D40"/>
<path d="M70.9182 100.246C59.41 100.037 50.1555 93.8679 50.2889 86.4938C50.4223 79.1197 59.8931 73.2899 71.4013 73.4996C82.9095 73.7084 92.1639 79.8776 92.0305 87.2518C91.8971 94.6259 82.4264 100.456 70.9182 100.246ZM71.3618 75.6915C61.7405 75.5172 53.8221 80.3904 53.7099 86.5556C53.5988 92.7208 61.3363 97.8787 70.9576 98.053C80.5789 98.2273 88.4973 93.3541 88.6095 87.1889C88.7207 81.0237 80.9832 75.8668 71.3618 75.6915Z" fill="#F03033"/>
<path d="M76.6479 91.8604C75.7242 92.4187 74.4932 92.7562 72.956 92.8737L72.9247 94.5984L70.4526 94.5538L70.483 92.8605C69.4006 92.7886 68.397 92.6366 67.4722 92.4015C66.5465 92.1674 65.74 91.8573 65.0518 91.4723L66.1443 90.0313C67.5369 90.7609 69.0499 91.1774 70.68 91.2787L70.7386 88.0482C69.6593 87.8526 68.7497 87.6418 68.0099 87.4158C67.2701 87.1898 66.6536 86.8625 66.1604 86.4349C65.6672 86.0063 65.4267 85.456 65.4388 84.7821C65.4489 84.2228 65.6763 83.7171 66.121 83.2641C66.5657 82.8112 67.1822 82.4393 67.9725 82.1484C68.7618 81.8576 69.6664 81.6793 70.6861 81.6154L70.7174 79.8917L73.1895 79.9363L73.1581 81.6448C74.094 81.734 74.9722 81.8951 75.7929 82.1282C76.6135 82.3612 77.3028 82.648 77.8627 82.9895L76.7702 84.4305C75.6019 83.788 74.3315 83.3918 72.96 83.2429L72.8994 86.6133C73.9788 86.8088 74.8722 87.0145 75.5796 87.2294C76.2871 87.4442 76.8793 87.7583 77.3574 88.1708C77.8344 88.5832 78.0678 89.1162 78.0557 89.7678C78.0406 90.6038 77.5706 91.303 76.6479 91.8604ZM69.1337 85.6181C69.5178 85.8482 70.0635 86.0468 70.772 86.215L70.8266 83.2175C70.1302 83.2986 69.5815 83.4699 69.1802 83.7313C68.779 83.9938 68.5759 84.3261 68.5678 84.7305C68.5617 85.0922 68.7497 85.3881 69.1337 85.6181ZM74.376 90.7477C74.7357 90.5005 74.9197 90.1752 74.9268 89.7708C74.9328 89.4496 74.759 89.1882 74.4073 88.9845C74.0556 88.7818 73.5412 88.6065 72.865 88.4596L72.8145 91.2402C73.4957 91.1581 74.0162 90.995 74.376 90.7477Z" fill="#CC282A"/>
<path d="M51.5611 86.517C51.6914 79.2796 60.8186 73.5299 72.0367 73.5178C71.8255 73.5096 71.6133 73.5036 71.4 73.4995C59.8918 73.2908 50.4211 79.1195 50.2877 86.4937C50.1553 93.8678 59.4097 100.037 70.9179 100.246C71.1312 100.25 71.3424 100.251 71.5546 100.251C60.3436 99.8313 51.4307 93.7543 51.5611 86.517Z" fill="#FF7678"/>
<path d="M71.361 75.6905C71.174 75.6874 70.9891 75.6864 70.8041 75.6864C80.1657 76.0451 87.6041 81.122 87.4949 87.1676C87.3858 93.2133 79.7685 98.0165 70.4009 98.0358C70.5858 98.0429 70.7718 98.0489 70.9577 98.052C80.5791 98.2263 88.4975 93.3531 88.6097 87.1879C88.7198 81.0227 80.9823 75.8658 71.361 75.6905Z" fill="#CC282A"/>
<path d="M68.6797 85.2507C69.0637 85.4807 69.6095 85.6793 70.3179 85.8475L70.3725 82.8501C69.6762 82.9311 69.1274 83.1024 68.7262 83.3638C68.3249 83.6263 68.1218 83.9587 68.1137 84.363C68.1066 84.7258 68.2956 85.0217 68.6797 85.2507ZM73.9209 90.3802C74.2807 90.133 74.4646 89.8077 74.4717 89.4034C74.4777 89.0821 74.3039 88.8207 73.9522 88.617C73.6005 88.4143 73.0861 88.239 72.41 88.0921L72.3594 90.8727C73.0406 90.7917 73.5611 90.6275 73.9209 90.3802ZM76.1928 91.4939C75.2691 92.0523 74.0381 92.3897 72.5009 92.5073L72.4696 94.232L69.9976 94.1874L70.0279 92.4941C68.9455 92.4221 67.9419 92.2701 67.0172 92.035C66.0914 91.801 65.2849 91.4909 64.5967 91.1058L65.6892 89.6648C67.0819 90.3944 68.5948 90.8109 70.225 90.9122L70.2836 87.6817C69.2042 87.4861 68.2946 87.2753 67.5548 87.0494C66.815 86.8234 66.1985 86.4961 65.7054 86.0684C65.2122 85.6398 64.9716 85.0896 64.9838 84.4157C64.9939 83.8563 65.2213 83.3507 65.6659 82.8977C66.1106 82.4447 66.7271 82.0728 67.5174 81.782C68.3068 81.4912 69.2113 81.3128 70.231 81.249L70.2624 79.5253L72.7344 79.5699L72.7031 81.2784C73.6389 81.3675 74.5172 81.5287 75.3378 81.7617C76.1584 81.9948 76.8477 82.2816 77.4076 82.6231L76.3151 84.064C75.1468 83.4216 73.8764 83.0254 72.505 82.8764L72.4443 86.2468C73.5237 86.4424 74.4171 86.6481 75.1246 86.8629C75.832 87.0777 76.4243 87.3919 76.9023 87.8043C77.3793 88.2167 77.6128 88.7498 77.6006 89.4013C77.5855 90.2374 77.1155 90.9356 76.1928 91.4939Z" fill="white"/>
<path d="M91.9224 91.5882L91.9527 91.5892L92.0305 87.2531C91.8971 94.6273 82.4264 100.457 70.9182 100.248C59.41 100.04 50.1555 93.8703 50.2889 86.4962C50.2889 86.4962 50.203 91.271 50.199 91.492C50.0767 98.2895 59.3392 103.99 70.8474 104.198C82.3556 104.407 91.8183 99.0465 91.9406 92.2489C91.9446 92.027 91.9376 91.8071 91.9224 91.5882Z" fill="#CC282A"/>
<path d="M122.666 85.267C122.778 79.0919 115.056 73.9441 105.419 73.7692C95.782 73.5943 87.8793 78.4584 87.7678 84.6335C87.6563 90.8086 95.3782 95.9564 105.015 96.1313C114.652 96.3062 122.555 91.4421 122.666 85.267Z" fill="#F93D40"/>
<path d="M104.976 98.3203C93.4682 98.1115 84.2137 91.9423 84.3471 84.5681C84.4805 77.194 93.9513 71.3642 105.459 71.574C116.968 71.7827 126.222 77.952 126.089 85.3261C125.955 92.7002 116.485 98.53 104.976 98.3203ZM105.42 73.7658C95.7987 73.5915 87.8803 78.4647 87.7682 84.6299C87.657 90.7951 95.3945 95.9531 105.016 96.1274C114.637 96.3017 122.556 91.4285 122.668 85.2633C122.779 79.0981 115.041 73.9411 105.42 73.7658Z" fill="#F03033"/>
<path d="M110.706 89.9367C109.783 90.495 108.552 90.8325 107.015 90.95L106.983 92.6747L104.511 92.6301L104.542 90.9368C103.459 90.8649 102.456 90.7129 101.531 90.4778C100.605 90.2437 99.7986 89.9336 99.1104 89.5485L100.203 88.1076C101.596 88.8372 103.108 89.2537 104.739 89.355L104.797 86.1244C103.718 85.9289 102.808 85.7181 102.069 85.4921C101.329 85.2661 100.712 84.9388 100.219 84.5112C99.7258 84.0826 99.4853 83.5323 99.4974 82.8584C99.5075 82.2991 99.7349 81.7934 100.18 81.3404C100.624 80.8875 101.241 80.5156 102.031 80.2247C102.82 79.9339 103.725 79.7556 104.745 79.6917L104.776 77.968L107.248 78.0126L107.217 79.7211C108.153 79.8103 109.031 79.9714 109.851 80.2045C110.672 80.4375 111.361 80.7243 111.921 81.0658L110.829 82.5068C109.66 81.8643 108.39 81.4681 107.019 81.3192L106.958 84.6895C108.037 84.8851 108.931 85.0908 109.638 85.3057C110.346 85.5205 110.938 85.8346 111.416 86.2471C111.893 86.6595 112.126 87.1925 112.114 87.8441C112.099 88.6801 111.629 89.3793 110.706 89.9367ZM103.192 83.6944C103.576 83.9245 104.122 84.1231 104.831 84.2913L104.885 81.2938C104.189 81.3749 103.64 81.5461 103.239 81.8076C102.838 82.07 102.634 82.4024 102.626 82.8067C102.62 83.1685 102.808 83.4644 103.192 83.6944ZM108.435 88.824C108.794 88.5767 108.978 88.2515 108.985 87.8471C108.991 87.5259 108.818 87.2645 108.466 87.0608C108.114 86.8581 107.6 86.6828 106.924 86.5359L106.873 89.3165C107.554 89.2344 108.075 89.0713 108.435 88.824Z" fill="#CC282A"/>
<path d="M85.6195 84.5914C85.7499 77.3541 94.877 71.6043 106.095 71.5922C105.884 71.5841 105.672 71.578 105.458 71.5739C93.9503 71.3652 84.4795 77.1939 84.3461 84.5681C84.2137 91.9422 93.4682 98.1115 104.976 98.3202C105.19 98.3243 105.401 98.3253 105.613 98.3253C94.402 97.9057 85.4892 91.8287 85.6195 84.5914Z" fill="#FF7678"/>
<path d="M105.42 73.7661C105.233 73.763 105.048 73.762 104.863 73.762C114.225 74.1207 121.663 79.1976 121.554 85.2432C121.445 91.2889 113.828 96.0921 104.46 96.1114C104.645 96.1185 104.831 96.1246 105.017 96.1276C114.638 96.3019 122.557 91.4287 122.669 85.2635C122.779 79.0983 115.041 73.9414 105.42 73.7661Z" fill="#CC282A"/>
<path d="M102.737 83.3261C103.121 83.5561 103.667 83.7548 104.376 83.923L104.43 80.9255C103.734 81.0066 103.185 81.1778 102.784 81.4393C102.383 81.7017 102.179 82.0341 102.171 82.4384C102.164 82.8012 102.353 83.0971 102.737 83.3261ZM107.979 88.4557C108.338 88.2084 108.522 87.8831 108.529 87.4788C108.535 87.1576 108.362 86.8961 108.01 86.6925C107.658 86.4898 107.144 86.3145 106.468 86.1675L106.417 88.9482C107.098 88.8671 107.619 88.7029 107.979 88.4557ZM110.25 89.5694C109.327 90.1277 108.096 90.4651 106.559 90.5827L106.527 92.3074L104.055 92.2628L104.085 90.5695C103.003 90.4976 102 90.3456 101.075 90.1105C100.149 89.8764 99.3425 89.5663 98.6543 89.1812L99.7468 87.7403C101.139 88.4699 102.652 88.8864 104.283 88.9877L104.341 85.7571C103.262 85.5616 102.352 85.3508 101.612 85.1248C100.873 84.8988 100.256 84.5715 99.763 84.1439C99.2698 83.7152 99.0292 83.165 99.0414 82.4911C99.0515 81.9318 99.2789 81.4261 99.7236 80.9731C100.168 80.5202 100.785 80.1483 101.575 79.8574C102.364 79.5666 103.269 79.3883 104.289 79.3244L104.32 77.6007L106.792 77.6453L106.761 79.3538C107.697 79.443 108.575 79.6041 109.395 79.8372C110.216 80.0702 110.905 80.357 111.465 80.6985L110.373 82.1395C109.204 81.497 107.934 81.1008 106.563 80.9518L106.502 84.3222C107.581 84.5178 108.475 84.7235 109.182 84.9384C109.89 85.1532 110.482 85.4673 110.96 85.8798C111.437 86.2922 111.67 86.8252 111.658 87.4768C111.643 88.3128 111.173 89.011 110.25 89.5694Z" fill="white"/>
<path d="M125.981 89.6647L126.011 89.6657L126.089 85.3296C125.955 92.7037 116.484 98.5335 104.976 98.3248C93.4681 98.116 84.2136 91.9468 84.347 84.5726C84.347 84.5726 84.2611 89.3475 84.2571 89.5684C84.1348 96.366 93.3973 102.066 104.906 102.275C116.414 102.484 125.876 97.1229 125.999 90.3254C126.003 90.1035 125.996 89.8836 125.981 89.6647Z" fill="#CC282A"/>
<path d="M100.23 78.2749C100.342 72.0997 92.6198 66.952 82.9828 66.7771C73.3458 66.6021 65.4431 71.4663 65.3316 77.6414C65.2201 83.8165 72.9421 88.9643 82.5791 89.1392C92.2161 89.3141 100.119 84.45 100.23 78.2749Z" fill="#F93D40"/>
<path d="M82.5407 91.328C71.0325 91.1192 61.7781 84.9499 61.9115 77.5758C62.0449 70.2017 71.5156 64.3719 83.0238 64.5817C94.532 64.7904 103.787 70.9597 103.653 78.3338C103.52 85.7079 94.0489 91.5377 82.5407 91.328ZM82.9844 66.7735C73.3631 66.5992 65.4447 71.4724 65.3325 77.6376C65.2213 83.8028 72.9588 88.9608 82.5801 89.1351C92.2015 89.3094 100.12 84.4362 100.232 78.271C100.343 72.1058 92.6057 66.9488 82.9844 66.7735Z" fill="#F03033"/>
<path d="M88.2713 82.9443C87.3476 83.5026 86.1166 83.8401 84.5794 83.9576L84.5481 85.6824L82.0761 85.6378L82.1064 83.9445C81.024 83.8725 80.0204 83.7205 79.0957 83.4854C78.1699 83.2513 77.3634 82.9412 76.6752 82.5562L77.7677 81.1152C79.1603 81.8448 80.6733 82.2613 82.3034 82.3626L82.3621 79.1321C81.2827 78.9365 80.3731 78.7257 79.6333 78.4997C78.8935 78.2738 78.277 77.9465 77.7838 77.5188C77.2907 77.0902 77.0501 76.5399 77.0622 75.8661C77.0723 75.3067 77.2997 74.801 77.7444 74.3481C78.1891 73.8951 78.8056 73.5232 79.5959 73.2324C80.3852 72.9415 81.2898 72.7632 82.3095 72.6993L82.3408 70.9756L84.8129 71.0202L84.7815 72.7287C85.7174 72.8179 86.5957 72.979 87.4163 73.2121C88.2369 73.4452 88.9262 73.732 89.4861 74.0734L88.3936 75.5144C87.2253 74.872 85.9549 74.4757 84.5835 74.3268L84.5228 77.6972C85.6022 77.8928 86.4956 78.0985 87.2031 78.3133C87.9105 78.5281 88.5027 78.8423 88.9808 79.2547C89.4578 79.6671 89.6913 80.2001 89.6791 80.8517C89.664 81.6877 89.194 82.3869 88.2713 82.9443ZM80.7572 76.7021C81.1412 76.9321 81.687 77.1307 82.3954 77.2989L82.45 74.3015C81.7537 74.3825 81.2049 74.5538 80.8037 74.8152C80.4024 75.0777 80.1993 75.4101 80.1912 75.8144C80.1851 76.1761 80.3731 76.472 80.7572 76.7021ZM85.9994 81.8316C86.3592 81.5844 86.5431 81.2591 86.5502 80.8548C86.5562 80.5335 86.3824 80.2721 86.0307 80.0684C85.679 79.8657 85.1646 79.6904 84.4885 79.5435L84.4379 82.3241C85.1191 82.242 85.6396 82.0789 85.9994 81.8316Z" fill="#CC282A"/>
<path d="M63.1839 77.5999C63.3142 70.3625 72.4414 64.6128 83.6595 64.6006C83.4483 64.5925 83.2361 64.5865 83.0228 64.5824C71.5146 64.3737 62.0439 70.2024 61.9105 77.5766C61.7781 84.9507 71.0325 91.1199 82.5407 91.3287C82.754 91.3327 82.9652 91.3337 83.1775 91.3337C71.9664 90.9142 63.0535 84.8372 63.1839 77.5999Z" fill="#FF7678"/>
<path d="M82.9844 66.7746C82.7974 66.7715 82.6125 66.7705 82.4275 66.7705C91.7891 67.1292 99.2275 72.2061 99.1183 78.2517C99.0092 84.2974 91.392 89.1006 82.0243 89.1199C82.2092 89.127 82.3952 89.1331 82.5812 89.1361C92.2025 89.3104 100.121 84.4372 100.233 78.272C100.343 72.1068 92.6057 66.9499 82.9844 66.7746Z" fill="#CC282A"/>
<path d="M80.3021 76.3345C80.6862 76.5646 81.2319 76.7632 81.9404 76.9314L81.9949 73.9339C81.2986 74.015 80.7498 74.1862 80.3486 74.4477C79.9474 74.7101 79.7442 75.0425 79.7362 75.4469C79.7291 75.8096 79.9181 76.1055 80.3021 76.3345ZM85.5433 81.4641C85.9031 81.2168 86.087 80.8916 86.0941 80.4872C86.1002 80.166 85.9264 79.9046 85.5747 79.7009C85.2229 79.4982 84.7085 79.3229 84.0324 79.176L83.9819 81.9566C84.663 81.8755 85.1835 81.7114 85.5433 81.4641ZM87.8152 82.5778C86.8915 83.1361 85.6606 83.4736 84.1234 83.5911L84.092 85.3158L81.62 85.2712L81.6503 83.5779C80.5679 83.506 79.5643 83.354 78.6396 83.1189C77.7139 82.8848 76.9074 82.5747 76.2191 82.1897L77.3116 80.7487C78.7043 81.4783 80.2172 81.8948 81.8474 81.9961L81.906 78.7656C80.8266 78.57 79.9171 78.3592 79.1773 78.1332C78.4375 77.9073 77.821 77.5799 77.3278 77.1523C76.8346 76.7237 76.5941 76.1734 76.6062 75.4995C76.6163 74.9402 76.8437 74.4345 77.2884 73.9815C77.7331 73.5286 78.3496 73.1567 79.1399 72.8659C79.9292 72.575 80.8337 72.3967 81.8535 72.3328L81.8848 70.6091L84.3568 70.6537L84.3255 72.3622C85.2613 72.4514 86.1396 72.6125 86.9602 72.8456C87.7809 73.0787 88.4701 73.3654 89.03 73.7069L87.9375 75.1479C86.7692 74.5054 85.4989 74.1092 84.1274 73.9603L84.0668 77.3307C85.1461 77.5262 86.0395 77.7319 86.747 77.9468C87.4544 78.1616 88.0467 78.4757 88.5247 78.8882C89.0017 79.3006 89.2352 79.8336 89.2231 80.4852C89.2079 81.3212 88.738 82.0194 87.8152 82.5778Z" fill="white"/>
<path d="M103.545 82.6702L103.575 82.6712L103.653 78.3351C103.52 85.7092 94.0489 91.539 82.5407 91.3303C71.0325 91.1215 61.7781 84.9523 61.9115 77.5781C61.9115 77.5781 61.8256 82.353 61.8215 82.5739C61.6992 89.3715 70.9618 95.0715 82.47 95.2803C93.9782 95.489 103.441 90.1284 103.563 83.3309C103.567 83.109 103.56 82.8891 103.545 82.6702Z" fill="#CC282A"/>
<path d="M105.943 109.255C106.025 101.693 100.351 95.5005 93.2685 95.4231C86.1864 95.3457 80.3786 101.413 80.2963 108.975C80.2141 116.537 85.8887 122.73 92.9708 122.807C100.053 122.885 105.861 116.817 105.943 109.255Z" fill="#CC282A"/>
<path d="M102.546 109.26C102.615 102.938 97.8713 97.7596 91.9501 97.6943C86.0288 97.629 81.1725 102.701 81.1031 109.023C81.0338 115.345 85.7776 120.523 91.6989 120.589C97.6201 120.654 102.476 115.582 102.546 109.26Z" fill="#F93D40"/>
<path d="M87.3821 121.993C80.749 119.386 77.3452 111.501 79.7958 104.414C82.2456 97.3273 89.6357 93.6824 96.2694 96.2887C102.903 98.8949 106.306 106.781 103.856 113.867C101.406 120.954 94.0159 124.599 87.3821 121.993ZM95.5409 98.3958C89.9946 96.2171 83.8163 99.2641 81.7677 105.188C79.7191 111.114 82.5649 117.706 88.1106 119.885C93.6569 122.065 99.8352 119.017 101.884 113.092C103.932 107.168 101.087 100.575 95.5409 98.3958Z" fill="#F03033"/>
<path d="M80.5286 104.701C82.9335 97.7462 90.0975 94.1073 96.6334 96.4391C96.5131 96.3874 96.3914 96.3364 96.2691 96.2887C89.6354 93.6824 82.2454 97.3273 79.7955 104.414C77.3456 111.5 80.7487 119.386 87.3825 121.992C87.5054 122.04 87.6284 122.085 87.7514 122.13C81.3589 119.382 78.1243 111.657 80.5286 104.701Z" fill="#FF7678"/>
<path d="M95.541 98.3946C95.4332 98.3522 95.3255 98.3131 95.2177 98.2747C100.553 100.577 103.25 107.029 101.242 112.839C99.233 118.649 93.253 121.691 87.792 119.752C87.8978 119.798 88.0035 119.842 88.1113 119.884C93.6576 122.064 99.8359 119.016 101.885 113.091C103.932 107.167 101.087 100.574 95.541 98.3946Z" fill="#CC282A"/>
<path d="M95.2218 114.299C94.6599 114.864 93.9043 115.204 92.9556 115.318L92.9649 117.072L91.4352 117.019L91.4259 115.297C90.7556 115.222 90.1322 115.063 89.5565 114.822C88.98 114.581 88.4763 114.264 88.0439 113.87L88.6958 112.407C89.5697 113.154 90.5117 113.581 91.5218 113.689L91.5039 110.403C90.833 110.201 90.2671 109.984 89.8057 109.752C89.3443 109.521 88.9575 109.185 88.6455 108.749C88.3335 108.311 88.1755 107.75 88.1715 107.066C88.1682 106.497 88.3004 105.983 88.5682 105.523C88.8359 105.064 89.2107 104.687 89.6946 104.393C90.1779 104.099 90.7345 103.921 91.3638 103.858L91.3545 102.104L92.8842 102.157L92.8935 103.895C93.4739 103.989 94.0193 104.155 94.5309 104.394C95.0419 104.632 95.4736 104.927 95.8253 105.275L95.1735 106.737C94.4404 106.081 93.6478 105.674 92.7976 105.519L92.8161 108.947C93.4871 109.149 94.0431 109.36 94.484 109.581C94.9249 109.802 95.2965 110.123 95.5986 110.543C95.9007 110.964 96.0534 111.507 96.0573 112.17C96.062 113.025 95.7837 113.734 95.2218 114.299ZM90.4714 107.929C90.7127 108.163 91.0538 108.367 91.494 108.54L91.4775 105.491C91.0478 105.572 90.7113 105.745 90.4681 106.01C90.2241 106.275 90.1038 106.614 90.1065 107.024C90.1084 107.392 90.2301 107.694 90.4714 107.929ZM93.7985 113.161C94.0166 112.91 94.1251 112.58 94.1231 112.169C94.1211 111.843 94.0094 111.576 93.7886 111.368C93.5678 111.161 93.2465 110.981 92.8261 110.829L92.8413 113.657C93.261 113.577 93.5797 113.411 93.7985 113.161Z" fill="#CC282A"/>
<path d="M90.1831 107.552C90.4244 107.787 90.7648 107.991 91.2058 108.164L91.1892 105.115C90.7596 105.195 90.4231 105.368 90.1798 105.633C89.9359 105.899 89.8156 106.237 89.8182 106.647C89.8208 107.016 89.9425 107.317 90.1831 107.552ZM93.5109 112.785C93.729 112.534 93.8375 112.204 93.8355 111.793C93.8335 111.467 93.7218 111.2 93.501 110.992C93.2802 110.785 92.9589 110.605 92.5385 110.453L92.5537 113.281C92.9728 113.201 93.2921 113.035 93.5109 112.785ZM94.9342 113.923C94.3723 114.488 93.6167 114.828 92.668 114.943L92.6773 116.696L91.1476 116.643L91.1383 114.921C90.468 114.846 89.8446 114.687 89.2689 114.446C88.6924 114.205 88.1887 113.888 87.7563 113.494L88.4082 112.031C89.2821 112.778 90.2241 113.205 91.2342 113.313L91.2163 110.027C90.5454 109.825 89.9795 109.608 89.5181 109.376C89.0567 109.145 88.6699 108.809 88.3579 108.373C88.0459 107.935 87.8879 107.374 87.8839 106.69C87.8806 106.121 88.0128 105.607 88.2806 105.147C88.5483 104.688 88.9231 104.311 89.407 104.017C89.8903 103.723 90.4469 103.545 91.0762 103.482L91.0669 101.728L92.5966 101.781L92.6059 103.519C93.1863 103.613 93.7323 103.779 94.2433 104.018C94.7543 104.256 95.186 104.551 95.5377 104.899L94.8859 106.362C94.1528 105.705 93.3602 105.298 92.51 105.143L92.5286 108.571C93.1995 108.773 93.7555 108.984 94.1964 109.205C94.6373 109.426 95.0089 109.747 95.3116 110.167C95.6137 110.588 95.7664 111.131 95.7704 111.794C95.7744 112.649 95.4954 113.358 94.9342 113.923Z" fill="white"/>
<path d="M54.6088 104.778C58.9994 98.2848 59.3011 90.761 55.2827 87.9729C51.2643 85.1847 44.4476 88.188 40.0571 94.6809C35.6665 101.174 35.3648 108.698 39.3832 111.486C43.4015 114.274 50.2183 111.271 54.6088 104.778Z" fill="#F03033"/>
<path d="M56.7874 89.1624C57.4327 90.3776 57.3841 92.201 57.3667 94.0041C57.3024 100.541 52.3939 108.187 46.4236 111.048C43.7955 112.307 41.3942 112.431 39.5334 111.619C39.5251 111.699 41.9346 114.202 45.0198 113.756C48.4622 113.257 53.6866 110.139 56.76 104.742C60.9997 97.2965 59.2889 93.5675 59.059 92.7107C58.6167 91.0659 56.8455 89.1568 56.7874 89.1624Z" fill="#CC282A"/>
<path d="M53.4121 103.957C57.0849 98.5329 57.3405 92.2425 53.9831 89.9067C50.6256 87.5709 44.9264 90.0742 41.2536 95.498C37.5808 100.922 37.3252 107.212 40.6826 109.548C44.0401 111.884 49.7393 109.38 53.4121 103.957Z" fill="#F93D40"/>
<path d="M47.2099 111.55C41.2285 114.39 36.4189 111.397 36.4877 104.879C36.557 98.3611 41.4786 90.7481 47.46 87.9089C53.4414 85.0697 58.251 88.0625 58.1822 94.5802C58.1134 101.098 53.191 108.711 47.2099 111.55ZM47.4395 89.8462C42.4388 92.2203 38.3239 98.5851 38.266 104.035C38.2081 109.484 42.23 111.986 47.2301 109.613C52.2308 107.239 56.3462 100.873 56.4036 95.424C56.4614 89.9743 52.4405 87.4726 47.4395 89.8462Z" fill="#F03033"/>
<path d="M50.1958 102.657C49.715 103.388 49.0743 104.005 48.2734 104.51L48.257 106.028L46.9697 106.636L46.9853 105.145C46.4223 105.366 45.8992 105.495 45.418 105.531C44.9357 105.568 44.5159 105.508 44.1581 105.351L44.7273 103.803C45.4525 104.078 46.2397 104.046 47.0889 103.709L47.1196 100.865C46.5575 100.976 46.0839 101.029 45.6989 101.025C45.3139 101.021 44.9928 100.896 44.7363 100.65C44.4795 100.404 44.3544 99.9848 44.3607 99.3924C44.3661 98.9004 44.4841 98.3979 44.7161 97.8847C44.9475 97.3719 45.2687 96.8851 45.6798 96.4234C46.0909 95.9617 46.5615 95.5696 47.0927 95.2462L47.1094 93.7285L48.3967 93.1209L48.3806 94.6247C48.868 94.4584 49.325 94.3696 49.7524 94.3582C50.1793 94.3472 50.5387 94.4179 50.8303 94.5707L50.2611 96.1182C49.6526 95.8613 48.9913 95.8469 48.2778 96.0751L48.2464 99.0425C48.8084 98.9315 49.2736 98.877 49.642 98.8805C50.0101 98.8834 50.3188 99.0034 50.5675 99.2393C50.816 99.4761 50.9372 99.8811 50.931 100.455C50.9208 101.193 50.6763 101.927 50.1958 102.657ZM46.2839 99.1574C46.4839 99.2584 46.7677 99.2895 47.1367 99.2515L47.1646 96.6122C46.8017 96.8652 46.516 97.1591 46.3076 97.4929C46.099 97.8276 45.9926 98.172 45.9892 98.5279C45.9863 98.8467 46.0843 99.057 46.2839 99.1574ZM49.0133 102.277C49.2006 101.966 49.2967 101.633 49.3 101.277C49.303 100.995 49.2127 100.811 49.0299 100.725C48.8466 100.639 48.5787 100.62 48.2266 100.669L48.2004 103.116C48.5548 102.867 48.8255 102.588 49.0133 102.277Z" fill="#CC282A"/>
<path d="M37.1609 104.615C37.2291 98.2454 41.9806 90.8245 47.8221 87.8774C47.712 87.9261 47.6017 87.9755 47.4908 88.0276C41.4984 90.8562 36.5672 98.4381 36.4981 104.928C36.4284 111.418 41.2475 114.397 47.2396 111.568C47.3504 111.516 47.4609 111.461 47.5711 111.405C41.7339 113.972 37.0932 110.985 37.1609 104.615Z" fill="#FF7678"/>
<path d="M47.4153 89.8323C47.3183 89.8784 47.2215 89.926 47.1254 89.9745C51.9997 87.8391 55.8727 90.3363 55.8161 95.6576C55.7589 100.979 51.793 107.177 46.9155 109.646C47.0121 109.603 47.1086 109.56 47.2056 109.514C52.2154 107.149 56.3385 100.81 56.3961 95.3836C56.4537 89.9575 52.4255 87.4676 47.4153 89.8323Z" fill="#CC282A"/>
<path d="M46.0449 98.9621C46.2448 99.0631 46.5287 99.0942 46.8976 99.0561L46.9256 96.4169C46.5626 96.6699 46.2769 96.9637 46.0685 97.2976C45.8599 97.6322 45.7535 97.9767 45.7501 98.3326C45.7471 98.6523 45.8447 98.862 46.0449 98.9621ZM48.7741 102.082C48.9614 101.772 49.0574 101.439 49.0608 101.083C49.0637 100.801 48.9735 100.616 48.7907 100.53C48.6073 100.445 48.3394 100.426 47.9879 100.474L47.9617 102.922C48.3156 102.673 48.5862 102.393 48.7741 102.082ZM49.9565 102.463C49.4758 103.193 48.835 103.811 48.0341 104.316L48.0178 105.834L46.7304 106.442L46.7464 104.951C46.1833 105.172 45.6603 105.301 45.1791 105.337C44.6968 105.374 44.277 105.314 43.9192 105.157L44.488 103.609C45.2132 103.883 46.0004 103.852 46.8496 103.514L46.8803 100.67C46.3183 100.781 45.8447 100.835 45.4597 100.831C45.0747 100.827 44.7536 100.702 44.4971 100.456C44.2402 100.209 44.1151 99.7903 44.1214 99.198C44.1268 98.7059 44.2448 98.2034 44.4768 97.6902C44.7083 97.1774 45.0294 96.6906 45.4405 96.2289C45.8516 95.7673 46.3222 95.3751 46.8534 95.0517L46.8701 93.534L48.1574 92.9264L48.1414 94.4302C48.6288 94.264 49.0857 94.1751 49.5131 94.1637C49.94 94.1527 50.2995 94.2234 50.591 94.3762L50.0219 95.9238C49.4134 95.6669 48.752 95.6524 48.0386 95.8806L48.0071 98.848C48.5692 98.737 49.0343 98.6826 49.4028 98.686C49.7709 98.689 50.0796 98.8089 50.3282 99.0448C50.5767 99.2816 50.6979 99.6867 50.6917 100.261C50.6816 100.998 50.4367 101.732 49.9565 102.463Z" fill="white"/>
<path d="M125.124 101.55C125.117 109.426 129.097 115.768 134.012 115.716C138.928 115.663 142.918 109.235 142.925 101.359C142.932 93.4834 138.953 87.1413 134.037 87.194C129.122 87.2467 125.131 93.6741 125.124 101.55Z" fill="#F03033"/>
<path d="M132.214 115.383C130.996 114.79 130.007 113.293 129.004 111.831C125.368 106.53 125.104 97.4413 128.415 91.5713C129.873 88.987 131.784 87.4527 133.777 86.9944C133.739 86.9249 130.339 86.3493 128.045 88.5522C125.487 91.0103 122.936 96.6422 123.446 102.824C124.149 111.351 127.664 113.331 128.338 113.884C129.631 114.944 132.169 115.422 132.214 115.383Z" fill="#CC282A"/>
<path d="M126.612 101.545C126.591 108.125 129.893 113.42 133.988 113.372C138.082 113.323 141.418 107.949 141.439 101.369C141.46 94.7885 138.158 89.4935 134.063 89.5422C129.969 89.5908 126.633 94.9647 126.612 101.545Z" fill="#F93D40"/>
<path d="M127.407 91.8549C130.701 85.9061 136.348 85.3743 139.995 90.6688C143.643 95.9639 143.931 105.111 140.637 111.06C137.343 117.009 131.696 117.541 128.048 112.246C124.4 106.952 124.113 97.8039 127.407 91.8549ZM139.553 109.486C142.307 104.512 142.066 96.8648 139.016 92.4376C135.967 88.0105 131.245 88.4557 128.491 93.4289C125.737 98.4027 125.978 106.051 129.028 110.477C132.077 114.905 136.798 114.46 139.553 109.486Z" fill="#F03033"/>
<path d="M130.022 100.815C129.999 99.9248 130.171 99.0282 130.539 98.1246L129.688 96.8784L130.394 95.5922L131.23 96.8156C131.564 96.29 131.918 95.8632 132.291 95.5376C132.664 95.2109 133.041 95.0019 133.423 94.9099L133.838 96.5199C133.09 96.7423 132.464 97.252 131.962 98.0489L133.556 100.383C133.952 99.9475 134.308 99.6124 134.625 99.379C134.942 99.1455 135.275 99.0502 135.625 99.0927C135.975 99.1353 136.316 99.3996 136.647 99.8857C136.923 100.29 137.113 100.771 137.215 101.332C137.318 101.892 137.332 102.486 137.259 103.114C137.186 103.743 137.024 104.352 136.774 104.941L137.624 106.187L136.918 107.474L136.075 106.239C135.772 106.674 135.449 107.028 135.106 107.3C134.764 107.571 134.43 107.735 134.104 107.79L133.689 106.18C134.332 106.015 134.881 105.62 135.334 104.995L133.671 102.56C133.275 102.996 132.926 103.326 132.623 103.55C132.321 103.774 132 103.866 131.663 103.827C131.325 103.787 130.996 103.531 130.674 103.06C130.263 102.454 130.045 101.705 130.022 100.815ZM135.21 101.26C134.989 101.3 134.739 101.45 134.459 101.707L135.938 103.873C136.091 103.444 136.157 103.029 136.137 102.629C136.117 102.229 136.008 101.883 135.809 101.591C135.63 101.33 135.43 101.219 135.21 101.26ZM131.205 100.398C131.228 100.766 131.339 101.096 131.539 101.388C131.697 101.62 131.876 101.714 132.074 101.672C132.273 101.629 132.502 101.479 132.762 101.224L131.391 99.2146C131.243 99.6353 131.181 100.029 131.205 100.398Z" fill="#CC282A"/>
<path d="M139.658 91.3897C143.224 96.6258 143.56 105.584 140.462 111.56C140.524 111.453 140.586 111.345 140.647 111.235C143.936 105.263 143.655 96.0636 140.022 90.7295C136.39 85.3947 130.759 85.9137 127.471 91.8862C127.41 91.9965 127.351 92.1088 127.292 92.2214C130.603 86.5577 136.093 86.1543 139.658 91.3897Z" fill="#FF7678"/>
<path d="M139.497 109.457C139.55 109.36 139.602 109.262 139.653 109.164C136.884 113.886 132.299 114.22 129.321 109.847C126.342 105.473 126.06 97.9938 128.643 92.9973C128.588 93.0907 128.534 93.1852 128.481 93.2822C125.731 98.2753 125.965 105.966 129.003 110.425C132.04 114.884 136.747 114.45 139.497 109.457Z" fill="#CC282A"/>
<path d="M135.517 101.293C135.296 101.333 135.046 101.483 134.766 101.74L136.245 103.907C136.398 103.477 136.464 103.062 136.444 102.663C136.424 102.262 136.315 101.916 136.116 101.624C135.936 101.362 135.737 101.251 135.517 101.293ZM131.511 100.43C131.535 100.798 131.646 101.129 131.846 101.42C132.004 101.652 132.182 101.747 132.381 101.704C132.579 101.661 132.809 101.512 133.069 101.257L131.698 99.2475C131.55 99.6676 131.488 100.062 131.511 100.43ZM130.329 100.848C130.306 99.9571 130.478 99.0605 130.845 98.1569L129.995 96.9107L130.701 95.6245L131.536 96.8476C131.87 96.3221 132.224 95.8952 132.597 95.5697C132.97 95.243 133.347 95.0339 133.729 94.942L134.145 96.5522C133.396 96.7746 132.771 97.2843 132.269 98.0812L133.862 100.416C134.258 99.9798 134.615 99.6447 134.931 99.4112C135.248 99.1778 135.582 99.0825 135.932 99.1249C136.282 99.1676 136.622 99.4319 136.954 99.918C137.23 100.322 137.419 100.804 137.522 101.364C137.624 101.924 137.639 102.518 137.566 103.146C137.492 103.775 137.331 104.384 137.081 104.974L137.931 106.22L137.224 107.506L136.382 106.272C136.078 106.707 135.755 107.06 135.413 107.332C135.07 107.603 134.736 107.767 134.411 107.822L133.996 106.212C134.639 106.047 135.188 105.652 135.641 105.028L133.978 102.592C133.582 103.028 133.233 103.358 132.93 103.582C132.627 103.806 132.307 103.898 131.97 103.859C131.632 103.819 131.302 103.564 130.981 103.092C130.569 102.486 130.352 101.738 130.329 100.848Z" fill="white"/>
<defs>
<filter id="filter0_f_623_90968" x="0.476074" y="0" width="172.108" height="172.264" filterUnits="userSpaceOnUse" color-interpolation-filters="sRGB">
<feFlood flood-opacity="0" result="BackgroundImageFix"/>
<feBlend mode="normal" in="SourceGraphic" in2="BackgroundImageFix" result="shape"/>
<feGaussianBlur stdDeviation="28.5" result="effect1_foregroundBlur_623_90968"/>
</filter>
</defs>
</svg>
