<svg width="18" height="22" viewBox="0 0 18 22" fill="none" xmlns="http://www.w3.org/2000/svg">
<path d="M4.5 2.375C4.5 1.33947 5.33947 0.5 6.375 0.5H6.75C8.82107 0.5 10.5 2.17893 10.5 4.25V6.125C10.5 7.16053 11.3395 8 12.375 8H14.25C16.3211 8 18 9.67893 18 11.75V15.125C18 16.1605 17.1605 17 16.125 17H6.375C5.33947 17 4.5 16.1605 4.5 15.125V2.375Z" fill="#848B8D"/>
<path d="M12 4.25C12 2.93695 11.518 1.73648 10.7212 0.815905C14.1201 1.70377 16.7962 4.37988 17.6841 7.77881C16.7635 6.98204 15.5631 6.5 14.25 6.5H12.375C12.1679 6.5 12 6.33211 12 6.125V4.25Z" fill="#848B8D"/>
<path d="M1.875 5H3V15.125C3 16.989 4.51104 18.5 6.375 18.5H13.5V19.625C13.5 20.6605 12.6605 21.5 11.625 21.5H1.875C0.839466 21.5 0 20.6605 0 19.625V6.875C0 5.83947 0.839466 5 1.875 5Z" fill="#848B8D"/>
</svg>
