<svg width="24" height="24" viewBox="0 0 24 24" fill="none" xmlns="http://www.w3.org/2000/svg">
<g clip-path="url(#clip0_67_9457)">
<path d="M12 24C18.6274 24 24 18.6274 24 12C24 5.37258 18.6274 0 12 0C5.37258 0 0 5.37258 0 12C0 18.6274 5.37258 24 12 24Z" fill="#F03033"/>
<path d="M12 22.1846C17.6246 22.1846 22.1843 17.6249 22.1843 12.0002C22.1843 6.37559 17.6246 1.81592 12 1.81592C6.37535 1.81592 1.81567 6.37559 1.81567 12.0002C1.81567 17.6249 6.37535 22.1846 12 22.1846Z" fill="#F93D40"/>
<path d="M17.3284 3.30762C18.3424 4.89086 18.9305 6.77344 18.9305 8.79322C18.9305 14.4179 14.3709 18.9775 8.74623 18.9775C6.79297 18.9775 4.96821 18.4272 3.41785 17.4737C5.22786 20.2992 8.39511 22.1724 12 22.1724C17.6247 22.1724 22.1843 17.6128 22.1843 11.9881C22.1843 8.31663 20.2417 5.09949 17.3284 3.30762Z" fill="#CC282A"/>
<path d="M3.59964 12.9321C3.59964 7.96689 7.62446 3.94207 12.5896 3.94207C15.4919 3.94207 18.0722 5.31744 19.7159 7.45174C18.1637 4.75656 15.2542 2.94238 11.9206 2.94238C6.95548 2.94238 2.93066 6.9672 2.93066 11.9324C2.93066 13.9952 3.6261 15.8956 4.79435 17.4127C4.03466 16.0936 3.59964 14.5633 3.59964 12.9321Z" fill="#FF7678"/>
<path d="M12.8405 5.42676V6.72427C13.3613 6.80818 13.7873 6.98014 14.118 7.24055C14.4491 7.50096 14.7643 7.90046 15.0648 8.43866L13.7741 9.16018C13.3855 8.45416 12.8779 8.10115 12.2517 8.10115C11.8631 8.10115 11.5411 8.21605 11.2852 8.44547C11.0294 8.67488 10.9012 8.96175 10.9012 9.30606C10.9012 9.61939 11.0048 9.8798 11.2123 10.0873C11.4153 10.2903 11.8257 10.531 12.4437 10.8088C12.9777 11.0515 13.4188 11.2801 13.7676 11.494C14.1161 11.708 14.3788 11.9143 14.5553 12.1131C15.0538 12.6517 15.3033 13.3025 15.3033 14.066C15.3033 14.8162 15.0784 15.4784 14.6282 16.0518C14.1823 16.621 13.5866 17.005 12.8409 17.2038V18.5738H11.6825V17.2435C10.8173 17.1021 10.1578 16.8043 9.70313 16.35C9.24845 15.8953 8.91321 15.1938 8.69702 14.2448L10.1533 13.9401C10.3517 14.611 10.5943 15.0899 10.8816 15.3767C11.1817 15.6504 11.5808 15.7872 12.0797 15.7872C12.565 15.7872 12.9709 15.6307 13.2978 15.317C13.6199 15.0082 13.7812 14.6087 13.7812 14.1189C13.7812 13.682 13.6467 13.3313 13.3776 13.0663C13.2408 12.9386 13.0389 12.7938 12.7717 12.6328C12.5045 12.4718 12.1636 12.2964 11.749 12.1067C10.8929 11.7227 10.3302 11.3697 10.0611 11.0477C9.63283 10.5665 9.41891 9.99092 9.41891 9.32005C9.41891 9.00219 9.46956 8.70663 9.57123 8.43299C9.6729 8.15936 9.81954 7.91104 10.0115 7.68843C10.2035 7.46581 10.4409 7.27268 10.7232 7.1094C11.0056 6.94613 11.3257 6.818 11.6828 6.7254V5.42789H12.8405V5.42676Z" fill="white"/>
</g>
<defs>
<clipPath id="clip0_67_9457">
<rect width="24" height="24" fill="white"/>
</clipPath>
</defs>
</svg>
