<svg width="16" height="16" viewBox="0 0 16 16" fill="none" xmlns="http://www.w3.org/2000/svg">
<g clip-path="url(#clip0_37_14092)">
<path d="M8 16C12.4183 16 16 12.4183 16 8C16 3.58172 12.4183 0 8 0C3.58172 0 0 3.58172 0 8C0 12.4183 3.58172 16 8 16Z" fill="#F03033"/>
<path d="M7.99999 14.7895C11.7498 14.7895 14.7895 11.7498 14.7895 7.99999C14.7895 4.25023 11.7498 1.21045 7.99999 1.21045C4.25023 1.21045 1.21045 4.25023 1.21045 7.99999C1.21045 11.7498 4.25023 14.7895 7.99999 14.7895Z" fill="#F93D40"/>
<path d="M11.5523 2.20508C12.2283 3.26057 12.6204 4.51563 12.6204 5.86215C12.6204 9.61194 9.58061 12.6517 5.83082 12.6517C4.52864 12.6517 3.31214 12.2848 2.27856 11.6491C3.48524 13.5328 5.59674 14.7816 8.00001 14.7816C11.7498 14.7816 14.7896 11.7418 14.7896 7.99204C14.7896 5.54442 13.4944 3.39966 11.5523 2.20508Z" fill="#CC282A"/>
<path d="M2.39984 8.62121C2.39984 5.3111 5.08305 2.62788 8.39317 2.62788C10.328 2.62788 12.0482 3.5448 13.144 4.96766C12.1092 3.17087 10.1695 1.96143 7.94718 1.96143C4.63707 1.96143 1.95386 4.64464 1.95386 7.95475C1.95386 9.32999 2.41748 10.5969 3.19631 11.6083C2.68986 10.7289 2.39984 9.7087 2.39984 8.62121Z" fill="#FF7678"/>
<path d="M8.56043 3.61768V4.48268C8.90764 4.53862 9.19161 4.65327 9.41208 4.82687C9.6328 5.00048 9.84295 5.26681 10.0433 5.62561L9.18279 6.10662C8.92377 5.63594 8.58537 5.4006 8.16786 5.4006C7.90884 5.4006 7.69416 5.4772 7.52358 5.63015C7.35299 5.78309 7.26758 5.97434 7.26758 6.20388C7.26758 6.41276 7.33662 6.58637 7.47495 6.7247C7.61025 6.86001 7.88389 7.02051 8.29586 7.20571C8.65189 7.36747 8.94594 7.51991 9.17851 7.66253C9.41082 7.80514 9.58594 7.94271 9.70361 8.07525C10.036 8.43431 10.2023 8.8682 10.2023 9.37717C10.2023 9.87733 10.0523 10.3188 9.75224 10.701C9.45492 11.0805 9.05781 11.3365 8.56068 11.469V12.3824H7.7884V11.4955C7.21164 11.4012 6.77195 11.2027 6.46884 10.8998C6.16572 10.5967 5.94222 10.129 5.7981 9.49635L6.76893 9.29327C6.90121 9.74051 7.06298 10.0598 7.25447 10.251C7.45454 10.4334 7.72062 10.5246 8.05321 10.5246C8.37674 10.5246 8.64736 10.4203 8.86531 10.2112C9.07999 10.0053 9.18758 9.739 9.18758 9.41245C9.18758 9.12117 9.09788 8.88734 8.91847 8.71071C8.82726 8.62555 8.69271 8.52905 8.51457 8.42171C8.33643 8.31437 8.10915 8.19746 7.83274 8.07097C7.26203 7.81497 6.88685 7.57963 6.70745 7.36495C6.42197 7.0442 6.27936 6.66045 6.27936 6.2132C6.27936 6.0013 6.31312 5.80426 6.3809 5.62183C6.44868 5.43941 6.54644 5.27386 6.67444 5.12546C6.80244 4.97705 6.96068 4.84829 7.1489 4.73944C7.33712 4.63059 7.55054 4.54517 7.78865 4.48344V3.61843H8.56043V3.61768Z" fill="white"/>
</g>
<defs>
<clipPath id="clip0_37_14092">
<rect width="16" height="16" fill="white"/>
</clipPath>
</defs>
</svg>
