<svg width="32" height="32" viewBox="0 0 32 32" fill="none" xmlns="http://www.w3.org/2000/svg">
<path d="M16.0001 8.0004L8.5868 13.3337L4.25346 10.4004C3.48013 9.88038 3.46681 8.7604 4.22681 8.21373L9.33346 4.53372C9.78679 4.21372 10.4001 4.2004 10.8535 4.50707L16.0001 8.0004Z" fill="#848B8D"/>
<path d="M27.7467 10.3997L23.4133 13.3331L16 7.99973L21.1466 4.51975C21.6133 4.21308 22.2133 4.21307 22.6667 4.5464L27.7733 8.22641C28.5333 8.75975 28.52 9.87971 27.7467 10.3997Z" fill="#848B8D"/>
<path d="M16.0001 18.6663L10.0801 22.6663L6.66672 20.213L4.21339 18.453C3.46673 17.9063 3.48005 16.7864 4.24005 16.2664L8.57338 13.333L16.0001 18.6663Z" fill="#848B8D"/>
<path d="M27.7468 16.2664C28.5202 16.7864 28.5335 17.9063 27.7735 18.453L25.3202 20.213L21.9068 22.6663L15.9868 18.6663L23.4001 13.333L27.7468 16.2664Z" fill="#848B8D"/>
<path d="M24.9065 23.1198C25.0798 22.9864 25.3332 23.1198 25.3332 23.3331V24.3065C25.3332 24.8265 25.0265 25.2931 24.5599 25.5198L16.5599 29.2131C16.1999 29.3731 15.7998 29.3731 15.4398 29.2131L7.43982 25.5198C6.97315 25.2931 6.6665 24.8265 6.6665 24.3065V23.3331C6.6665 23.1198 6.90651 22.9864 7.09318 23.1198L9.6665 24.9731C9.89317 25.1331 10.1998 25.1464 10.4265 24.9864L15.6265 21.4664C15.8532 21.3198 16.1465 21.3198 16.3732 21.4664L21.5732 24.9864C21.7998 25.1464 22.1065 25.1331 22.3332 24.9731L24.9065 23.1198Z" fill="#848B8D"/>
</svg>
