<svg width="32" height="32" viewBox="0 0 32 32" fill="none" xmlns="http://www.w3.org/2000/svg">
<g clip-path="url(#clip0_12_15)">
<path d="M24 0H8C3.58172 0 0 3.58172 0 8V24C0 28.4183 3.58172 32 8 32H24C28.4183 32 32 28.4183 32 24V8C32 3.58172 28.4183 0 24 0Z" fill="#2C3034"/>
<path d="M18.7933 9.33333H13.2067C10.78 9.33333 9.33334 10.78 9.33334 13.2067V18.7867C9.33334 21.22 10.78 22.6667 13.2067 22.6667H18.7867C21.2133 22.6667 22.66 21.22 22.66 18.7933V13.2067C22.6667 10.78 21.22 9.33333 18.7933 9.33333ZM15.3 19.6733C15.1067 19.8667 14.74 20.0533 14.4733 20.0933L12.8333 20.3267C12.7733 20.3333 12.7133 20.34 12.6533 20.34C12.38 20.34 12.1267 20.2467 11.9467 20.0667C11.7267 19.8467 11.6333 19.5267 11.6867 19.1733L11.92 17.5333C11.96 17.26 12.14 16.9 12.34 16.7067L15.3133 13.7333C15.3667 13.8733 15.42 14.0133 15.4933 14.1733C15.56 14.3133 15.6333 14.46 15.7133 14.5933C15.78 14.7067 15.8533 14.8133 15.9133 14.8933C15.9867 15.0067 16.0733 15.1133 16.1267 15.1733C16.16 15.22 16.1867 15.2533 16.2 15.2667C16.3667 15.4667 16.56 15.6533 16.7267 15.7933C16.7733 15.84 16.8 15.8667 16.8133 15.8733C16.9133 15.9533 17.0133 16.0333 17.1 16.0933C17.2067 16.1733 17.3133 16.2467 17.4267 16.3067C17.56 16.3867 17.7067 16.46 17.8533 16.5333C18.0067 16.6 18.1467 16.66 18.2867 16.7067L15.3 19.6733ZM19.58 15.3933L18.9667 16.0133C18.9267 16.0533 18.8733 16.0733 18.82 16.0733C18.8 16.0733 18.7733 16.0733 18.76 16.0667C17.4067 15.68 16.3267 14.6 15.94 13.2467C15.92 13.1733 15.94 13.0933 15.9933 13.0467L16.6133 12.4267C17.6267 11.4133 18.5933 11.4333 19.5867 12.4267C20.0933 12.9333 20.34 13.42 20.34 13.9267C20.3333 14.4067 20.0867 14.8867 19.58 15.3933Z" fill="#848B8D"/>
</g>
<defs>
<clipPath id="clip0_12_15">
<rect width="32" height="32" fill="white"/>
</clipPath>
</defs>
</svg>
