<svg width="47" height="44" viewBox="0 0 47 44" fill="none" xmlns="http://www.w3.org/2000/svg">
<g id="vuesax/bold/dropbox">
<g id="vuesax/bold/dropbox_2">
<g id="dropbox">
<path id="Vector" d="M23.3541 10.986L12.7247 18.3099L6.51142 14.2817C5.4026 13.5676 5.3835 12.0296 6.47321 11.2789L13.7952 6.22537C14.4452 5.78594 15.3247 5.76765 15.9747 6.18877L23.3541 10.986Z" fill="#888888"/>
<path id="Vector_2" d="M40.1966 14.2817L33.9834 18.3099L23.354 10.986L30.7334 6.20711C31.4025 5.78598 32.2628 5.78596 32.9128 6.24371L40.2349 11.2973C41.3246 12.0297 41.3055 13.5677 40.1966 14.2817Z" fill="#888888"/>
<path id="Vector_3" d="M23.354 25.6339L14.8657 31.1269L9.97163 27.7579L6.45399 25.3409C5.3834 24.5902 5.4025 23.0522 6.4922 22.3381L12.7054 18.3099L23.354 25.6339Z" fill="#888888"/>
<path id="Vector_4" d="M40.1966 22.3381C41.3054 23.0522 41.3245 24.5902 40.2348 25.3409L36.7172 27.7579L31.8231 31.1269L23.3348 25.6339L33.9642 18.3099L40.1966 22.3381Z" fill="#888888"/>
<path id="Vector_5" d="M36.1246 31.7494C36.3731 31.5663 36.7364 31.7494 36.7364 32.0424V33.379C36.7364 34.0931 36.2967 34.734 35.6276 35.0452L24.157 40.1171C23.6408 40.3368 23.0672 40.3368 22.5511 40.1171L11.0805 35.0452C10.4114 34.734 9.97168 34.0931 9.97168 33.379V32.0424C9.97168 31.7494 10.3158 31.5663 10.5835 31.7494L14.2731 34.2945C14.5981 34.5142 15.0379 34.5325 15.3629 34.3128L22.8187 29.479C23.1437 29.2776 23.5643 29.2776 23.8893 29.479L31.3452 34.3128C31.6702 34.5325 32.1099 34.5142 32.4349 34.2945L36.1246 31.7494Z" fill="#888888"/>
</g>
</g>
</g>
</svg>
