<svg width="24" height="27" viewBox="0 0 24 27" fill="none" xmlns="http://www.w3.org/2000/svg">
<path fill-rule="evenodd" clip-rule="evenodd" d="M13.2845 1.04772C13.1221 0.829988 12.8782 0.687667 12.6087 0.65347C12.3393 0.619274 12.0675 0.696144 11.8559 0.866409C9.36234 2.87283 7.6232 5.78368 7.13763 9.10183C6.2622 8.46721 5.49333 7.69402 4.86346 6.81441C4.69019 6.57243 4.41814 6.42021 4.12127 6.39913C3.8244 6.37804 3.53356 6.49028 3.32782 6.70534C1.26729 8.85922 0 11.7824 0 14.9995C0 21.627 5.37258 26.9995 12 26.9995C18.6274 26.9995 24 21.627 24 14.9995C24 10.1183 21.0857 5.91998 16.9064 4.04541C15.4274 3.32342 14.2062 2.28379 13.2845 1.04772ZM17 17.0001C17 19.7615 14.7614 22.0001 12 22.0001C9.23858 22.0001 7 19.7615 7 17.0001C7 16.4543 7.08745 15.9289 7.24909 15.4372C8.08706 16.0567 9.05026 16.5165 10.0937 16.7715C10.3816 14.9038 11.3154 13.2493 12.6599 12.0432C15.1094 12.3662 17 14.4623 17 17.0001Z" fill="#F03033"/>
</svg>
