<svg width="20" height="20" viewBox="0 0 20 20" fill="none" xmlns="http://www.w3.org/2000/svg">
<g clip-path="url(#clip0_623_90416)">
<path d="M10 20C15.5228 20 20 15.5228 20 10C20 4.47715 15.5228 0 10 0C4.47715 0 0 4.47715 0 10C0 15.5228 4.47715 20 10 20Z" fill="#F03033"/>
<path d="M10 18.4869C14.6872 18.4869 18.4869 14.6872 18.4869 9.99999C18.4869 5.31279 14.6872 1.51306 10 1.51306C5.3128 1.51306 1.51307 5.31279 1.51307 9.99999C1.51307 14.6872 5.3128 18.4869 10 18.4869Z" fill="#F93D40"/>
<path d="M14.4403 2.75653C15.2854 4.0759 15.7754 5.64472 15.7754 7.32787C15.7754 12.0151 11.9758 15.8148 7.28851 15.8148C5.66079 15.8148 4.14016 15.3562 2.84819 14.5616C4.35654 16.9162 6.99591 18.4772 10 18.4772C14.6872 18.4772 18.4869 14.6775 18.4869 9.99023C18.4869 6.9307 16.868 4.24976 14.4403 2.75653Z" fill="#CC282A"/>
<path d="M2.99969 10.7767C2.99969 6.63905 6.3537 3.28504 10.4913 3.28504C12.9099 3.28504 15.0602 4.43118 16.4299 6.20976C15.1364 3.96378 12.7118 2.45197 9.93386 2.45197C5.79622 2.45197 2.44221 5.80598 2.44221 9.94362C2.44221 11.6627 3.02173 13.2463 3.99528 14.5105C3.36221 13.4113 2.99969 12.1361 2.99969 10.7767Z" fill="#FF7678"/>
<path d="M10.7005 4.52222V5.60348C11.1345 5.6734 11.4894 5.8167 11.765 6.03371C12.0409 6.25072 12.3036 6.58363 12.554 7.03214L11.4784 7.6334C11.1546 7.04505 10.7317 6.75088 10.2098 6.75088C9.88598 6.75088 9.61764 6.84663 9.40441 7.03781C9.19118 7.22899 9.08441 7.46804 9.08441 7.75497C9.08441 8.01607 9.17071 8.23308 9.34362 8.406C9.51276 8.57513 9.8548 8.77576 10.3698 9.00726C10.8148 9.20946 11.1824 9.40001 11.4731 9.57828C11.7635 9.75655 11.9824 9.92851 12.1294 10.0942C12.5449 10.543 12.7528 11.0854 12.7528 11.7216C12.7528 12.3468 12.5654 12.8986 12.1902 13.3764C11.8186 13.8507 11.3222 14.1707 10.7008 14.3364V15.4781H9.73543V14.3695C9.01449 14.2517 8.46488 14.0035 8.08598 13.6249C7.70709 13.246 7.42772 12.6614 7.24756 11.8706L8.4611 11.6167C8.62646 12.1758 8.82866 12.5748 9.06803 12.8139C9.31811 13.0419 9.65071 13.1559 10.0665 13.1559C10.4709 13.1559 10.8091 13.0255 11.0816 12.7641C11.3499 12.5068 11.4844 12.1739 11.4844 11.7657C11.4844 11.4016 11.3723 11.1093 11.148 10.8885C11.034 10.7821 10.8658 10.6614 10.6431 10.5273C10.4205 10.3931 10.1364 10.2469 9.79087 10.0888C9.07748 9.76883 8.6085 9.47466 8.38425 9.20631C8.0274 8.80537 7.84913 8.32568 7.84913 7.76663C7.84913 7.50174 7.89134 7.25544 7.97606 7.02741C8.06079 6.79938 8.18299 6.59245 8.34299 6.40694C8.50299 6.22143 8.70079 6.06048 8.93606 5.92442C9.17134 5.78836 9.43811 5.68159 9.73575 5.60442V4.52316H10.7005V4.52222Z" fill="white"/>
</g>
<defs>
<clipPath id="clip0_623_90416">
<rect width="20" height="20" fill="white"/>
</clipPath>
</defs>
</svg>
