<svg width="112" height="22" viewBox="0 0 112 22" fill="none" xmlns="http://www.w3.org/2000/svg">
<path d="M0.488 0.199999H13.064V3.08H3.8V7.592H12.176V10.472H3.8V17H0.488V0.199999ZM13.9154 5.024H16.9394V6.56C17.2434 6.096 17.6754 5.72 18.2354 5.432C18.8114 5.128 19.4114 4.976 20.0354 4.976H21.6674V7.808H20.0354C19.1874 7.808 18.4994 8.064 17.9714 8.576C17.4434 9.088 17.1794 9.744 17.1794 10.544V17H13.9154V5.024ZM27.3839 17.192C26.3759 17.192 25.4799 17.008 24.6959 16.64C23.9279 16.256 23.3279 15.728 22.8959 15.056C22.4639 14.368 22.2479 13.584 22.2479 12.704V9.608C22.2479 8.664 22.4639 7.832 22.8959 7.112C23.3279 6.392 23.9279 5.832 24.6959 5.432C25.4799 5.032 26.3759 4.832 27.3839 4.832H29.3039C30.8399 4.832 32.0719 5.264 32.9999 6.128C33.9279 6.992 34.3919 8.144 34.3919 9.584V12.128H25.5119V12.704C25.5119 13.232 25.6799 13.656 26.0159 13.976C26.3519 14.296 26.8079 14.456 27.3839 14.456H29.2559C29.8159 14.456 30.2639 14.336 30.5999 14.096C30.9519 13.84 31.1279 13.512 31.1279 13.112H34.3439C34.3439 13.912 34.1279 14.624 33.6959 15.248C33.2639 15.872 32.6559 16.352 31.8719 16.688C31.1039 17.024 30.2159 17.192 29.2079 17.192H27.3839ZM31.1759 9.776V9.584C31.1759 8.96 31.0079 8.464 30.6719 8.096C30.3359 7.712 29.8879 7.52 29.3279 7.52H27.3839C26.8079 7.52 26.3439 7.72 25.9919 8.12C25.6399 8.52 25.4639 9.048 25.4639 9.704V9.776H31.1759ZM41.2589 17.192C40.2509 17.192 39.3549 17.008 38.5709 16.64C37.8029 16.256 37.2029 15.728 36.7709 15.056C36.3389 14.368 36.1229 13.584 36.1229 12.704V9.608C36.1229 8.664 36.3389 7.832 36.7709 7.112C37.2029 6.392 37.8029 5.832 38.5709 5.432C39.3549 5.032 40.2509 4.832 41.2589 4.832H43.1789C44.7149 4.832 45.9469 5.264 46.8749 6.128C47.8029 6.992 48.2669 8.144 48.2669 9.584V12.128H39.3869V12.704C39.3869 13.232 39.5549 13.656 39.8909 13.976C40.2269 14.296 40.6829 14.456 41.2589 14.456H43.1309C43.6909 14.456 44.1389 14.336 44.4749 14.096C44.8269 13.84 45.0029 13.512 45.0029 13.112H48.2189C48.2189 13.912 48.0029 14.624 47.5709 15.248C47.1389 15.872 46.5309 16.352 45.7469 16.688C44.9789 17.024 44.0909 17.192 43.0829 17.192H41.2589ZM45.0509 9.776V9.584C45.0509 8.96 44.8829 8.464 44.5469 8.096C44.2109 7.712 43.7629 7.52 43.2029 7.52H41.2589C40.6829 7.52 40.2189 7.72 39.8669 8.12C39.5149 8.52 39.3389 9.048 39.3389 9.704V9.776H45.0509ZM62.024 17.192C61.016 17.192 60.12 17 59.336 16.616C58.568 16.216 57.968 15.656 57.536 14.936C57.12 14.216 56.912 13.384 56.912 12.44V9.632C56.912 8.688 57.128 7.856 57.56 7.136C57.992 6.4 58.592 5.832 59.36 5.432C60.144 5.032 61.04 4.832 62.048 4.832H64.208C65.216 4.832 66.104 5.032 66.872 5.432C67.656 5.832 68.264 6.4 68.696 7.136C69.128 7.856 69.344 8.688 69.344 9.632V12.44C69.344 13.384 69.128 14.216 68.696 14.936C68.264 15.656 67.656 16.216 66.872 16.616C66.104 17 65.208 17.192 64.184 17.192H62.024ZM64.136 14.384C64.728 14.384 65.2 14.184 65.552 13.784C65.904 13.368 66.08 12.832 66.08 12.176V9.848C66.08 9.192 65.904 8.664 65.552 8.264C65.2 7.848 64.736 7.64 64.16 7.64H62.096C61.52 7.64 61.056 7.848 60.704 8.264C60.352 8.664 60.176 9.192 60.176 9.848V12.176C60.176 12.832 60.352 13.368 60.704 13.784C61.056 14.184 61.512 14.384 62.072 14.384H64.136ZM71.642 5.024H74.666V6.32C75.002 5.872 75.426 5.512 75.938 5.24C76.466 4.968 76.978 4.832 77.474 4.832H78.986C79.946 4.832 80.794 5.032 81.53 5.432C82.266 5.816 82.834 6.36 83.234 7.064C83.634 7.768 83.834 8.576 83.834 9.488V12.176C83.834 13.168 83.634 14.048 83.234 14.816C82.834 15.568 82.274 16.152 81.554 16.568C80.834 16.984 80.002 17.192 79.058 17.192H77.498C77.05 17.192 76.586 17.088 76.106 16.88C75.642 16.672 75.242 16.392 74.906 16.04V21.8H71.642V5.024ZM78.626 14.384C79.218 14.384 79.69 14.16 80.042 13.712C80.394 13.264 80.57 12.672 80.57 11.936V9.728C80.57 9.104 80.386 8.6 80.018 8.216C79.666 7.832 79.194 7.64 78.602 7.64H77.138C76.674 7.64 76.234 7.832 75.818 8.216C75.402 8.584 75.098 9.064 74.906 9.656V12.032C74.986 12.736 75.226 13.304 75.626 13.736C76.042 14.168 76.546 14.384 77.138 14.384H78.626ZM90.7824 17.192C89.7744 17.192 88.8784 17.008 88.0944 16.64C87.3264 16.256 86.7264 15.728 86.2944 15.056C85.8624 14.368 85.6464 13.584 85.6464 12.704V9.608C85.6464 8.664 85.8624 7.832 86.2944 7.112C86.7264 6.392 87.3264 5.832 88.0944 5.432C88.8784 5.032 89.7744 4.832 90.7824 4.832H92.7024C94.2384 4.832 95.4704 5.264 96.3984 6.128C97.3264 6.992 97.7904 8.144 97.7904 9.584V12.128H88.9104V12.704C88.9104 13.232 89.0784 13.656 89.4144 13.976C89.7504 14.296 90.2064 14.456 90.7824 14.456H92.6544C93.2144 14.456 93.6624 14.336 93.9984 14.096C94.3504 13.84 94.5264 13.512 94.5264 13.112H97.7424C97.7424 13.912 97.5264 14.624 97.0944 15.248C96.6624 15.872 96.0544 16.352 95.2704 16.688C94.5024 17.024 93.6144 17.192 92.6064 17.192H90.7824ZM94.5744 9.776V9.584C94.5744 8.96 94.4064 8.464 94.0704 8.096C93.7344 7.712 93.2864 7.52 92.7264 7.52H90.7824C90.2064 7.52 89.7424 7.72 89.3904 8.12C89.0384 8.52 88.8624 9.048 88.8624 9.704V9.776H94.5744ZM100.001 5.024H103.025V6.464C103.377 5.968 103.833 5.576 104.393 5.288C104.953 4.984 105.513 4.832 106.073 4.832H107.513C108.793 4.832 109.817 5.232 110.585 6.032C111.369 6.832 111.761 7.888 111.761 9.2V17H108.497V9.32C108.497 8.824 108.361 8.424 108.089 8.12C107.833 7.816 107.497 7.664 107.081 7.664H105.641C105.081 7.664 104.577 7.872 104.129 8.288C103.697 8.688 103.409 9.216 103.265 9.872V17H100.001V5.024Z" fill="#F03033"/>
</svg>
