<svg width="182" height="183" viewBox="0 0 182 183" fill="none" xmlns="http://www.w3.org/2000/svg">
<g filter="url(#filter0_f_222_2643)">
<circle cx="91" cy="92" r="34" fill="#F03033" fill-opacity="0.55"/>
</g>
<path d="M91.5 71.2497L76.4417 82.083L67.6396 76.1247C66.0687 75.0684 66.0417 72.7935 67.5854 71.683L77.9583 64.208C78.8791 63.558 80.125 63.531 81.0459 64.1539L91.5 71.2497Z" fill="#F03033"/>
<path d="M115.36 76.125L106.558 82.0834L91.5 71.2501L101.954 64.1813C102.902 63.5584 104.121 63.5584 105.042 64.2355L115.415 71.7105C116.958 72.7938 116.931 75.0688 115.36 76.125Z" fill="#F03033"/>
<path d="M91.4999 92.9163L79.4749 101.041L72.5416 96.058L67.5583 92.483C66.0416 91.3726 66.0687 89.0976 67.6124 88.0414L76.4145 82.083L91.4999 92.9163Z" fill="#F03033"/>
<path d="M115.36 88.0414C116.931 89.0976 116.958 91.3726 115.414 92.483L110.431 96.058L103.498 101.041L91.4727 92.9163L106.531 82.083L115.36 88.0414Z" fill="#F03033"/>
<path d="M109.592 101.963C109.944 101.692 110.459 101.963 110.459 102.396V104.373C110.459 105.429 109.836 106.377 108.888 106.838L92.6379 114.34C91.9066 114.665 91.094 114.665 90.3628 114.34L74.1128 106.838C73.1649 106.377 72.542 105.429 72.542 104.373V102.396C72.542 101.963 73.0295 101.692 73.4087 101.963L78.6357 105.727C79.0962 106.052 79.7191 106.079 80.1795 105.754L90.742 98.6043C91.2024 98.3064 91.7982 98.3064 92.2587 98.6043L102.821 105.754C103.282 106.079 103.904 106.052 104.365 105.727L109.592 101.963Z" fill="#F03033"/>
<path d="M96.3517 51.1768C94.5241 48.3746 90.9135 47.4916 88.287 49.2044C85.6605 50.9172 85.0129 54.5772 86.8404 57.3794C88.6679 60.1815 92.2786 61.0646 94.905 59.3518C97.5315 57.639 98.1792 53.9789 96.3517 51.1768Z" fill="#CC282A"/>
<path d="M95.1017 52.0141C93.574 49.6712 90.5553 48.9327 88.3592 50.3645C86.1631 51.7963 85.6213 54.8563 87.1489 57.1992C88.6766 59.5421 91.6953 60.2807 93.8914 58.8489C96.0875 57.417 96.6293 54.357 95.1017 52.0141Z" fill="#F93D40"/>
<path d="M92.6468 60.426C89.5644 61.098 86.3738 59.0339 85.5349 55.8241C84.696 52.6148 86.5213 49.4569 89.604 48.7847C92.6866 48.1125 95.8769 50.1768 96.7159 53.3861C97.5548 56.5959 95.7295 59.7537 92.6468 60.426ZM89.8534 49.739C87.2762 50.3012 85.7501 52.9412 86.4513 55.6244C87.1527 58.3078 89.8201 60.0334 92.3973 59.4717C94.9748 58.9098 96.5007 56.2695 95.7993 53.5861C95.098 50.9029 92.4309 49.1771 89.8534 49.739Z" fill="#F03033"/>
<path d="M85.8754 55.7498C85.0522 52.5998 86.7957 49.4997 89.7749 48.7506C89.7179 48.7611 89.6606 48.7723 89.6039 48.7848C86.5212 49.457 84.6959 52.6149 85.5348 55.8242C86.3738 59.0335 89.5641 61.0979 92.6468 60.4256C92.7039 60.4132 92.7603 60.3995 92.8165 60.3857C89.7878 60.9464 86.6991 58.8999 85.8754 55.7498Z" fill="#FF7678"/>
<path d="M89.8531 49.7395C89.803 49.7504 89.7538 49.7625 89.7046 49.7748C92.2347 49.3101 94.8129 51.0206 95.5008 53.6517C96.1884 56.283 94.7342 58.8725 92.2473 59.502C92.2975 59.4928 92.3473 59.4831 92.3973 59.472C94.9747 58.9101 96.5006 56.2698 95.7992 53.5864C95.0977 50.9033 92.4306 49.1776 89.8531 49.7395Z" fill="#CC282A"/>
<path d="M93.6426 55.6688C93.5746 56.0149 93.3799 56.3258 93.0587 56.601L93.493 57.2439L92.9168 57.6005L92.4903 56.9693C92.2249 57.1063 91.9565 57.2013 91.6852 57.2541C91.4139 57.3073 91.1504 57.3143 90.8944 57.2755L90.7751 56.5774C91.2802 56.6371 91.7319 56.5625 92.1305 56.3541L91.3166 55.1495C91.0199 55.2401 90.7583 55.2995 90.5314 55.3276C90.3047 55.356 90.0799 55.3277 89.8577 55.2437C89.6354 55.1595 89.4394 54.992 89.2698 54.7411C89.1288 54.5327 89.0511 54.311 89.0369 54.0761C89.0226 53.8413 89.0681 53.6107 89.1739 53.3834C89.2797 53.1566 89.4408 52.9541 89.6571 52.7762L89.2228 52.1333L89.799 51.7767L90.2294 52.4138C90.4662 52.3057 90.7077 52.2326 90.9547 52.1946C91.2015 52.1567 91.4327 52.1588 91.6478 52.2006L91.7671 52.8988C91.3358 52.8374 90.9442 52.8828 90.5929 53.0345L91.4419 54.2912C91.7386 54.2006 91.9953 54.1417 92.2118 54.1144C92.4284 54.0872 92.644 54.1139 92.8586 54.1945C93.0733 54.275 93.2627 54.437 93.4272 54.6801C93.6389 54.9935 93.7107 55.3228 93.6426 55.6688ZM90.3285 54.4931C90.475 54.5201 90.6507 54.5114 90.8553 54.4668L90.1002 53.3491C89.9617 53.4843 89.8803 53.6306 89.8559 53.788C89.8314 53.9458 89.8701 54.0997 89.9719 54.25C90.0632 54.3851 90.182 54.4661 90.3285 54.4931ZM92.839 55.6C92.8577 55.4542 92.8164 55.3059 92.7148 55.1554C92.634 55.0359 92.5272 54.9651 92.3948 54.9428C92.2626 54.9208 92.1001 54.9337 91.9081 54.9812L92.6085 56.018C92.7432 55.885 92.8198 55.7457 92.839 55.6Z" fill="#CC282A"/>
<path d="M90.1299 54.4247C90.2764 54.4517 90.4519 54.4431 90.6567 54.3983L89.9015 53.2807C89.763 53.4158 89.6817 53.5622 89.6572 53.7196C89.6327 53.8773 89.6715 54.0313 89.7732 54.1815C89.8649 54.3167 89.9836 54.3975 90.1299 54.4247ZM92.6407 55.5317C92.6595 55.3858 92.6181 55.2375 92.5166 55.0871C92.4358 54.9676 92.329 54.8968 92.1966 54.8745C92.0643 54.8524 91.9019 54.8654 91.7098 54.9129L92.4103 55.9496C92.5447 55.8168 92.6215 55.6774 92.6407 55.5317ZM93.4443 55.6004C93.3764 55.9466 93.1817 56.2574 92.8605 56.5326L93.2947 57.1756L92.7185 57.5321L92.2921 56.9009C92.0267 57.0379 91.7583 57.1329 91.487 57.1857C91.2157 57.2389 90.9522 57.246 90.6961 57.2072L90.5769 56.509C91.082 56.5687 91.5337 56.4941 91.9323 56.2858L91.1183 55.0812C90.8216 55.1718 90.56 55.2312 90.3332 55.2593C90.1065 55.2876 89.8817 55.2593 89.6595 55.1753C89.4371 55.0911 89.2412 54.9236 89.0715 54.6727C88.9306 54.4643 88.8529 54.2426 88.8386 54.0078C88.8243 53.773 88.8698 53.5423 88.9757 53.3151C89.0815 53.0882 89.2426 52.8858 89.4588 52.7079L89.0245 52.0649L89.6008 51.7083L90.0311 52.3454C90.268 52.2373 90.5097 52.1641 90.7565 52.1262C91.0032 52.0883 91.2345 52.0905 91.4496 52.1323L91.5688 52.8305C91.1376 52.7691 90.7459 52.8145 90.3947 52.9662L91.2437 54.2228C91.5404 54.1322 91.797 54.0733 92.0136 54.0461C92.2302 54.0189 92.4458 54.0456 92.6606 54.126C92.8753 54.2065 93.0647 54.3684 93.2292 54.6116C93.4407 54.9251 93.5122 55.2547 93.4443 55.6004Z" fill="white"/>
<path d="M76.5854 82.46L91.5122 93L106.439 82.46L145 0H43L76.5854 82.46Z" fill="url(#paint0_linear_222_2643)"/>
<g filter="url(#filter1_d_222_2643)">
<path d="M47.5505 49.5243L52.8681 46.1683L53.6366 47.3861L49.7195 49.8582L50.9236 51.766L54.4652 49.5309L55.2338 50.7486L51.6921 52.9838L53.4341 55.7441L52.0337 56.6279L47.5505 49.5243ZM54.5154 47.9808L55.7941 47.1739L56.204 47.8233C56.2087 47.546 56.291 47.2718 56.4509 47.0005C56.6134 46.7183 56.8265 46.4939 57.0903 46.3274L57.7804 45.8919L58.5361 47.0893L57.8461 47.5249C57.4875 47.7511 57.2649 48.043 57.1783 48.4004C57.0917 48.7578 57.1551 49.1056 57.3686 49.4439L59.0914 52.1737L57.7113 53.0447L54.5154 47.9808ZM63.4574 49.5317C63.0312 49.8007 62.6033 49.962 62.1736 50.0156C61.7464 50.0582 61.3518 49.9951 60.9898 49.8262C60.6235 49.6506 60.323 49.3767 60.0881 49.0046L59.2619 47.6955C59.01 47.2964 58.8793 46.8869 58.8699 46.4672C58.8604 46.0475 58.9647 45.6506 59.1827 45.2765C59.4074 44.8982 59.7329 44.5745 60.1591 44.3055L60.971 43.7932C61.6204 43.3833 62.2566 43.2372 62.8796 43.3548C63.5025 43.4725 64.0062 43.8358 64.3904 44.4447L65.0693 45.5204L61.3145 47.8901L61.4683 48.1336C61.6092 48.3569 61.7933 48.4913 62.0208 48.537C62.2483 48.5826 62.4838 48.5286 62.7273 48.3749L63.5189 47.8753C63.7557 47.7259 63.9131 47.5556 63.9911 47.3644C64.0716 47.1623 64.0585 46.9766 63.9518 46.8075L65.3116 45.9493C65.5251 46.2875 65.6238 46.6462 65.6076 47.0254C65.5915 47.4045 65.4625 47.7697 65.2206 48.121C64.9856 48.468 64.6549 48.776 64.2287 49.045L63.4574 49.5317ZM63.0818 45.3841L63.0306 45.3029C62.8641 45.0391 62.6607 44.8742 62.4204 44.8082C62.1759 44.7355 61.9352 44.7739 61.6984 44.9233L60.8764 45.4421C60.6329 45.5958 60.49 45.8042 60.448 46.0673C60.4059 46.3303 60.4723 46.6005 60.6474 46.8779L60.6666 46.9084L63.0818 45.3841ZM69.3243 45.8291C68.898 46.0981 68.4701 46.2594 68.0404 46.313C67.6132 46.3556 67.2186 46.2925 66.8566 46.1236C66.4903 45.948 66.1898 45.6741 65.9549 45.302L65.1288 43.9929C64.8768 43.5938 64.7462 43.1843 64.7367 42.7646C64.7272 42.3449 64.8315 41.948 65.0495 41.5739C65.2742 41.1956 65.5997 40.8719 66.0259 40.6029L66.8378 40.0905C67.4872 39.6806 68.1235 39.5345 68.7464 39.6522C69.3694 39.7699 69.873 40.1332 70.2572 40.7421L70.9361 41.8178L67.1814 44.1874L67.3351 44.431C67.476 44.6543 67.6602 44.7887 67.8876 44.8343C68.1151 44.88 68.3506 44.826 68.5941 44.6722L69.3857 44.1727C69.6225 44.0233 69.7799 43.853 69.8579 43.6618C69.9384 43.4596 69.9253 43.274 69.8186 43.1049L71.1784 42.2466C71.3919 42.5849 71.4906 42.9436 71.4744 43.3227C71.4583 43.7019 71.3293 44.0671 71.0874 44.4184C70.8524 44.7654 70.5217 45.0734 70.0955 45.3424L69.3243 45.8291ZM68.9486 41.6815L68.8974 41.6003C68.7309 41.3364 68.5275 41.1715 68.2872 41.1056C68.0427 41.0329 67.802 41.0713 67.5652 41.2207L66.7432 41.7395C66.4997 41.8932 66.3569 42.1016 66.3148 42.3646C66.2727 42.6277 66.3392 42.8979 66.5142 43.1753L66.5334 43.2057L68.9486 41.6815Z" fill="#F03033"/>
</g>
<g filter="url(#filter2_d_222_2643)">
<path d="M118.033 18.6606L124.048 20.4924L123.629 21.8699L119.198 20.5206L118.541 22.6787L122.547 23.8987L122.127 25.2763L118.121 24.0563L117.17 27.1787L115.586 26.6963L118.033 18.6606ZM123.753 22.9238L125.199 23.3643L124.976 24.099C125.189 23.9213 125.45 23.8044 125.76 23.7482C126.08 23.6867 126.389 23.7014 126.687 23.7923L127.468 24.03L127.055 25.3846L126.275 25.1469C125.869 25.0233 125.503 25.0456 125.176 25.2136C124.849 25.3815 124.627 25.6569 124.51 26.0395L123.57 29.1275L122.009 28.6521L123.753 22.9238ZM128.423 30.7057C127.941 30.5589 127.539 30.3404 127.217 30.0502C126.906 29.7546 126.696 29.4147 126.587 29.0303C126.481 28.6383 126.492 28.2319 126.62 27.8109L127.071 26.3301C127.208 25.8786 127.433 25.5121 127.744 25.2306C128.056 24.9491 128.424 24.7687 128.85 24.6892C129.283 24.6121 129.741 24.6469 130.223 24.7938L131.141 25.0734C131.876 25.2972 132.403 25.6832 132.721 26.2317C133.039 26.7801 133.093 27.3987 132.883 28.0875L132.512 29.3043L128.265 28.0109L128.181 28.2864C128.104 28.5389 128.123 28.7662 128.237 28.9682C128.351 29.1702 128.546 29.3132 128.821 29.3971L129.717 29.6697C129.985 29.7513 130.216 29.7591 130.412 29.6933C130.618 29.6221 130.75 29.4909 130.808 29.2995L132.346 29.768C132.23 30.1506 132.023 30.4597 131.725 30.6953C131.428 30.9308 131.067 31.0718 130.643 31.1184C130.227 31.1672 129.777 31.1182 129.295 30.9714L128.423 30.7057ZM131.317 27.7109L131.345 27.619C131.436 27.3206 131.427 27.0589 131.32 26.8339C131.216 26.6013 131.029 26.4442 130.761 26.3626L129.832 26.0795C129.556 25.9956 129.305 26.0236 129.078 26.1637C128.852 26.3038 128.691 26.5307 128.595 26.8444L128.585 26.8789L131.317 27.7109ZM135.059 32.7267C134.577 32.5799 134.175 32.3614 133.854 32.0712C133.543 31.7756 133.333 31.4357 133.224 31.0513C133.117 30.6593 133.128 30.2529 133.256 29.832L133.707 28.3511C133.845 27.8996 134.069 27.5331 134.381 27.2516C134.692 26.9702 135.061 26.7897 135.487 26.7102C135.92 26.6331 136.378 26.6679 136.86 26.8148L137.778 27.0944C138.513 27.3182 139.039 27.7043 139.357 28.2527C139.675 28.8011 139.729 29.4197 139.52 30.1085L139.149 31.3253L134.902 30.0319L134.818 30.3074C134.741 30.5599 134.759 30.7872 134.873 30.9892C134.988 31.1912 135.182 31.3342 135.458 31.4181L136.353 31.6907C136.621 31.7723 136.853 31.7802 137.049 31.7143C137.254 31.6431 137.386 31.5119 137.444 31.3206L138.983 31.789C138.866 32.1716 138.659 32.4807 138.362 32.7163C138.064 32.9518 137.703 33.0929 137.279 33.1394C136.863 33.1882 136.414 33.1392 135.932 32.9924L135.059 32.7267ZM137.953 29.7319L137.981 29.6401C138.072 29.3416 138.064 29.0799 137.957 28.8549C137.852 28.6223 137.666 28.4652 137.398 28.3836L136.468 28.1005C136.193 28.0166 135.942 28.0447 135.715 28.1847C135.488 28.3248 135.327 28.5517 135.232 28.8655L135.221 28.8999L137.953 29.7319Z" fill="#F03033"/>
</g>
<g filter="url(#filter3_d_222_2643)">
<path d="M86.0491 42.3804L89.1431 42.9391L89.0152 43.6477L86.736 43.2361L86.5356 44.3462L88.5962 44.7183L88.4683 45.4268L86.4076 45.0547L86.1176 46.6607L85.3028 46.5136L86.0491 42.3804ZM89.1383 44.1638L89.8822 44.2981L89.814 44.676C89.9094 44.5753 90.0324 44.502 90.1829 44.4561C90.3382 44.4069 90.4925 44.3961 90.646 44.4238L91.0475 44.4963L90.9217 45.1931L90.5202 45.1206C90.3116 45.0829 90.131 45.1153 89.9783 45.2178C89.8257 45.3203 89.7316 45.47 89.696 45.6668L89.4092 47.2551L88.6062 47.1101L89.1383 44.1638ZM91.9112 47.7557C91.6632 47.7109 91.451 47.6258 91.2744 47.5005C91.1025 47.3719 90.9784 47.2153 90.902 47.0308C90.8262 46.8424 90.8079 46.6399 90.847 46.4234L90.9846 45.6617C91.0265 45.4295 91.1166 45.2344 91.2549 45.0764C91.3932 44.9185 91.5656 44.8074 91.7724 44.7431C91.983 44.6795 92.2123 44.6701 92.4603 44.7149L92.9327 44.8002C93.3106 44.8684 93.5945 45.0294 93.7844 45.2832C93.9743 45.537 94.0373 45.841 93.9733 46.1953L93.8603 46.8212L91.6756 46.4267L91.65 46.5684C91.6266 46.6983 91.6491 46.8101 91.7175 46.9037C91.786 46.9974 91.8911 47.057 92.0328 47.0826L92.4933 47.1658C92.6311 47.1906 92.7466 47.181 92.84 47.1369C92.9379 47.0896 92.9958 47.0167 93.0136 46.9183L93.8048 47.0611C93.7692 47.258 93.6845 47.4235 93.5505 47.5579C93.4165 47.6922 93.2455 47.7833 93.0377 47.8311C92.8339 47.8796 92.6079 47.8815 92.36 47.8367L91.9112 47.7557ZM93.1736 46.0997L93.1821 46.0524C93.2098 45.8989 93.1905 45.7694 93.1242 45.664C93.0586 45.5546 92.9569 45.4874 92.8192 45.4626L92.3409 45.3762C92.1992 45.3506 92.0762 45.3792 91.9718 45.462C91.8674 45.5447 91.8007 45.6668 91.7715 45.8282L91.7683 45.8459L93.1736 46.0997ZM95.3247 48.3721C95.0768 48.3273 94.8645 48.2423 94.688 48.1169C94.5161 47.9883 94.3919 47.8318 94.3155 47.6472C94.2398 47.4588 94.2215 47.2563 94.2606 47.0398L94.3981 46.2781C94.4401 46.0459 94.5302 45.8508 94.6684 45.6928C94.8067 45.5349 94.9792 45.4238 95.1859 45.3595C95.3966 45.2959 95.6259 45.2865 95.8739 45.3313L96.3462 45.4166C96.7241 45.4848 97.008 45.6459 97.1979 45.8996C97.3879 46.1534 97.4508 46.4575 97.3869 46.8117L97.2738 47.4376L95.0892 47.0431L95.0636 47.1848C95.0401 47.3147 95.0626 47.4265 95.1311 47.5201C95.1995 47.6138 95.3046 47.6734 95.4463 47.699L95.9069 47.7822C96.0446 47.8071 96.1602 47.7974 96.2535 47.7533C96.3515 47.706 96.4093 47.6331 96.4271 47.5347L97.2183 47.6776C97.1828 47.8744 97.098 48.0399 96.964 48.1743C96.83 48.3086 96.6591 48.3997 96.4513 48.4475C96.2474 48.4961 96.0215 48.4979 95.7735 48.4532L95.3247 48.3721ZM96.5871 46.7161L96.5957 46.6689C96.6234 46.5153 96.6041 46.3858 96.5378 46.2804C96.4722 46.171 96.3705 46.1038 96.2327 46.079L95.7544 45.9926C95.6127 45.967 95.4897 45.9956 95.3853 46.0784C95.281 46.1611 95.2142 46.2832 95.1851 46.4446L95.1819 46.4623L96.5871 46.7161Z" fill="#F03033"/>
</g>
<g filter="url(#filter4_d_222_2643)">
<path d="M108.468 44.8375L111.562 45.3962L111.434 46.1047L109.155 45.6931L108.955 46.8032L111.015 47.1753L110.887 47.8838L108.827 47.5117L108.537 49.1177L107.722 48.9706L108.468 44.8375ZM111.557 46.6208L112.301 46.7551L112.233 47.133C112.328 47.0324 112.451 46.9591 112.602 46.9131C112.757 46.8639 112.911 46.8532 113.065 46.8809L113.466 46.9534L113.341 47.6501L112.939 47.5776C112.731 47.5399 112.55 47.5723 112.397 47.6749C112.245 47.7774 112.151 47.927 112.115 48.1238L111.828 49.7121L111.025 49.5671L111.557 46.6208ZM114.33 50.2127C114.082 50.168 113.87 50.0829 113.693 49.9575C113.521 49.8289 113.397 49.6724 113.321 49.4878C113.245 49.2994 113.227 49.0969 113.266 48.8804L113.404 48.1187C113.445 47.8865 113.536 47.6914 113.674 47.5335C113.812 47.3755 113.985 47.2644 114.191 47.2001C114.402 47.1365 114.631 47.1271 114.879 47.1719L115.352 47.2572C115.73 47.3255 116.013 47.4865 116.203 47.7403C116.393 47.994 116.456 48.2981 116.392 48.6523L116.279 49.2782L114.095 48.8837L114.069 49.0254C114.046 49.1553 114.068 49.2671 114.136 49.3608C114.205 49.4544 114.31 49.514 114.452 49.5396L114.912 49.6228C115.05 49.6477 115.166 49.638 115.259 49.5939C115.357 49.5466 115.415 49.4737 115.433 49.3753L116.224 49.5182C116.188 49.715 116.103 49.8806 115.969 50.0149C115.835 50.1492 115.664 50.2403 115.457 50.2881C115.253 50.3367 115.027 50.3385 114.779 50.2938L114.33 50.2127ZM115.593 48.5567L115.601 48.5095C115.629 48.356 115.609 48.2265 115.543 48.121C115.478 48.0116 115.376 47.9445 115.238 47.9196L114.76 47.8332C114.618 47.8076 114.495 47.8362 114.391 47.919C114.286 48.0018 114.22 48.1238 114.19 48.2852L114.187 48.3029L115.593 48.5567ZM117.744 50.8292C117.496 50.7844 117.283 50.6993 117.107 50.5739C116.935 50.4453 116.811 50.2888 116.734 50.1043C116.659 49.9158 116.64 49.7133 116.68 49.4968L116.817 48.7352C116.859 48.5029 116.949 48.3078 117.087 48.1499C117.226 47.9919 117.398 47.8808 117.605 47.8165C117.815 47.7529 118.045 47.7435 118.293 47.7883L118.765 47.8736C119.143 47.9419 119.427 48.1029 119.617 48.3567C119.807 48.6105 119.87 48.9145 119.806 49.2688L119.693 49.8946L117.508 49.5001L117.483 49.6418C117.459 49.7717 117.482 49.8835 117.55 49.9772C117.618 50.0708 117.724 50.1304 117.865 50.156L118.326 50.2392C118.464 50.2641 118.579 50.2545 118.672 50.2103C118.77 50.163 118.828 50.0901 118.846 49.9917L119.637 50.1346C119.602 50.3314 119.517 50.497 119.383 50.6313C119.249 50.7656 119.078 50.8567 118.87 50.9045C118.666 50.9531 118.44 50.955 118.192 50.9102L117.744 50.8292ZM119.006 49.1731L119.015 49.1259C119.042 48.9724 119.023 48.8429 118.957 48.7374C118.891 48.628 118.789 48.5609 118.652 48.536L118.173 48.4496C118.032 48.424 117.909 48.4526 117.804 48.5354C117.7 48.6182 117.633 48.7403 117.604 48.9016L117.601 48.9194L119.006 49.1731Z" fill="#F03033"/>
</g>
<g filter="url(#filter5_d_222_2643)">
<path d="M92.4681 24.8375L95.562 25.3962L95.4341 26.1047L93.155 25.6931L92.9545 26.8032L95.0152 27.1753L94.8872 27.8838L92.8266 27.5117L92.5365 29.1177L91.7217 28.9706L92.4681 24.8375ZM95.5572 26.6208L96.3012 26.7551L96.2329 27.133C96.3283 27.0324 96.4513 26.9591 96.6019 26.9131C96.7571 26.8639 96.9115 26.8532 97.065 26.8809L97.4665 26.9534L97.3407 27.6501L96.9392 27.5776C96.7305 27.5399 96.5499 27.5723 96.3973 27.6749C96.2446 27.7774 96.1505 27.927 96.115 28.1238L95.8282 29.7121L95.0252 29.5671L95.5572 26.6208ZM98.3302 30.2127C98.0822 30.168 97.8699 30.0829 97.6934 29.9575C97.5215 29.8289 97.3973 29.6724 97.3209 29.4878C97.2452 29.2994 97.2269 29.0969 97.266 28.8804L97.4035 28.1187C97.4455 27.8865 97.5356 27.6914 97.6738 27.5335C97.8121 27.3755 97.9846 27.2644 98.1913 27.2001C98.402 27.1365 98.6313 27.1271 98.8793 27.1719L99.3516 27.2572C99.7295 27.3255 100.013 27.4865 100.203 27.7403C100.393 27.994 100.456 28.2981 100.392 28.6523L100.279 29.2782L98.0946 28.8837L98.069 29.0254C98.0455 29.1553 98.068 29.2671 98.1365 29.3608C98.2049 29.4544 98.31 29.514 98.4517 29.5396L98.9123 29.6228C99.05 29.6477 99.1656 29.638 99.2589 29.5939C99.3569 29.5466 99.4147 29.4737 99.4325 29.3753L100.224 29.5182C100.188 29.715 100.103 29.8806 99.9694 30.0149C99.8354 30.1492 99.6645 30.2403 99.4567 30.2881C99.2528 30.3367 99.0269 30.3385 98.7789 30.2938L98.3302 30.2127ZM99.5925 28.5567L99.6011 28.5095C99.6288 28.356 99.6095 28.2265 99.5432 28.121C99.4776 28.0116 99.3759 27.9445 99.2381 27.9196L98.7598 27.8332C98.6181 27.8076 98.4951 27.8362 98.3907 27.919C98.2864 28.0018 98.2196 28.1238 98.1905 28.2852L98.1873 28.3029L99.5925 28.5567ZM101.744 30.8292C101.496 30.7844 101.283 30.6993 101.107 30.5739C100.935 30.4453 100.811 30.2888 100.734 30.1043C100.659 29.9158 100.64 29.7133 100.68 29.4968L100.817 28.7352C100.859 28.5029 100.949 28.3078 101.087 28.1499C101.226 27.9919 101.398 27.8808 101.605 27.8165C101.815 27.7529 102.045 27.7435 102.293 27.7883L102.765 27.8736C103.143 27.9419 103.427 28.1029 103.617 28.3567C103.807 28.6105 103.87 28.9145 103.806 29.2688L103.693 29.8946L101.508 29.5001L101.483 29.6418C101.459 29.7717 101.482 29.8835 101.55 29.9772C101.618 30.0708 101.724 30.1304 101.865 30.156L102.326 30.2392C102.464 30.2641 102.579 30.2545 102.672 30.2103C102.77 30.163 102.828 30.0901 102.846 29.9917L103.637 30.1346C103.602 30.3314 103.517 30.497 103.383 30.6313C103.249 30.7656 103.078 30.8567 102.87 30.9045C102.666 30.9531 102.44 30.955 102.192 30.9102L101.744 30.8292ZM103.006 29.1731L103.015 29.1259C103.042 28.9724 103.023 28.8429 102.957 28.7374C102.891 28.628 102.789 28.5609 102.652 28.536L102.173 28.4496C102.032 28.424 101.909 28.4526 101.804 28.5354C101.7 28.6182 101.633 28.7403 101.604 28.9016L101.601 28.9194L103.006 29.1731Z" fill="#F03033"/>
</g>
<path d="M78.353 32.4105C79.7154 29.3551 78.4983 25.8429 75.6345 24.5659C72.7708 23.2888 69.3448 24.7305 67.9824 27.786C66.62 30.8414 67.8372 34.3536 70.7009 35.6306C73.5647 36.9077 76.9907 35.466 78.353 32.4105Z" fill="#CC282A"/>
<path d="M76.9724 31.8145C78.1117 29.2601 77.0943 26.3236 74.7001 25.2556C72.3058 24.1877 69.4414 25.3927 68.3021 27.9471C67.1628 30.5015 68.1802 33.438 70.5744 34.506C72.9687 35.5739 75.8331 34.3689 76.9724 31.8145Z" fill="#F93D40"/>
<path d="M68.5739 34.3166C66.337 32.0919 66.34 28.2919 68.5811 25.8458C70.8219 23.3998 74.4649 23.2199 76.7021 25.4447C78.9392 27.6695 78.936 31.4694 76.6953 33.9154C74.4541 36.3615 70.8111 36.5414 68.5739 34.3166ZM76.0358 26.172C74.1653 24.312 71.1196 24.4624 69.2461 26.5072C67.3725 28.5523 67.3701 31.7292 69.2402 33.5893C71.1106 35.4496 74.1564 35.299 76.03 33.2539C77.9035 31.2091 77.9061 28.0323 76.0358 26.172Z" fill="#F03033"/>
<path d="M68.8283 26.0915C71.0277 23.6909 74.5779 23.4736 76.8235 25.5698C76.7837 25.5277 76.7433 25.4855 76.702 25.4447C74.4648 23.2198 70.8218 23.3998 68.581 25.8457C66.3403 28.2917 66.337 32.0916 68.5742 34.3164C68.6157 34.3577 68.6577 34.3976 68.6998 34.4373C66.5856 32.1973 66.629 28.4924 68.8283 26.0915Z" fill="#FF7678"/>
<path d="M76.0354 26.1723C75.9991 26.1362 75.9622 26.1013 75.9252 26.0668C77.6882 27.94 77.6501 31.0337 75.8131 33.0391C73.9759 35.0443 71.0116 35.2277 69.1336 33.4801C69.1685 33.5172 69.2037 33.5539 69.2401 33.5898C71.1105 35.45 74.1563 35.2994 76.0299 33.2543C77.9032 31.2094 77.9058 28.0326 76.0354 26.1723Z" fill="#CC282A"/>
<path d="M73.111 32.5725C72.7833 32.7032 72.4166 32.7084 72.0111 32.5878L71.7066 33.3015L71.0945 33.0109L71.3933 32.3102C71.1343 32.1616 70.9089 31.9876 70.7173 31.7884C70.5254 31.5894 70.3765 31.3719 70.2702 31.1357L70.792 30.6568C71.0159 31.1135 71.3236 31.4524 71.7149 31.6742L72.2852 30.3369C72.0481 30.1368 71.8563 29.9493 71.7096 29.774C71.5628 29.5989 71.4646 29.3947 71.4146 29.1625C71.3647 28.9301 71.3991 28.6746 71.5178 28.396C71.6164 28.1645 71.7605 27.9789 71.95 27.8395C72.1395 27.7002 72.358 27.6132 72.6063 27.5789C72.8542 27.5447 73.1117 27.5702 73.3785 27.6553L73.6829 26.9416L74.2951 27.2322L73.9934 27.9394C74.2127 28.0797 74.4052 28.2429 74.5711 28.4298C74.7368 28.6165 74.8605 28.8119 74.9421 29.0153L74.4203 29.4943C74.2379 29.0987 73.9872 28.7943 73.6692 28.5815L73.0743 29.9765C73.3113 30.1766 73.5001 30.3602 73.6404 30.5274C73.7808 30.6946 73.8753 30.8901 73.9241 31.1141C73.9729 31.3382 73.9396 31.5851 73.8246 31.8552C73.6762 32.2031 73.4385 32.4421 73.111 32.5725ZM72.3005 29.1508C72.3573 29.2885 72.46 29.4314 72.6085 29.579L73.1376 28.3383C72.949 28.2953 72.7819 28.3064 72.6364 28.3712C72.4906 28.4362 72.3823 28.5523 72.3113 28.7193C72.2473 28.8693 72.2437 29.0131 72.3005 29.1508ZM72.7327 31.8602C72.8654 31.7968 72.9676 31.6816 73.0389 31.5147C73.0954 31.382 73.0969 31.2539 73.0438 31.1306C72.9906 31.0075 72.8916 30.8781 72.7475 30.7425L72.2566 31.8934C72.4413 31.9344 72.5999 31.9231 72.7327 31.8602Z" fill="#CC282A"/>
<path d="M72.2496 28.9473C72.3064 29.085 72.4088 29.2278 72.5576 29.3755L73.0867 28.1348C72.898 28.0918 72.7309 28.1029 72.5855 28.1677C72.4397 28.2327 72.3314 28.3488 72.2603 28.5158C72.1965 28.6662 72.1931 28.8097 72.2496 28.9473ZM72.6819 31.6571C72.8146 31.5937 72.9168 31.4785 72.9881 31.3116C73.0446 31.1788 73.0461 31.0508 72.993 30.9274C72.9398 30.8044 72.8408 30.6749 72.6967 30.5394L72.2058 31.6903C72.3903 31.7311 72.5491 31.72 72.6819 31.6571ZM73.0602 32.3694C72.7325 32.5001 72.3658 32.5053 71.9603 32.3847L71.6559 33.0983L71.0437 32.8078L71.3426 32.107C71.0835 31.9585 70.8581 31.7845 70.6665 31.5853C70.4746 31.3862 70.3258 31.1687 70.2194 30.9326L70.7412 30.4536C70.9651 30.9103 71.2728 31.2493 71.6641 31.4711L72.2344 30.1338C71.9973 29.9337 71.8055 29.7462 71.6588 29.5709C71.512 29.3958 71.4138 29.1916 71.3638 28.9594C71.3139 28.7269 71.3483 28.4715 71.467 28.1928C71.5656 27.9614 71.7097 27.7758 71.8992 27.6364C72.0887 27.497 72.3072 27.4101 72.5555 27.3757C72.8035 27.3415 73.0609 27.367 73.3277 27.4522L73.6322 26.7385L74.2443 27.0291L73.9427 27.7363C74.1619 27.8766 74.3547 28.0399 74.5203 28.2266C74.686 28.4134 74.8097 28.6088 74.8913 28.8122L74.3695 29.2911C74.1871 28.8955 73.9365 28.5912 73.6184 28.3784L73.0235 29.7734C73.2606 29.9735 73.4493 30.1571 73.5896 30.3243C73.73 30.4914 73.8245 30.687 73.8736 30.9111C73.9223 31.1351 73.8891 31.3821 73.7741 31.6522C73.6254 32 73.3875 32.2389 73.0602 32.3694Z" fill="white"/>
<path d="M76.5483 55.4707C77.9938 53.281 78.069 50.7792 76.7163 49.8828C75.3635 48.9864 73.0951 50.0349 71.6496 52.2246C70.204 54.4143 70.1289 56.9161 71.4816 57.8125C72.8344 58.7089 75.1028 57.6605 76.5483 55.4707Z" fill="#F03033"/>
<path d="M77.1923 50.3359C77.4121 50.7289 77.4032 51.3274 77.4046 51.9189C77.4095 54.0637 75.8056 56.6142 73.8289 57.6044C72.9587 58.0404 72.1595 58.1018 71.5365 57.8518C71.5341 57.8782 72.3466 58.6782 73.3722 58.5049C74.5166 58.3114 76.244 57.2432 77.2458 55.446C78.6278 52.9671 78.0431 51.759 77.963 51.48C77.8091 50.9443 77.2116 50.3336 77.1923 50.3359Z" fill="#CC282A"/>
<path d="M76.1471 55.2046C77.3556 53.3738 77.4186 51.2822 76.2876 50.5328C75.1567 49.7834 73.2601 50.66 72.0516 52.4908C70.843 54.3215 70.7801 56.4132 71.911 57.1626C73.042 57.912 74.9385 57.0354 76.1471 55.2046Z" fill="#F93D40"/>
<path d="M74.1093 57.7375C72.1325 58.7276 70.5204 57.7883 70.5154 55.6437C70.5105 53.4989 72.1144 50.9484 74.0912 49.9582C76.0679 48.9681 77.68 49.9074 77.685 52.052C77.6901 54.1967 76.0859 56.7472 74.1093 57.7375ZM74.0926 50.5957C72.44 51.4236 71.099 53.556 71.1031 55.3492C71.1072 57.1425 72.4552 57.9277 74.1077 57.0998C75.7603 56.2719 77.1015 54.1394 77.0972 52.3463C77.0931 50.5531 75.7454 49.7679 74.0926 50.5957Z" fill="#F03033"/>
<path d="M75.0613 54.7895C74.9049 55.0353 74.6949 55.2452 74.4312 55.4195L74.4323 55.9211L74.0076 56.1338L74.0064 55.6412C73.8204 55.7193 73.6474 55.7669 73.4878 55.7834C73.3279 55.8001 73.1883 55.7841 73.0688 55.7356L73.251 55.2191C73.4929 55.303 73.7541 55.2852 74.0345 55.1658L74.0324 54.2261C73.8463 54.2681 73.6893 54.2903 73.5615 54.2926C73.4337 54.2948 73.3266 54.2564 73.2404 54.1776C73.154 54.0987 73.1107 53.9614 73.1102 53.7657C73.1099 53.6032 73.1469 53.4361 73.2217 53.2644C73.2963 53.0929 73.4008 52.9291 73.5352 52.7728C73.6697 52.6164 73.8242 52.4825 73.9992 52.3707L73.9981 51.8693L74.4228 51.6566L74.424 52.1534C74.585 52.094 74.7363 52.0603 74.8782 52.0526C75.0198 52.045 75.1394 52.065 75.2369 52.1127L75.0547 52.6291C74.8516 52.55 74.632 52.5514 74.3961 52.6334L74.3985 53.6138C74.5846 53.5719 74.7388 53.5496 74.8611 53.5473C74.9833 53.5448 75.0863 53.5815 75.1699 53.6571C75.2534 53.733 75.2954 53.8657 75.2958 54.0554C75.2956 54.2989 75.2176 54.5439 75.0613 54.7895ZM73.7476 53.6701C73.8144 53.7016 73.9088 53.7092 74.0311 53.6932L74.029 52.8213C73.9096 52.9082 73.816 53.0079 73.7483 53.1201C73.6805 53.2326 73.6466 53.3474 73.6471 53.465C73.6475 53.5703 73.6809 53.6388 73.7476 53.6701ZM74.6671 54.6749C74.728 54.5706 74.7584 54.4597 74.758 54.3421C74.7577 54.2489 74.727 54.1888 74.6659 54.1621C74.6047 54.1356 74.5157 54.1319 74.399 54.1511L74.4009 54.9598C74.5175 54.8742 74.6061 54.7793 74.6671 54.6749Z" fill="#CC282A"/>
<path d="M70.7332 55.5343C70.7283 53.4292 72.2734 50.9334 74.1996 49.9055C74.1632 49.9226 74.1268 49.9399 74.0903 49.9582C72.1135 50.9483 70.5095 53.499 70.5145 55.6436C70.5194 57.7884 72.1317 58.7278 74.1084 57.7374C74.1449 57.7192 74.1814 57.7001 74.2177 57.6807C72.2913 58.5829 70.7381 57.6392 70.7332 55.5343Z" fill="#FF7678"/>
<path d="M74.0927 50.5962C74.0607 50.6124 74.0288 50.629 73.997 50.6459C75.6057 49.8951 76.902 50.6841 76.9061 52.4426C76.9101 54.2013 75.6205 56.2856 74.0122 57.1465C74.0441 57.1317 74.0759 57.1164 74.1079 57.1003C75.7605 56.2723 77.1017 54.1398 77.0974 52.3467C77.0932 50.5536 75.7454 49.7685 74.0927 50.5962Z" fill="#CC282A"/>
<path d="M73.6676 53.6064C73.7344 53.6378 73.8288 53.6455 73.9511 53.6294L73.9489 52.7575C73.8296 52.8444 73.736 52.9442 73.6683 53.0564C73.6005 53.1689 73.5666 53.2836 73.5671 53.4012C73.5674 53.5068 73.6007 53.5752 73.6676 53.6064ZM74.5871 54.6114C74.6479 54.5071 74.6783 54.3962 74.6779 54.2786C74.6777 54.1854 74.6469 54.1253 74.5858 54.0987C74.5246 54.0721 74.4356 54.0684 74.3191 54.0875L74.321 54.8962C74.4374 54.8107 74.526 54.7159 74.5871 54.6114ZM74.9812 54.726C74.8248 54.9718 74.6148 55.1817 74.3511 55.356L74.3523 55.8576L73.9276 56.0703L73.9264 55.5779C73.7405 55.656 73.5674 55.7036 73.4078 55.7201C73.2479 55.7368 73.1083 55.7208 72.9888 55.6723L73.171 55.1556C73.4129 55.2395 73.674 55.2217 73.9545 55.1023L73.9523 54.1627C73.7662 54.2046 73.6093 54.2268 73.4815 54.2291C73.3536 54.2314 73.2465 54.1929 73.1603 54.1141C73.074 54.0352 73.0306 53.8979 73.0302 53.7023C73.0298 53.5397 73.0668 53.3726 73.1416 53.2009C73.2162 53.0294 73.3207 52.8656 73.4552 52.7093C73.5896 52.553 73.7441 52.419 73.9191 52.3073L73.918 51.8058L74.3427 51.5931L74.3439 52.09C74.505 52.0305 74.6563 51.9969 74.7981 51.9891C74.9397 51.9815 75.0594 52.0015 75.1568 52.0492L74.9746 52.5657C74.7715 52.4865 74.5519 52.4879 74.3161 52.57L74.3185 53.5503C74.5046 53.5084 74.6587 53.4861 74.781 53.4838C74.9032 53.4813 75.0062 53.5181 75.0898 53.5936C75.1733 53.6695 75.2153 53.8022 75.2157 53.9919C75.2155 54.2355 75.1374 54.4803 74.9812 54.726Z" fill="white"/>
<path d="M116.548 37.4707C117.994 35.281 118.069 32.7792 116.716 31.8828C115.364 30.9864 113.095 32.0349 111.65 34.2246C110.204 36.4143 110.129 38.9161 111.482 39.8125C112.834 40.7089 115.103 39.6605 116.548 37.4707Z" fill="#F03033"/>
<path d="M117.192 32.3359C117.412 32.7289 117.403 33.3274 117.405 33.9189C117.41 36.0637 115.806 38.6142 113.829 39.6044C112.959 40.0404 112.159 40.1018 111.537 39.8518C111.534 39.8782 112.347 40.6782 113.372 40.5049C114.517 40.3114 116.244 39.2432 117.246 37.446C118.628 34.9671 118.043 33.759 117.963 33.48C117.809 32.9443 117.212 32.3336 117.192 32.3359Z" fill="#CC282A"/>
<path d="M116.147 37.2046C117.356 35.3738 117.419 33.2822 116.288 32.5328C115.157 31.7834 113.26 32.66 112.052 34.4908C110.843 36.3215 110.78 38.4132 111.911 39.1626C113.042 39.912 114.939 39.0354 116.147 37.2046Z" fill="#F93D40"/>
<path d="M114.109 39.7375C112.132 40.7276 110.52 39.7883 110.515 37.6437C110.511 35.4989 112.114 32.9484 114.091 31.9582C116.068 30.9681 117.68 31.9074 117.685 34.052C117.69 36.1967 116.086 38.7472 114.109 39.7375ZM114.093 32.5957C112.44 33.4236 111.099 35.556 111.103 37.3492C111.107 39.1425 112.455 39.9277 114.108 39.0998C115.76 38.2719 117.102 36.1394 117.097 34.3463C117.093 32.5531 115.745 31.7679 114.093 32.5957Z" fill="#F03033"/>
<path d="M115.061 36.7895C114.905 37.0353 114.695 37.2452 114.431 37.4195L114.432 37.9211L114.008 38.1338L114.006 37.6412C113.82 37.7193 113.647 37.7669 113.488 37.7834C113.328 37.8001 113.188 37.7841 113.069 37.7356L113.251 37.2191C113.493 37.303 113.754 37.2852 114.035 37.1658L114.032 36.2261C113.846 36.2681 113.689 36.2903 113.562 36.2926C113.434 36.2948 113.327 36.2564 113.24 36.1776C113.154 36.0987 113.111 35.9614 113.11 35.7657C113.11 35.6032 113.147 35.4361 113.222 35.2644C113.296 35.0929 113.401 34.9291 113.535 34.7728C113.67 34.6164 113.824 34.4825 113.999 34.3707L113.998 33.8693L114.423 33.6566L114.424 34.1534C114.585 34.094 114.736 34.0603 114.878 34.0526C115.02 34.045 115.139 34.065 115.237 34.1127L115.055 34.6291C114.852 34.55 114.632 34.5514 114.396 34.6334L114.399 35.6138C114.585 35.5719 114.739 35.5496 114.861 35.5473C114.983 35.5448 115.086 35.5815 115.17 35.6571C115.253 35.733 115.295 35.8657 115.296 36.0554C115.296 36.2989 115.218 36.5439 115.061 36.7895ZM113.748 35.6701C113.814 35.7016 113.909 35.7092 114.031 35.6932L114.029 34.8213C113.91 34.9082 113.816 35.0079 113.748 35.1201C113.68 35.2326 113.647 35.3474 113.647 35.465C113.647 35.5703 113.681 35.6388 113.748 35.6701ZM114.667 36.6749C114.728 36.5706 114.758 36.4597 114.758 36.3421C114.758 36.2489 114.727 36.1888 114.666 36.1621C114.605 36.1356 114.516 36.1319 114.399 36.1511L114.401 36.9598C114.518 36.8742 114.606 36.7793 114.667 36.6749Z" fill="#CC282A"/>
<path d="M110.733 37.5343C110.728 35.4292 112.273 32.9334 114.2 31.9055C114.163 31.9226 114.127 31.9399 114.09 31.9582C112.114 32.9483 110.509 35.499 110.514 37.6436C110.519 39.7884 112.132 40.7278 114.108 39.7374C114.145 39.7192 114.181 39.7001 114.218 39.6807C112.291 40.5829 110.738 39.6392 110.733 37.5343Z" fill="#FF7678"/>
<path d="M114.093 32.5962C114.061 32.6124 114.029 32.629 113.997 32.6459C115.606 31.8951 116.902 32.6841 116.906 34.4426C116.91 36.2013 115.62 38.2856 114.012 39.1465C114.044 39.1317 114.076 39.1164 114.108 39.1003C115.761 38.2723 117.102 36.1398 117.097 34.3467C117.093 32.5536 115.745 31.7685 114.093 32.5962Z" fill="#CC282A"/>
<path d="M113.668 35.6064C113.734 35.6378 113.829 35.6455 113.951 35.6294L113.949 34.7575C113.83 34.8444 113.736 34.9442 113.668 35.0564C113.6 35.1689 113.567 35.2836 113.567 35.4012C113.567 35.5068 113.601 35.5752 113.668 35.6064ZM114.587 36.6114C114.648 36.5071 114.678 36.3962 114.678 36.2786C114.678 36.1854 114.647 36.1253 114.586 36.0987C114.525 36.0721 114.436 36.0684 114.319 36.0875L114.321 36.8962C114.437 36.8107 114.526 36.7159 114.587 36.6114ZM114.981 36.726C114.825 36.9718 114.615 37.1817 114.351 37.356L114.352 37.8576L113.928 38.0703L113.926 37.5779C113.74 37.656 113.567 37.7036 113.408 37.7201C113.248 37.7368 113.108 37.7208 112.989 37.6723L113.171 37.1556C113.413 37.2395 113.674 37.2217 113.954 37.1023L113.952 36.1627C113.766 36.2046 113.609 36.2268 113.481 36.2291C113.354 36.2314 113.247 36.1929 113.16 36.1141C113.074 36.0352 113.031 35.8979 113.03 35.7023C113.03 35.5397 113.067 35.3726 113.142 35.2009C113.216 35.0294 113.321 34.8656 113.455 34.7093C113.59 34.553 113.744 34.419 113.919 34.3073L113.918 33.8058L114.343 33.5931L114.344 34.09C114.505 34.0305 114.656 33.9969 114.798 33.9891C114.94 33.9815 115.059 34.0015 115.157 34.0492L114.975 34.5657C114.771 34.4865 114.552 34.4879 114.316 34.57L114.318 35.5503C114.505 35.5084 114.659 35.4861 114.781 35.4838C114.903 35.4813 115.006 35.5181 115.09 35.5936C115.173 35.6695 115.215 35.8022 115.216 35.9919C115.216 36.2355 115.137 36.4803 114.981 36.726Z" fill="white"/>
<defs>
<filter id="filter0_f_222_2643" x="0" y="1" width="182" height="182" filterUnits="userSpaceOnUse" color-interpolation-filters="sRGB">
<feFlood flood-opacity="0" result="BackgroundImageFix"/>
<feBlend mode="normal" in="SourceGraphic" in2="BackgroundImageFix" result="shape"/>
<feGaussianBlur stdDeviation="28.5" result="effect1_foregroundBlur_222_2643"/>
</filter>
<filter id="filter1_d_222_2643" x="39.5508" y="28.7744" width="40.7363" height="35.9346" filterUnits="userSpaceOnUse" color-interpolation-filters="sRGB">
<feFlood flood-opacity="0" result="BackgroundImageFix"/>
<feColorMatrix in="SourceAlpha" type="matrix" values="0 0 0 0 0 0 0 0 0 0 0 0 0 0 0 0 0 0 127 0" result="hardAlpha"/>
<feOffset/>
<feGaussianBlur stdDeviation="4"/>
<feComposite in2="hardAlpha" operator="out"/>
<feColorMatrix type="matrix" values="0 0 0 0 0.941176 0 0 0 0 0.188235 0 0 0 0 0.2 0 0 0 0.65 0"/>
<feBlend mode="normal" in2="BackgroundImageFix" result="effect1_dropShadow_222_2643"/>
<feBlend mode="normal" in="SourceGraphic" in2="effect1_dropShadow_222_2643" result="shape"/>
</filter>
<filter id="filter2_d_222_2643" x="107.558" y="10.6602" width="41.3291" height="31.0869" filterUnits="userSpaceOnUse" color-interpolation-filters="sRGB">
<feFlood flood-opacity="0" result="BackgroundImageFix"/>
<feColorMatrix in="SourceAlpha" type="matrix" values="0 0 0 0 0 0 0 0 0 0 0 0 0 0 0 0 0 0 127 0" result="hardAlpha"/>
<feOffset/>
<feGaussianBlur stdDeviation="4"/>
<feComposite in2="hardAlpha" operator="out"/>
<feColorMatrix type="matrix" values="0 0 0 0 0.941176 0 0 0 0 0.188235 0 0 0 0 0.2 0 0 0 0.65 0"/>
<feBlend mode="normal" in2="BackgroundImageFix" result="effect1_dropShadow_222_2643"/>
<feBlend mode="normal" in="SourceGraphic" in2="effect1_dropShadow_222_2643" result="shape"/>
</filter>
<filter id="filter3_d_222_2643" x="77.2939" y="34.3809" width="28.5098" height="22.3027" filterUnits="userSpaceOnUse" color-interpolation-filters="sRGB">
<feFlood flood-opacity="0" result="BackgroundImageFix"/>
<feColorMatrix in="SourceAlpha" type="matrix" values="0 0 0 0 0 0 0 0 0 0 0 0 0 0 0 0 0 0 127 0" result="hardAlpha"/>
<feOffset/>
<feGaussianBlur stdDeviation="4"/>
<feComposite in2="hardAlpha" operator="out"/>
<feColorMatrix type="matrix" values="0 0 0 0 0.941176 0 0 0 0 0.188235 0 0 0 0 0.2 0 0 0 0.65 0"/>
<feBlend mode="normal" in2="BackgroundImageFix" result="effect1_dropShadow_222_2643"/>
<feBlend mode="normal" in="SourceGraphic" in2="effect1_dropShadow_222_2643" result="shape"/>
</filter>
<filter id="filter4_d_222_2643" x="99.7129" y="36.8379" width="28.5098" height="22.3027" filterUnits="userSpaceOnUse" color-interpolation-filters="sRGB">
<feFlood flood-opacity="0" result="BackgroundImageFix"/>
<feColorMatrix in="SourceAlpha" type="matrix" values="0 0 0 0 0 0 0 0 0 0 0 0 0 0 0 0 0 0 127 0" result="hardAlpha"/>
<feOffset/>
<feGaussianBlur stdDeviation="4"/>
<feComposite in2="hardAlpha" operator="out"/>
<feColorMatrix type="matrix" values="0 0 0 0 0.941176 0 0 0 0 0.188235 0 0 0 0 0.2 0 0 0 0.65 0"/>
<feBlend mode="normal" in2="BackgroundImageFix" result="effect1_dropShadow_222_2643"/>
<feBlend mode="normal" in="SourceGraphic" in2="effect1_dropShadow_222_2643" result="shape"/>
</filter>
<filter id="filter5_d_222_2643" x="83.7129" y="16.8379" width="28.5098" height="22.3027" filterUnits="userSpaceOnUse" color-interpolation-filters="sRGB">
<feFlood flood-opacity="0" result="BackgroundImageFix"/>
<feColorMatrix in="SourceAlpha" type="matrix" values="0 0 0 0 0 0 0 0 0 0 0 0 0 0 0 0 0 0 127 0" result="hardAlpha"/>
<feOffset/>
<feGaussianBlur stdDeviation="4"/>
<feComposite in2="hardAlpha" operator="out"/>
<feColorMatrix type="matrix" values="0 0 0 0 0.941176 0 0 0 0 0.188235 0 0 0 0 0.2 0 0 0 0.65 0"/>
<feBlend mode="normal" in2="BackgroundImageFix" result="effect1_dropShadow_222_2643"/>
<feBlend mode="normal" in="SourceGraphic" in2="effect1_dropShadow_222_2643" result="shape"/>
</filter>
<linearGradient id="paint0_linear_222_2643" x1="94" y1="0.62" x2="94" y2="93" gradientUnits="userSpaceOnUse">
<stop offset="0.119792" stop-color="#F03033" stop-opacity="0"/>
<stop offset="0.942708" stop-color="#F03033"/>
</linearGradient>
</defs>
</svg>
