<svg width="20" height="17" viewBox="0 0 20 17" fill="none" xmlns="http://www.w3.org/2000/svg">
<path d="M14.65 0.719727H5.35C2.4 0.719727 0 3.11973 0 6.06973V11.6497C0 14.5997 2.4 16.9997 5.35 16.9997H14.65C17.6 16.9997 20 14.5997 20 11.6497V6.06973C20 3.11973 17.6 0.719727 14.65 0.719727ZM12.5 7.01973C12.5 6.46973 12.95 6.01973 13.5 6.01973C14.05 6.01973 14.5 6.46973 14.5 7.01973C14.5 7.56973 14.05 8.02973 13.5 8.02973C12.95 8.02973 12.5 7.58973 12.5 7.03973V7.01973ZM8.13 11.0697C7.98 11.2197 7.79 11.2897 7.6 11.2897C7.41 11.2897 7.22 11.2197 7.07 11.0697L6.04 10.0397L5.05 11.0297C4.9 11.1797 4.71 11.2497 4.52 11.2497C4.33 11.2497 4.14 11.1797 3.99 11.0297C3.7 10.7397 3.7 10.2597 3.99 9.96973L4.98 8.97973L4.02 8.01973C3.73 7.72973 3.73 7.24973 4.02 6.95973C4.31 6.66973 4.79 6.66973 5.08 6.95973L6.04 7.91973L7.03 6.92973C7.32 6.63973 7.8 6.63973 8.09 6.92973C8.38 7.21973 8.38 7.69973 8.09 7.98973L7.1 8.97973L8.13 10.0097C8.42 10.2997 8.42 10.7797 8.13 11.0697ZM11.54 9.99973C10.99 9.99973 10.53 9.54973 10.53 8.99973C10.53 8.44973 10.97 7.99973 11.52 7.99973H11.54C12.09 7.99973 12.54 8.44973 12.54 8.99973C12.54 9.54973 12.1 9.99973 11.54 9.99973ZM13.5 11.9697C12.95 11.9697 12.5 11.5297 12.5 10.9797V10.9597C12.5 10.4097 12.95 9.95973 13.5 9.95973C14.05 9.95973 14.5 10.4097 14.5 10.9597C14.5 11.5097 14.06 11.9697 13.5 11.9697ZM15.48 9.99973C14.93 9.99973 14.47 9.54973 14.47 8.99973C14.47 8.44973 14.91 7.99973 15.46 7.99973H15.48C16.03 7.99973 16.48 8.44973 16.48 8.99973C16.48 9.54973 16.04 9.99973 15.48 9.99973Z" fill="#848B8D"/>
</svg>
