<svg width="20" height="20" viewBox="0 0 20 20" fill="none" xmlns="http://www.w3.org/2000/svg">
<path fill-rule="evenodd" clip-rule="evenodd" d="M9.15147 0.751374C9.6201 0.282745 10.3799 0.282745 10.8485 0.751374L19.2485 9.15137C19.5917 9.49457 19.6944 10.0107 19.5087 10.4591C19.3229 10.9075 18.8854 11.1999 18.4 11.1999H17.2V18.3999C17.2 19.0626 16.6627 19.5999 16 19.5999H13.6C12.9373 19.5999 12.4 19.0626 12.4 18.3999V14.7999C12.4 14.1372 11.8627 13.5999 11.2 13.5999H8.8C8.13726 13.5999 7.6 14.1372 7.6 14.7999V18.3999C7.6 19.0626 7.06274 19.5999 6.4 19.5999H4C3.33726 19.5999 2.8 19.0626 2.8 18.3999V11.1999H1.6C1.11464 11.1999 0.67708 10.9075 0.491343 10.4591C0.305606 10.0107 0.408273 9.49457 0.75147 9.15137L9.15147 0.751374Z" fill="#F03033"/>
</svg>
