<svg width="18" height="18" viewBox="0 0 18 18" fill="none" xmlns="http://www.w3.org/2000/svg">
<path fill-rule="evenodd" clip-rule="evenodd" d="M0.875 9C0.875 4.51269 4.51269 0.875 9 0.875C13.4873 0.875 17.125 4.51269 17.125 9C17.125 13.4873 13.4873 17.125 9 17.125C4.51269 17.125 0.875 13.4873 0.875 9ZM8.1302 7.79871C9.0854 7.32111 10.1609 8.18386 9.9019 9.21991L9.31105 11.5833L9.34563 11.566C9.65436 11.4116 10.0298 11.5368 10.1842 11.8455C10.3385 12.1542 10.2134 12.5297 9.90465 12.684L9.87007 12.7013C8.91488 13.1789 7.83936 12.3162 8.09838 11.2801L8.68922 8.91674L8.65465 8.93403C8.34591 9.0884 7.97049 8.96326 7.81612 8.65452C7.66175 8.34578 7.78689 7.97036 8.09563 7.81599L8.1302 7.79871ZM9 6.5C9.34518 6.5 9.625 6.22018 9.625 5.875C9.625 5.52982 9.34518 5.25 9 5.25C8.65482 5.25 8.375 5.52982 8.375 5.875C8.375 6.22018 8.65482 6.5 9 6.5Z" fill="#767676"/>
</svg>
