<svg width="24" height="24" viewBox="0 0 24 24" fill="none" xmlns="http://www.w3.org/2000/svg">
<g id="heroicons-solid/arrow-left-on-rectangle">
<path id="Vector (Stroke)" fill-rule="evenodd" clip-rule="evenodd" d="M16.5 20.25C17.3284 20.25 18 19.5784 18 18.75L18 5.25C18 4.42157 17.3284 3.75 16.5 3.75L10.5 3.75C9.67157 3.75 9 4.42157 9 5.25L9 9C9 9.41421 8.66422 9.75 8.25 9.75C7.83579 9.75 7.5 9.41421 7.5 9L7.5 5.25C7.5 3.59314 8.84315 2.25 10.5 2.25L16.5 2.25C18.1569 2.25 19.5 3.59315 19.5 5.25L19.5 18.75C19.5 20.4069 18.1569 21.75 16.5 21.75L10.5 21.75C8.84315 21.75 7.5 20.4069 7.5 18.75L7.5 15C7.5 14.5858 7.83579 14.25 8.25 14.25C8.66421 14.25 9 14.5858 9 15L9 18.75C9 19.5784 9.67157 20.25 10.5 20.25L16.5 20.25ZM11.4697 15.5303C11.1768 15.2374 11.1768 14.7626 11.4697 14.4697L13.1893 12.75L2.25 12.75C1.83579 12.75 1.5 12.4142 1.5 12C1.5 11.5858 1.83579 11.25 2.25 11.25L13.1893 11.25L11.4697 9.53033C11.1768 9.23743 11.1768 8.76256 11.4697 8.46967C11.7626 8.17677 12.2374 8.17677 12.5303 8.46967L15.5303 11.4697C15.8232 11.7626 15.8232 12.2374 15.5303 12.5303L12.5303 15.5303C12.2374 15.8232 11.7626 15.8232 11.4697 15.5303Z" fill="white"/>
</g>
</svg>
