<svg width="19" height="20" viewBox="0 0 19 20" fill="none" xmlns="http://www.w3.org/2000/svg">
<path fill-rule="evenodd" clip-rule="evenodd" d="M15.5 18.25C16.3284 18.25 17 17.5784 17 16.75L17 3.25C17 2.42157 16.3284 1.75 15.5 1.75L9.5 1.75C8.67157 1.75 8 2.42157 8 3.25L8 7C8 7.41421 7.66422 7.75 7.25 7.75C6.83579 7.75 6.5 7.41421 6.5 7L6.5 3.25C6.5 1.59314 7.84315 0.249999 9.5 0.249999L15.5 0.25C17.1569 0.25 18.5 1.59315 18.5 3.25L18.5 16.75C18.5 18.4069 17.1569 19.75 15.5 19.75L9.5 19.75C7.84315 19.75 6.5 18.4069 6.5 16.75L6.5 13C6.5 12.5858 6.83579 12.25 7.25 12.25C7.66421 12.25 8 12.5858 8 13L8 16.75C8 17.5784 8.67157 18.25 9.5 18.25L15.5 18.25ZM10.4697 13.5303C10.1768 13.2374 10.1768 12.7626 10.4697 12.4697L12.1893 10.75L1.25 10.75C0.835786 10.75 0.499999 10.4142 0.499999 10C0.499999 9.58578 0.835786 9.25 1.25 9.25L12.1893 9.25L10.4697 7.53033C10.1768 7.23743 10.1768 6.76256 10.4697 6.46967C10.7626 6.17677 11.2374 6.17677 11.5303 6.46967L14.5303 9.46967C14.8232 9.76256 14.8232 10.2374 14.5303 10.5303L11.5303 13.5303C11.2374 13.8232 10.7626 13.8232 10.4697 13.5303Z" fill="#848B8D"/>
</svg>
