<svg width="48" height="48" viewBox="0 0 48 48" fill="none" xmlns="http://www.w3.org/2000/svg">
<path d="M25.5 16.0607C25.5 14.7243 23.8843 14.0551 22.9393 15L18.4393 19.5H16.5091C15.3677 19.5 14.1911 20.1645 13.8493 21.4051C13.6215 22.2321 13.5 23.1025 13.5 24C13.5 24.8975 13.6215 25.7679 13.8493 26.595C14.1911 27.8356 15.3677 28.5 16.5091 28.5H18.4393L22.9393 33C23.8843 33.945 25.5 33.2757 25.5 31.9394V16.0607Z" fill="#F03033"/>
<path d="M29.7803 21.2197C29.4874 20.9268 29.0126 20.9268 28.7197 21.2197C28.4268 21.5126 28.4268 21.9874 28.7197 22.2803L30.4393 24L28.7197 25.7197C28.4268 26.0126 28.4268 26.4874 28.7197 26.7803C29.0126 27.0732 29.4874 27.0732 29.7803 26.7803L31.5 25.0607L33.2197 26.7803C33.5126 27.0732 33.9874 27.0732 34.2803 26.7803C34.5732 26.4874 34.5732 26.0126 34.2803 25.7197L32.5607 24L34.2803 22.2803C34.5732 21.9874 34.5732 21.5126 34.2803 21.2197C33.9874 20.9268 33.5126 20.9268 33.2197 21.2197L31.5 22.9393L29.7803 21.2197Z" fill="#F03033"/>
<rect x="0.5" y="0.5" width="47" height="47" rx="11.5" fill="#F03033" fill-opacity="0.2" stroke="#F03033"/>
</svg>
