<svg width="263" height="194" viewBox="0 0 263 194" fill="none" xmlns="http://www.w3.org/2000/svg">
<g filter="url(#filter0_f_1171_20698)">
<ellipse cx="141" cy="97" rx="65" ry="40" fill="#F03033"/>
</g>
<path d="M205.145 117.431C205.298 109.004 194.718 101.979 181.515 101.74C168.311 101.501 157.484 108.139 157.331 116.567C157.178 124.994 167.758 132.02 180.961 132.258C194.165 132.497 204.992 125.859 205.145 117.431Z" fill="#F93D40"/>
<path d="M180.91 135.246C165.142 134.961 152.463 126.541 152.646 116.478C152.829 106.414 165.804 98.4575 181.572 98.7438C197.339 99.0287 210.018 107.448 209.835 117.512C209.653 127.576 196.677 135.532 180.91 135.246ZM181.518 101.735C168.336 101.497 157.487 108.148 157.333 116.562C157.181 124.976 167.782 132.015 180.964 132.253C194.146 132.491 204.995 125.84 205.148 117.426C205.301 109.012 194.7 101.974 181.518 101.735Z" fill="#F03033"/>
<path d="M188.758 123.803C187.493 124.565 185.806 125.025 183.7 125.186L183.657 127.54L180.27 127.479L180.312 125.168C178.829 125.07 177.454 124.862 176.187 124.541C174.919 124.222 173.814 123.799 172.871 123.273L174.367 121.307C176.276 122.302 178.348 122.871 180.582 123.009L180.662 118.6C179.183 118.333 177.937 118.046 176.924 117.737C175.91 117.429 175.065 116.982 174.39 116.399C173.714 115.814 173.384 115.063 173.401 114.143C173.415 113.38 173.726 112.689 174.336 112.071C174.945 111.453 175.789 110.946 176.872 110.549C177.954 110.152 179.193 109.908 180.59 109.821L180.633 107.469L184.02 107.53L183.977 109.861C185.259 109.983 186.463 110.203 187.587 110.521C188.711 110.839 189.656 111.23 190.423 111.696L188.926 113.663C187.325 112.786 185.585 112.246 183.706 112.042L183.623 116.642C185.101 116.909 186.325 117.19 187.295 117.483C188.264 117.776 189.075 118.205 189.73 118.768C190.384 119.33 190.704 120.058 190.687 120.947C190.666 122.088 190.023 123.042 188.758 123.803ZM178.463 115.284C178.989 115.598 179.737 115.869 180.708 116.098L180.783 112.008C179.829 112.118 179.077 112.352 178.527 112.709C177.977 113.067 177.699 113.521 177.688 114.072C177.68 114.566 177.937 114.97 178.463 115.284ZM185.646 122.284C186.138 121.947 186.391 121.503 186.4 120.951C186.409 120.513 186.17 120.156 185.688 119.878C185.207 119.601 184.502 119.362 183.575 119.162L183.506 122.957C184.44 122.845 185.153 122.622 185.646 122.284Z" fill="#CC282A"/>
<path d="M154.389 116.509C154.568 106.632 167.073 98.7852 182.443 98.7686C182.153 98.7576 181.862 98.7493 181.57 98.7437C165.803 98.4589 152.827 106.414 152.644 116.477C152.463 126.541 165.142 134.961 180.91 135.246C181.202 135.251 181.491 135.253 181.782 135.253C166.422 134.68 154.21 126.386 154.389 116.509Z" fill="#FF7678"/>
<path d="M181.518 101.734C181.262 101.73 181.008 101.729 180.755 101.729C193.581 102.218 203.772 109.147 203.623 117.397C203.473 125.648 193.037 132.203 180.203 132.23C180.456 132.239 180.711 132.248 180.966 132.252C194.148 132.49 204.996 125.839 205.15 117.425C205.301 109.011 194.7 101.973 181.518 101.734Z" fill="#CC282A"/>
<path d="M177.844 114.781C178.37 115.094 179.118 115.366 180.088 115.595L180.163 111.504C179.209 111.615 178.457 111.849 177.908 112.205C177.358 112.564 177.08 113.017 177.068 113.569C177.059 114.064 177.318 114.468 177.844 114.781ZM185.025 121.781C185.518 121.444 185.77 121 185.779 120.448C185.788 120.01 185.55 119.653 185.068 119.375C184.586 119.098 183.881 118.859 182.955 118.658L182.885 122.453C183.819 122.343 184.532 122.119 185.025 121.781ZM188.138 123.301C186.872 124.063 185.185 124.524 183.079 124.684L183.036 127.038L179.649 126.977L179.691 124.666C178.208 124.568 176.833 124.36 175.566 124.039C174.298 123.72 173.193 123.297 172.25 122.771L173.747 120.805C175.655 121.8 177.728 122.369 179.961 122.507L180.041 118.098C178.563 117.831 177.316 117.544 176.303 117.235C175.289 116.927 174.445 116.48 173.769 115.897C173.093 115.312 172.764 114.561 172.78 113.641C172.794 112.878 173.106 112.187 173.715 111.569C174.324 110.951 175.169 110.444 176.252 110.047C177.333 109.65 178.572 109.406 179.969 109.319L180.012 106.967L183.399 107.028L183.356 109.359C184.638 109.481 185.842 109.701 186.966 110.019C188.09 110.337 189.035 110.728 189.802 111.195L188.305 113.161C186.704 112.284 184.964 111.744 183.085 111.54L183.002 116.14C184.481 116.407 185.705 116.688 186.674 116.981C187.643 117.274 188.455 117.703 189.11 118.266C189.763 118.828 190.083 119.556 190.066 120.445C190.046 121.586 189.402 122.539 188.138 123.301Z" fill="white"/>
<path d="M209.689 123.428L209.731 123.429L209.838 117.512C209.655 127.575 196.679 135.532 180.912 135.247C165.145 134.962 152.465 126.542 152.648 116.479C152.648 116.479 152.53 122.995 152.525 123.297C152.357 132.573 165.048 140.353 180.815 140.638C196.582 140.922 209.547 133.607 209.714 124.33C209.72 124.027 209.71 123.727 209.689 123.428Z" fill="#CC282A"/>
<path d="M167.486 110.236C167.638 101.809 157.059 94.7832 143.855 94.5445C130.652 94.3057 119.824 100.944 119.671 109.372C119.519 117.799 130.098 124.824 143.302 125.063C156.505 125.302 167.333 118.664 167.486 110.236Z" fill="#F93D40"/>
<path d="M143.25 128.048C127.483 127.764 114.803 119.344 114.986 109.28C115.169 99.2165 128.144 91.2603 143.912 91.5466C159.679 91.8314 172.358 100.251 172.176 110.315C171.993 120.379 159.017 128.335 143.25 128.048ZM143.858 94.5379C130.676 94.3 119.827 100.951 119.673 109.365C119.521 117.779 130.122 124.818 143.304 125.056C156.486 125.294 167.335 118.643 167.488 110.229C167.641 101.815 157.04 94.7772 143.858 94.5379Z" fill="#F03033"/>
<path d="M151.098 116.61C149.833 117.372 148.146 117.832 146.04 117.993L145.997 120.346L142.61 120.285L142.652 117.975C141.169 117.876 139.794 117.669 138.527 117.348C137.259 117.029 136.154 116.605 135.211 116.08L136.708 114.113C138.616 115.109 140.688 115.677 142.922 115.816L143.002 111.407C141.523 111.14 140.277 110.852 139.264 110.544C138.25 110.235 137.405 109.789 136.73 109.205C136.054 108.62 135.724 107.869 135.741 106.95C135.755 106.186 136.066 105.496 136.676 104.878C137.285 104.26 138.13 103.752 139.212 103.355C140.294 102.958 141.533 102.715 142.93 102.628L142.973 100.275L146.36 100.336L146.317 102.668C147.599 102.79 148.803 103.01 149.927 103.328C151.051 103.646 151.996 104.037 152.763 104.503L151.266 106.47C149.665 105.593 147.925 105.052 146.046 104.849L145.963 109.449C147.441 109.715 148.666 109.996 149.635 110.289C150.604 110.583 151.415 111.011 152.07 111.574C152.724 112.137 153.044 112.865 153.027 113.754C153.006 114.895 152.363 115.849 151.098 116.61ZM140.803 108.091C141.33 108.404 142.077 108.676 143.048 108.905L143.123 104.814C142.169 104.925 141.417 105.159 140.867 105.515C140.317 105.874 140.039 106.327 140.028 106.879C140.02 107.373 140.277 107.777 140.803 108.091ZM147.986 115.091C148.479 114.754 148.731 114.31 148.74 113.758C148.749 113.319 148.51 112.963 148.029 112.685C147.547 112.408 146.842 112.169 145.916 111.968L145.846 115.763C146.78 115.651 147.493 115.429 147.986 115.091Z" fill="#CC282A"/>
<path d="M116.73 109.312C116.908 99.4349 129.413 91.588 144.783 91.5714C144.494 91.5603 144.203 91.552 143.911 91.5465C128.144 91.2616 115.168 99.2164 114.985 109.28C114.804 119.344 127.483 127.764 143.25 128.048C143.542 128.054 143.832 128.055 144.123 128.055C128.763 127.483 116.551 119.189 116.73 109.312Z" fill="#FF7678"/>
<path d="M143.859 94.5387C143.602 94.5346 143.349 94.5332 143.096 94.5332C155.922 95.0228 166.113 101.951 165.964 110.202C165.814 118.453 155.378 125.008 142.543 125.034C142.797 125.044 143.051 125.052 143.306 125.057C156.488 125.294 167.337 118.644 167.491 110.23C167.642 101.816 157.041 94.778 143.859 94.5387Z" fill="#CC282A"/>
<path d="M140.184 107.585C140.71 107.899 141.458 108.17 142.428 108.4L142.503 104.309C141.549 104.42 140.797 104.653 140.248 105.01C139.698 105.368 139.42 105.822 139.408 106.374C139.399 106.869 139.658 107.273 140.184 107.585ZM147.365 114.586C147.858 114.248 148.11 113.804 148.119 113.253C148.128 112.814 147.89 112.457 147.408 112.179C146.926 111.903 146.221 111.664 145.295 111.463L145.225 115.258C146.159 115.147 146.872 114.923 147.365 114.586ZM150.478 116.106C149.212 116.868 147.525 117.328 145.419 117.489L145.376 119.842L141.99 119.782L142.031 117.471C140.548 117.372 139.173 117.165 137.906 116.844C136.638 116.525 135.533 116.102 134.59 115.576L136.087 113.609C137.995 114.605 140.068 115.174 142.301 115.312L142.381 110.903C140.903 110.636 139.656 110.348 138.643 110.04C137.629 109.732 136.785 109.285 136.109 108.701C135.433 108.116 135.104 107.365 135.12 106.446C135.134 105.682 135.446 104.992 136.055 104.374C136.664 103.756 137.509 103.248 138.592 102.851C139.673 102.454 140.912 102.211 142.309 102.124L142.352 99.7715L145.739 99.8323L145.696 102.164C146.978 102.286 148.182 102.506 149.306 102.824C150.43 103.142 151.375 103.533 152.142 103.999L150.645 105.966C149.044 105.089 147.304 104.548 145.425 104.345L145.342 108.945C146.821 109.212 148.045 109.492 149.014 109.786C149.983 110.079 150.795 110.507 151.45 111.07C152.103 111.633 152.423 112.361 152.406 113.25C152.386 114.391 151.742 115.344 150.478 116.106Z" fill="white"/>
<path d="M172.028 116.235L172.07 116.236L172.176 110.318C171.994 120.382 159.018 128.338 143.251 128.053C127.483 127.768 114.804 119.349 114.987 109.285C114.987 109.285 114.869 115.802 114.863 116.103C114.696 125.38 127.386 133.159 143.154 133.444C158.921 133.729 171.886 126.413 172.053 117.136C172.059 116.833 172.049 116.533 172.028 116.235Z" fill="#CC282A"/>
<path d="M122.333 111.898C122.486 103.471 111.906 96.4453 98.7028 96.2066C85.4993 95.9678 74.6719 102.606 74.5191 111.034C74.3664 119.461 84.9461 126.487 98.1496 126.725C111.353 126.964 122.181 120.326 122.333 111.898Z" fill="#F93D40"/>
<path d="M98.0975 129.711C82.3303 129.426 69.6508 121.006 69.8336 110.942C70.0164 100.879 82.9921 92.9224 98.7594 93.2087C114.527 93.4936 127.206 101.913 127.023 111.977C126.84 122.041 113.865 129.997 98.0975 129.711ZM98.7054 96.2C85.5233 95.9621 74.6744 102.613 74.5207 111.027C74.3684 119.441 84.9694 126.48 98.1515 126.718C111.334 126.956 122.182 120.305 122.336 111.891C122.488 103.477 111.887 96.4393 98.7054 96.2Z" fill="#F03033"/>
<path d="M105.946 118.272C104.68 119.034 102.994 119.494 100.888 119.655L100.845 122.008L97.458 121.948L97.4996 119.637C96.0166 119.538 94.6416 119.331 93.3746 119.01C92.1063 118.691 91.0013 118.268 90.0583 117.742L91.5552 115.775C93.4633 116.771 95.5361 117.34 97.7696 117.478L97.8499 113.069C96.3711 112.802 95.1248 112.514 94.1113 112.206C93.0977 111.898 92.253 111.451 91.5773 110.867C90.9016 110.282 90.5721 109.531 90.5887 108.612C90.6025 107.848 90.9141 107.158 91.5233 106.54C92.1326 105.922 92.9772 105.414 94.06 105.017C95.1415 104.62 96.3807 104.377 97.7779 104.29L97.8208 101.938L101.208 101.998L101.165 104.33C102.447 104.452 103.65 104.672 104.775 104.99C105.899 105.308 106.843 105.699 107.61 106.165L106.114 108.132C104.513 107.255 102.772 106.714 100.893 106.511L100.81 111.111C102.289 111.378 103.513 111.658 104.482 111.952C105.452 112.245 106.263 112.673 106.918 113.236C107.572 113.799 107.892 114.527 107.875 115.416C107.854 116.557 107.21 117.511 105.946 118.272ZM95.651 109.753C96.1772 110.067 96.9249 110.338 97.8956 110.567L97.9703 106.476C97.0163 106.587 96.2644 106.821 95.7147 107.178C95.165 107.536 94.8867 107.989 94.8756 108.541C94.8673 109.035 95.1248 109.439 95.651 109.753ZM102.833 116.753C103.326 116.416 103.578 115.972 103.588 115.42C103.596 114.982 103.358 114.625 102.876 114.347C102.394 114.07 101.69 113.831 100.763 113.63L100.694 117.425C101.627 117.313 102.34 117.091 102.833 116.753Z" fill="#CC282A"/>
<path d="M71.5774 110.974C71.756 101.097 84.261 93.2501 99.6308 93.2335C99.3414 93.2224 99.0506 93.2141 98.7585 93.2086C82.9912 92.9237 70.0155 100.879 69.8327 110.942C69.6513 121.006 82.3308 129.426 98.098 129.711C98.3902 129.716 98.6796 129.717 98.9703 129.717C83.6102 129.145 71.3988 120.851 71.5774 110.974Z" fill="#FF7678"/>
<path d="M98.7063 96.2008C98.4501 96.1967 98.1967 96.1953 97.9434 96.1953C110.77 96.6849 120.961 103.614 120.811 111.864C120.662 120.115 110.225 126.67 97.3909 126.697C97.6443 126.706 97.899 126.715 98.1538 126.719C111.336 126.957 122.185 120.306 122.338 111.892C122.489 103.478 111.888 96.4401 98.7063 96.2008Z" fill="#CC282A"/>
<path d="M95.0316 109.247C95.5577 109.561 96.3055 109.832 97.2761 110.062L97.3509 105.971C96.3968 106.082 95.645 106.315 95.0953 106.672C94.5455 107.03 94.2672 107.484 94.2561 108.036C94.2465 108.531 94.5054 108.935 95.0316 109.247ZM102.212 116.248C102.705 115.91 102.957 115.467 102.967 114.915C102.975 114.476 102.737 114.12 102.255 113.842C101.774 113.565 101.069 113.326 100.142 113.125L100.073 116.92C101.006 116.809 101.72 116.585 102.212 116.248ZM105.325 117.768C104.06 118.53 102.373 118.99 100.267 119.151L100.224 121.505L96.8372 121.444L96.8787 119.133C95.3957 119.035 94.0208 118.827 92.7538 118.506C91.4854 118.187 90.3805 117.764 89.4375 117.238L90.9343 115.272C92.8424 116.267 94.9153 116.836 97.1487 116.974L97.229 112.565C95.7502 112.298 94.504 112.01 93.4904 111.702C92.4768 111.394 91.6322 110.947 90.9565 110.363C90.2808 109.778 89.9512 109.027 89.9678 108.108C89.9817 107.344 90.2932 106.654 90.9025 106.036C91.5117 105.418 92.3564 104.91 93.4392 104.513C94.5206 104.117 95.7599 103.873 97.157 103.786L97.2 101.434L100.587 101.494L100.544 103.826C101.826 103.948 103.029 104.168 104.154 104.486C105.278 104.804 106.222 105.195 106.99 105.661L105.493 107.628C103.892 106.751 102.152 106.21 100.273 106.007L100.189 110.607C101.668 110.874 102.892 111.154 103.862 111.448C104.831 111.741 105.642 112.17 106.297 112.732C106.951 113.295 107.271 114.023 107.254 114.912C107.233 116.053 106.589 117.006 105.325 117.768Z" fill="white"/>
<path d="M126.876 117.897L126.917 117.898L127.024 111.98C126.841 122.044 113.865 130 98.0982 129.715C82.331 129.431 69.6516 121.011 69.8344 110.947C69.8344 110.947 69.7167 117.464 69.7111 117.765C69.5436 127.042 82.2341 134.821 98.0013 135.106C113.769 135.391 126.733 128.075 126.901 118.798C126.906 118.495 126.897 118.195 126.876 117.897Z" fill="#CC282A"/>
<path d="M218.163 107.605C218.316 99.1777 207.736 92.1523 194.532 91.9136C181.329 91.6749 170.501 98.3132 170.349 106.741C170.196 115.168 180.776 122.194 193.979 122.432C207.183 122.671 218.01 116.033 218.163 107.605Z" fill="#F93D40"/>
<path d="M193.928 125.422C178.161 125.137 165.481 116.717 165.664 106.653C165.847 96.5895 178.823 88.6333 194.59 88.9196C210.357 89.2045 223.036 97.624 222.854 107.688C222.671 117.752 209.695 125.708 193.928 125.422ZM194.536 91.9109C181.354 91.6731 170.505 98.3238 170.351 106.738C170.199 115.152 180.8 122.191 193.982 122.429C207.164 122.667 218.013 116.016 218.167 107.602C218.319 99.1881 207.718 92.1502 194.536 91.9109Z" fill="#F03033"/>
<path d="M201.779 113.981C200.513 114.743 198.826 115.203 196.72 115.364L196.677 117.717L193.29 117.657L193.332 115.346C191.849 115.247 190.474 115.04 189.207 114.719C187.939 114.4 186.834 113.977 185.891 113.451L187.388 111.484C189.296 112.48 191.369 113.049 193.602 113.187L193.682 108.778C192.204 108.511 190.957 108.223 189.944 107.915C188.93 107.607 188.086 107.16 187.41 106.576C186.734 105.991 186.405 105.24 186.421 104.321C186.435 103.557 186.747 102.867 187.356 102.249C187.965 101.631 188.81 101.123 189.892 100.726C190.974 100.329 192.213 100.086 193.61 99.9989L193.653 97.6465L197.04 97.7073L196.997 100.039C198.279 100.161 199.483 100.381 200.607 100.699C201.731 101.017 202.676 101.408 203.443 101.874L201.946 103.841C200.345 102.964 198.605 102.423 196.726 102.22L196.643 106.82C198.122 107.087 199.346 107.367 200.315 107.661C201.284 107.954 202.096 108.382 202.751 108.945C203.404 109.508 203.724 110.236 203.707 111.125C203.687 112.266 203.043 113.22 201.779 113.981ZM191.483 105.462C192.01 105.776 192.757 106.047 193.728 106.276L193.803 102.185C192.849 102.296 192.097 102.53 191.547 102.887C190.997 103.245 190.719 103.698 190.708 104.25C190.7 104.744 190.957 105.148 191.483 105.462ZM198.666 112.462C199.159 112.125 199.411 111.681 199.42 111.129C199.429 110.691 199.191 110.334 198.709 110.056C198.227 109.779 197.522 109.54 196.596 109.339L196.526 113.134C197.46 113.022 198.173 112.8 198.666 112.462Z" fill="#CC282A"/>
<path d="M167.407 106.685C167.585 96.8081 180.09 88.9611 195.46 88.9445C195.171 88.9335 194.88 88.9252 194.588 88.9196C178.821 88.6347 165.845 96.5896 165.662 106.653C165.481 116.717 178.16 125.137 193.927 125.422C194.22 125.427 194.509 125.428 194.8 125.428C179.44 124.856 167.228 116.562 167.407 106.685Z" fill="#FF7678"/>
<path d="M194.536 91.9118C194.28 91.9076 194.026 91.9062 193.773 91.9062C206.599 92.3958 216.79 99.3245 216.641 107.575C216.491 115.826 206.055 122.381 193.22 122.408C193.474 122.417 193.729 122.425 193.983 122.43C207.165 122.668 218.014 116.017 218.168 107.603C218.319 99.1889 207.718 92.151 194.536 91.9118Z" fill="#CC282A"/>
<path d="M190.858 104.958C191.385 105.272 192.132 105.543 193.103 105.773L193.178 101.682C192.224 101.793 191.472 102.026 190.922 102.383C190.372 102.741 190.094 103.195 190.083 103.747C190.073 104.242 190.332 104.646 190.858 104.958ZM198.039 111.959C198.532 111.621 198.784 111.177 198.794 110.626C198.802 110.187 198.564 109.83 198.082 109.552C197.6 109.276 196.896 109.037 195.969 108.836L195.9 112.631C196.833 112.52 197.546 112.296 198.039 111.959ZM201.152 113.479C199.887 114.241 198.2 114.701 196.094 114.862L196.051 117.215L192.664 117.155L192.706 114.844C191.223 114.746 189.848 114.538 188.581 114.217C187.312 113.898 186.207 113.475 185.264 112.949L186.761 110.982C188.669 111.978 190.742 112.547 192.976 112.685L193.056 108.276C191.577 108.009 190.331 107.721 189.317 107.413C188.304 107.105 187.459 106.658 186.783 106.074C186.108 105.489 185.778 104.738 185.795 103.819C185.809 103.055 186.12 102.365 186.729 101.747C187.339 101.129 188.183 100.621 189.266 100.224C190.348 99.8275 191.587 99.5841 192.984 99.497L193.027 97.1445L196.414 97.2054L196.371 99.5371C197.653 99.6588 198.856 99.8786 199.981 100.197C201.105 100.515 202.049 100.906 202.816 101.372L201.32 103.339C199.719 102.462 197.978 101.921 196.099 101.718L196.016 106.318C197.495 106.585 198.719 106.865 199.689 107.159C200.658 107.452 201.469 107.88 202.124 108.443C202.778 109.006 203.098 109.734 203.081 110.623C203.06 111.764 202.416 112.717 201.152 113.479Z" fill="white"/>
<path d="M222.705 113.606L222.747 113.607L222.854 107.689C222.671 117.753 209.695 125.709 193.928 125.425C178.161 125.14 165.481 116.72 165.664 106.656C165.664 106.656 165.546 113.173 165.541 113.474C165.373 122.751 178.064 130.531 193.831 130.815C209.598 131.1 222.563 123.784 222.73 114.507C222.736 114.205 222.726 113.905 222.705 113.606Z" fill="#CC282A"/>
<path d="M162.777 98.2068C162.929 89.7793 152.35 82.7539 139.146 82.5152C125.943 82.2764 115.115 88.9147 114.963 97.3422C114.81 105.77 125.389 112.795 138.593 113.034C151.796 113.273 162.624 106.634 162.777 98.2068Z" fill="#F93D40"/>
<path d="M138.543 116.021C122.776 115.736 110.096 107.317 110.279 97.253C110.462 87.1891 123.437 79.2329 139.205 79.5192C154.972 79.8041 167.651 88.2236 167.469 98.2874C167.286 108.351 154.31 116.307 138.543 116.021ZM139.151 82.5106C125.969 82.2727 115.12 88.9234 114.966 97.3373C114.814 105.751 125.415 112.791 138.597 113.028C151.779 113.266 162.628 106.616 162.781 98.2017C162.934 89.7877 152.333 82.7498 139.151 82.5106Z" fill="#F03033"/>
<path d="M146.395 104.578C145.13 105.34 143.443 105.801 141.337 105.961L141.294 108.315L137.907 108.254L137.949 105.943C136.466 105.845 135.091 105.638 133.824 105.317C132.555 104.997 131.451 104.574 130.508 104.049L132.004 102.082C133.912 103.078 135.985 103.646 138.219 103.784L138.299 99.3756C136.82 99.1087 135.574 98.821 134.56 98.5126C133.547 98.2042 132.702 97.7575 132.027 97.1739C131.351 96.5889 131.021 95.838 131.038 94.9183C131.052 94.1549 131.363 93.4648 131.973 92.8466C132.582 92.2285 133.426 91.7209 134.509 91.324C135.591 90.9271 136.83 90.6837 138.227 90.5966L138.27 88.2441L141.657 88.305L141.614 90.6367C142.896 90.7584 144.099 90.9783 145.224 91.2963C146.348 91.6144 147.293 92.0058 148.06 92.4719L146.563 94.4384C144.962 93.5616 143.222 93.0209 141.343 92.8176L141.26 97.4173C142.738 97.6842 143.962 97.965 144.932 98.2582C145.901 98.5514 146.712 98.9801 147.367 99.5429C148.021 100.106 148.341 100.833 148.324 101.722C148.303 102.863 147.659 103.818 146.395 104.578ZM136.1 96.0593C136.626 96.3732 137.374 96.6443 138.345 96.8738L138.42 92.783C137.466 92.8937 136.714 93.1274 136.164 93.4842C135.614 93.8424 135.336 94.296 135.325 94.8478C135.317 95.3415 135.574 95.7453 136.1 96.0593ZM143.283 103.06C143.775 102.722 144.027 102.278 144.037 101.727C144.045 101.288 143.807 100.931 143.325 100.653C142.844 100.377 142.139 100.138 141.212 99.9371L141.143 103.732C142.076 103.62 142.79 103.397 143.283 103.06Z" fill="#CC282A"/>
<path d="M112.021 97.2847C112.199 87.4076 124.704 79.5606 140.074 79.544C139.785 79.533 139.494 79.5247 139.202 79.5191C123.435 79.2342 110.459 87.1891 110.276 97.2529C110.095 107.317 122.774 115.736 138.541 116.021C138.834 116.027 139.123 116.028 139.414 116.028C124.054 115.455 111.842 107.162 112.021 97.2847Z" fill="#FF7678"/>
<path d="M139.15 82.5094C138.894 82.5053 138.64 82.5039 138.387 82.5039C151.213 82.9935 161.404 89.9221 161.255 98.1729C161.105 106.424 150.669 112.979 137.834 113.005C138.088 113.015 138.342 113.023 138.597 113.027C151.779 113.265 162.628 106.614 162.782 98.2005C162.933 89.7866 152.332 82.7487 139.15 82.5094Z" fill="#CC282A"/>
<path d="M135.473 95.5559C135.999 95.8699 136.747 96.1409 137.718 96.3705L137.792 92.2797C136.838 92.3903 136.086 92.624 135.537 92.9809C134.987 93.339 134.709 93.7927 134.698 94.3445C134.688 94.8396 134.947 95.2434 135.473 95.5559ZM142.654 102.556C143.147 102.219 143.399 101.775 143.409 101.223C143.417 100.785 143.179 100.428 142.697 100.15C142.215 99.8735 141.51 99.6343 140.584 99.4338L140.515 103.229C141.448 103.118 142.161 102.894 142.654 102.556ZM145.767 104.076C144.501 104.838 142.814 105.299 140.708 105.459L140.665 107.813L137.279 107.752L137.32 105.441C135.837 105.343 134.462 105.136 133.195 104.815C131.927 104.495 130.822 104.072 129.879 103.547L131.376 101.58C133.284 102.576 135.357 103.144 137.59 103.283L137.67 98.8737C136.192 98.6067 134.945 98.3191 133.932 98.0107C132.918 97.7023 132.074 97.2556 131.398 96.672C130.722 96.087 130.393 95.336 130.409 94.4164C130.423 93.653 130.735 92.9629 131.344 92.3447C131.953 91.7265 132.798 91.219 133.881 90.822C134.962 90.4251 136.201 90.1817 137.598 90.0946L137.641 87.7422L141.028 87.803L140.985 90.1347C142.268 90.2564 143.471 90.4763 144.595 90.7944C145.72 91.1125 146.664 91.5038 147.431 91.9699L145.934 93.9365C144.333 93.0597 142.593 92.5189 140.714 92.3156L140.631 96.9154C142.11 97.1823 143.334 97.463 144.303 97.7562C145.272 98.0494 146.084 98.4781 146.739 99.041C147.392 99.6039 147.712 100.331 147.695 101.221C147.675 102.361 147.031 103.314 145.767 104.076Z" fill="white"/>
<path d="M167.319 104.203L167.361 104.205L167.467 98.287C167.285 108.351 154.309 116.307 138.542 116.022C122.774 115.737 110.095 107.318 110.278 97.2539C110.278 97.2539 110.16 103.77 110.154 104.072C109.987 113.349 122.677 121.128 138.445 121.413C154.212 121.698 167.177 114.382 167.344 105.105C167.35 104.802 167.34 104.502 167.319 104.203Z" fill="#CC282A"/>
<path d="M117.624 99.8689C117.777 91.4414 107.197 84.416 93.9938 84.1773C80.7903 83.9385 69.9629 90.5768 69.8102 99.0043C69.6574 107.432 80.2371 114.457 93.4406 114.696C106.644 114.935 117.472 108.296 117.624 99.8689Z" fill="#F93D40"/>
<path d="M93.3905 117.683C77.6232 117.398 64.9438 108.979 65.1266 98.9151C65.3094 88.8512 78.2851 80.895 94.0523 81.1813C109.82 81.4662 122.499 89.8857 122.316 99.9495C122.133 110.013 109.158 117.97 93.3905 117.683ZM93.9983 84.1727C80.8163 83.9348 69.9674 90.5855 69.8137 98.9994C69.6614 107.413 80.2624 114.453 93.4445 114.691C106.627 114.928 117.475 108.278 117.629 99.8638C117.781 91.4498 107.18 84.4119 93.9983 84.1727Z" fill="#F03033"/>
<path d="M101.243 106.24C99.9773 107.002 98.2908 107.463 96.1847 107.623L96.1418 109.977L92.7549 109.916L92.7964 107.605C91.3135 107.507 89.9385 107.3 88.6715 106.979C87.4031 106.659 86.2982 106.236 85.3552 105.711L86.8521 103.744C88.7601 104.74 90.833 105.308 93.0664 105.447L93.1468 101.038C91.6679 100.771 90.4217 100.483 89.4081 100.175C88.3946 99.8664 87.5499 99.4197 86.8742 98.836C86.1985 98.251 85.8689 97.5001 85.8855 96.5804C85.8994 95.817 86.2109 95.1269 86.8202 94.5088C87.4295 93.8906 88.2741 93.383 89.3569 92.9861C90.4383 92.5892 91.6776 92.3458 93.0748 92.2587L93.1177 89.9062L96.5046 89.9671L96.4617 92.2988C97.7439 92.4205 98.9471 92.6404 100.071 92.9584C101.196 93.2765 102.14 93.6679 102.907 94.134L101.41 96.1005C99.8098 95.2237 98.0693 94.683 96.1903 94.4797L96.1072 99.0794C97.586 99.3464 98.8101 99.6271 99.7793 99.9203C100.749 100.213 101.56 100.642 102.215 101.205C102.869 101.768 103.188 102.495 103.172 103.385C103.151 104.526 102.507 105.48 101.243 106.24ZM90.9479 97.7214C91.4741 98.0353 92.2218 98.3064 93.1924 98.5359L93.2672 94.4451C92.3132 94.5558 91.5613 94.7895 91.0116 95.1463C90.4619 95.5045 90.1836 95.9581 90.1725 96.5099C90.1642 97.0036 90.4217 97.4074 90.9479 97.7214ZM98.1302 104.722C98.6231 104.384 98.8751 103.941 98.8848 103.389C98.8931 102.95 98.655 102.594 98.1731 102.316C97.6912 102.039 96.9864 101.8 96.0601 101.599L95.9909 105.394C96.9241 105.282 97.6372 105.059 98.1302 104.722Z" fill="#CC282A"/>
<path d="M66.8684 98.9468C67.0471 89.0697 79.552 81.2227 94.9218 81.2061C94.6324 81.1951 94.3417 81.1868 94.0495 81.1812C78.2823 80.8964 65.3065 88.8512 65.1237 98.915C64.9424 108.979 77.6218 117.398 93.389 117.683C93.6812 117.689 93.9706 117.69 94.2613 117.69C78.9012 117.118 66.6898 108.824 66.8684 98.9468Z" fill="#FF7678"/>
<path d="M93.9973 84.1715C93.7412 84.1674 93.4878 84.166 93.2344 84.166C106.061 84.6556 116.252 91.5842 116.102 99.835C115.953 108.086 105.516 114.641 92.6819 114.667C92.9353 114.677 93.1901 114.685 93.4448 114.689C106.627 114.927 117.476 108.277 117.629 99.8627C117.78 91.4487 107.179 84.4108 93.9973 84.1715Z" fill="#CC282A"/>
<path d="M90.3206 97.218C90.8468 97.532 91.5945 97.803 92.5652 98.0326L92.6399 93.9418C91.6859 94.0524 90.934 94.2862 90.3843 94.643C89.8346 95.0011 89.5563 95.4548 89.5452 96.0066C89.5355 96.5017 89.7944 96.9055 90.3206 97.218ZM97.5015 104.219C97.9945 103.881 98.2465 103.437 98.2562 102.885C98.2645 102.447 98.0263 102.09 97.5444 101.812C97.0626 101.536 96.3578 101.296 95.4314 101.096L95.3622 104.891C96.2955 104.78 97.0086 104.556 97.5015 104.219ZM100.614 105.738C99.3487 106.5 97.6621 106.961 95.5561 107.121L95.5131 109.475L92.1262 109.414L92.1678 107.103C90.6848 107.005 89.3098 106.798 88.0428 106.477C86.7745 106.158 85.6695 105.734 84.7266 105.209L86.2234 103.242C88.1315 104.238 90.2043 104.806 92.4378 104.945L92.5181 100.536C91.0393 100.269 89.7931 99.9812 88.7795 99.6728C87.7659 99.3644 86.9213 98.9177 86.2455 98.3341C85.5698 97.7491 85.2403 96.9981 85.2569 96.0785C85.2707 95.3151 85.5823 94.625 86.1915 94.0068C86.8008 93.3886 87.6454 92.8811 88.7283 92.4842C89.8097 92.0872 91.049 91.8438 92.4461 91.7567L92.489 89.4043L95.8759 89.4651L95.833 91.7968C97.1152 91.9185 98.3185 92.1384 99.4428 92.4565C100.567 92.7746 101.512 93.166 102.279 93.632L100.782 95.5986C99.1811 94.7218 97.4406 94.1811 95.5616 93.9778L95.4785 98.5775C96.9573 98.8444 98.1814 99.1251 99.1507 99.4183C100.12 99.7115 100.931 100.14 101.586 100.703C102.24 101.266 102.56 101.993 102.543 102.883C102.522 104.024 101.878 104.976 100.614 105.738Z" fill="white"/>
<path d="M122.167 105.865L122.208 105.867L122.315 99.9491C122.132 110.013 109.156 117.969 93.3892 117.684C77.622 117.399 64.9426 108.98 65.1254 98.916C65.1254 98.916 65.0077 105.433 65.0021 105.734C64.8346 115.011 77.5251 122.79 93.2923 123.075C109.06 123.36 122.024 116.044 122.192 106.767C122.197 106.464 122.188 106.164 122.167 105.865Z" fill="#CC282A"/>
<path d="M209.439 95.5759C209.591 87.1484 199.012 80.123 185.808 79.8843C172.605 79.6456 161.777 86.2839 161.624 94.7114C161.472 103.139 172.051 110.164 185.255 110.403C198.458 110.642 209.286 104.003 209.439 95.5759Z" fill="#F93D40"/>
<path d="M185.205 113.39C169.438 113.105 156.758 104.686 156.941 94.6221C157.124 84.5583 170.099 76.6021 185.867 76.8883C201.634 77.1732 214.313 85.5927 214.131 95.6565C213.948 105.72 200.972 113.677 185.205 113.39ZM185.813 79.8797C172.631 79.6418 161.782 86.2925 161.628 94.7065C161.476 103.12 172.077 110.16 185.259 110.398C198.441 110.635 209.29 103.985 209.443 95.5708C209.596 87.1569 198.995 80.119 185.813 79.8797Z" fill="#F03033"/>
<path d="M193.051 101.949C191.786 102.711 190.099 103.172 187.993 103.332L187.95 105.686L184.563 105.625L184.605 103.314C183.122 103.216 181.747 103.009 180.48 102.688C179.212 102.368 178.107 101.945 177.164 101.42L178.661 99.4532C180.569 100.449 182.641 101.017 184.875 101.156L184.955 96.7467C183.476 96.4798 182.23 96.1921 181.217 95.8837C180.203 95.5753 179.358 95.1286 178.683 94.545C178.007 93.96 177.677 93.2091 177.694 92.2894C177.708 91.526 178.019 90.8359 178.629 90.2177C179.238 89.5996 180.083 89.092 181.165 88.6951C182.247 88.2982 183.486 88.0548 184.883 87.9677L184.926 85.6152L188.313 85.6761L188.27 88.0078C189.552 88.1295 190.756 88.3494 191.88 88.6674C193.004 88.9855 193.949 89.3769 194.716 89.843L193.219 91.8095C191.618 90.9327 189.878 90.392 187.999 90.1887L187.916 94.7884C189.394 95.0553 190.619 95.3361 191.588 95.6293C192.557 95.9225 193.368 96.3512 194.023 96.914C194.677 97.4769 194.997 98.2043 194.98 99.0936C194.959 100.235 194.316 101.189 193.051 101.949ZM182.756 93.4304C183.283 93.7443 184.03 94.0154 185.001 94.2449L185.076 90.1541C184.122 90.2648 183.37 90.4985 182.82 90.8553C182.27 91.2135 181.992 91.6671 181.981 92.2189C181.973 92.7126 182.23 93.1164 182.756 93.4304ZM189.939 100.431C190.432 100.093 190.684 99.6495 190.693 99.0977C190.702 98.6593 190.463 98.3025 189.982 98.0246C189.5 97.748 188.795 97.5087 187.869 97.3082L187.799 101.103C188.733 100.991 189.446 100.768 189.939 100.431Z" fill="#CC282A"/>
<path d="M158.683 94.6538C158.861 84.7767 171.366 76.9298 186.736 76.9132C186.447 76.9021 186.156 76.8938 185.864 76.8883C170.097 76.6034 157.121 84.5582 156.938 94.622C156.757 104.686 169.436 113.105 185.203 113.39C185.495 113.396 185.785 113.397 186.076 113.397C170.715 112.825 158.504 104.531 158.683 94.6538Z" fill="#FF7678"/>
<path d="M185.812 79.8805C185.555 79.8764 185.302 79.875 185.049 79.875C197.875 80.3646 208.066 87.2932 207.916 95.544C207.767 103.795 197.331 110.35 184.496 110.376C184.75 110.386 185.004 110.394 185.259 110.398C198.441 110.636 209.29 103.986 209.444 95.5716C209.595 87.1577 198.994 80.1198 185.812 79.8805Z" fill="#CC282A"/>
<path d="M182.137 92.927C182.663 93.241 183.411 93.512 184.381 93.7416L184.456 89.6508C183.502 89.7614 182.75 89.9951 182.201 90.3519C181.651 90.7101 181.373 91.1637 181.361 91.7155C181.352 92.2106 181.611 92.6145 182.137 92.927ZM189.318 99.9276C189.811 99.5901 190.063 99.1462 190.072 98.5944C190.081 98.156 189.843 97.7992 189.361 97.5212C188.879 97.2446 188.174 97.0054 187.248 96.8049L187.178 100.6C188.112 100.489 188.825 100.265 189.318 99.9276ZM192.43 101.447C191.165 102.209 189.478 102.67 187.372 102.83L187.329 105.184L183.942 105.123L183.984 102.812C182.501 102.714 181.126 102.507 179.859 102.186C178.591 101.866 177.486 101.443 176.543 100.918L178.04 98.9512C179.948 99.9469 182.021 100.515 184.254 100.654L184.334 96.2448C182.855 95.9778 181.609 95.6902 180.596 95.3818C179.582 95.0734 178.737 94.6267 178.062 94.0431C177.386 93.4581 177.057 92.7071 177.073 91.7875C177.087 91.0241 177.399 90.334 178.008 89.7158C178.617 89.0976 179.462 88.5901 180.544 88.1931C181.626 87.7962 182.865 87.5528 184.262 87.4657L184.305 85.1133L187.692 85.1741L187.649 87.5058C188.931 87.6275 190.135 87.8474 191.259 88.1655C192.383 88.4836 193.328 88.8749 194.095 89.341L192.598 91.3076C190.997 90.4308 189.257 89.89 187.378 89.6867L187.295 94.2865C188.774 94.5534 189.998 94.8341 190.967 95.1273C191.936 95.4205 192.748 95.8492 193.403 96.4121C194.056 96.975 194.376 97.7024 194.359 98.5916C194.339 99.7326 193.695 100.685 192.43 101.447Z" fill="white"/>
<path d="M213.981 101.578L214.023 101.58L214.129 95.662C213.946 105.726 200.971 113.682 185.203 113.397C169.436 113.112 156.757 104.693 156.94 94.6289C156.94 94.6289 156.822 101.145 156.816 101.447C156.649 110.724 169.339 118.503 185.107 118.788C200.874 119.073 213.838 111.757 214.006 102.48C214.012 102.177 214.002 101.877 213.981 101.578Z" fill="#CC282A"/>
<path d="M178.699 86.0329C178.851 77.6054 168.272 70.5801 155.068 70.3413C141.865 70.1026 131.037 76.7409 130.884 85.1684C130.732 93.5959 141.311 100.621 154.515 100.86C167.718 101.099 178.546 94.4604 178.699 86.0329Z" fill="#F93D40"/>
<path d="M154.463 103.847C138.696 103.562 126.017 95.143 126.199 85.0791C126.382 75.0153 139.358 67.0591 155.125 67.3454C170.892 67.6303 183.572 76.0498 183.389 86.1136C183.206 96.1774 170.23 104.134 154.463 103.847ZM155.071 70.3367C141.889 70.0989 131.04 76.7495 130.886 85.1635C130.734 93.5774 141.335 100.617 154.517 100.855C167.699 101.092 178.548 94.4418 178.702 86.0278C178.854 77.6139 168.253 70.576 155.071 70.3367Z" fill="#F03033"/>
<path d="M162.314 92.4045C161.048 93.1665 159.362 93.627 157.256 93.7875L157.213 96.1413L153.826 96.0804L153.867 93.7695C152.384 93.6713 151.009 93.4638 149.742 93.143C148.474 92.8235 147.369 92.4003 146.426 91.8748L147.923 89.9082C149.831 90.904 151.904 91.4724 154.137 91.6107L154.218 87.2018C152.739 86.9349 151.493 86.6472 150.479 86.3388C149.465 86.0304 148.621 85.5837 147.945 85.0001C147.269 84.4151 146.94 83.6642 146.956 82.7445C146.97 81.9811 147.282 81.291 147.891 80.6728C148.5 80.0546 149.345 79.5471 150.428 79.1502C151.509 78.7533 152.748 78.5099 154.146 78.4227L154.188 76.0703L157.575 76.1312L157.532 78.4628C158.815 78.5845 160.018 78.8044 161.142 79.1225C162.267 79.4406 163.211 79.832 163.978 80.298L162.481 82.2646C160.881 81.3878 159.14 80.8471 157.261 80.6438L157.178 85.2435C158.657 85.5104 159.881 85.7912 160.85 86.0843C161.819 86.3775 162.631 86.8063 163.286 87.3691C163.939 87.932 164.259 88.6594 164.243 89.5487C164.222 90.6896 163.578 91.6439 162.314 92.4045ZM152.019 83.8854C152.545 84.1994 153.293 84.4704 154.263 84.7L154.338 80.6092C153.384 80.7198 152.632 80.9536 152.082 81.3104C151.533 81.6685 151.254 82.1222 151.243 82.674C151.235 83.1677 151.493 83.5715 152.019 83.8854ZM159.201 90.886C159.694 90.5486 159.946 90.1046 159.956 89.5528C159.964 89.1144 159.726 88.7576 159.244 88.4796C158.762 88.203 158.057 87.9638 157.131 87.7633L157.062 91.5581C157.995 91.4461 158.708 91.2234 159.201 90.886Z" fill="#CC282A"/>
<path d="M127.943 85.1128C128.121 75.2357 140.626 67.3888 155.996 67.3722C155.707 67.3611 155.416 67.3528 155.124 67.3473C139.356 67.0624 126.381 75.0172 126.198 85.081C126.017 95.1448 138.696 103.564 154.463 103.849C154.755 103.855 155.045 103.856 155.336 103.856C139.975 103.284 127.764 94.9899 127.943 85.1128Z" fill="#FF7678"/>
<path d="M155.072 70.3376C154.815 70.3334 154.562 70.332 154.309 70.332C167.135 70.8216 177.326 77.7502 177.176 86.001C177.027 94.2518 166.591 100.807 153.756 100.833C154.009 100.843 154.264 100.851 154.519 100.855C167.701 101.093 178.55 94.4426 178.704 86.0287C178.855 77.6147 168.254 70.5768 155.072 70.3376Z" fill="#CC282A"/>
<path d="M151.397 83.386C151.924 83.6999 152.671 83.971 153.642 84.2006L153.717 80.1098C152.763 80.2204 152.011 80.4541 151.461 80.8109C150.911 81.1691 150.633 81.6227 150.622 82.1745C150.612 82.6696 150.871 83.0735 151.397 83.386ZM158.578 90.3866C159.071 90.0491 159.323 89.6052 159.333 89.0534C159.341 88.615 159.103 88.2582 158.621 87.9802C158.139 87.7036 157.435 87.4644 156.508 87.2638L156.439 91.0587C157.372 90.948 158.085 90.724 158.578 90.3866ZM161.691 91.9064C160.425 92.6685 158.739 93.129 156.633 93.2894L156.59 95.6432L153.203 95.5824L153.244 93.2714C151.762 93.1732 150.387 92.9658 149.12 92.6449C147.851 92.3255 146.746 91.9023 145.803 91.3768L147.3 89.4102C149.208 90.4059 151.281 90.9743 153.515 91.1126L153.595 86.7037C152.116 86.4368 150.87 86.1492 149.856 85.8408C148.843 85.5324 147.998 85.0857 147.322 84.5021C146.647 83.9171 146.317 83.1661 146.334 82.2464C146.347 81.483 146.659 80.793 147.268 80.1748C147.878 79.5566 148.722 79.049 149.805 78.6521C150.886 78.2552 152.126 78.0118 153.523 77.9247L153.566 75.5723L156.953 75.6331L156.91 77.9648C158.192 78.0865 159.395 78.3064 160.52 78.6245C161.644 78.9425 162.588 79.3339 163.355 79.8L161.859 81.7666C160.258 80.8898 158.517 80.349 156.638 80.1457L156.555 84.7455C158.034 85.0124 159.258 85.2931 160.227 85.5863C161.197 85.8795 162.008 86.3082 162.663 86.8711C163.317 87.4339 163.636 88.1614 163.62 89.0506C163.599 90.1916 162.955 91.1444 161.691 91.9064Z" fill="white"/>
<path d="M183.241 92.0314L183.283 92.0328L183.389 86.1151C183.206 96.1789 170.231 104.135 154.463 103.85C138.696 103.565 126.017 95.1459 126.2 85.082C126.2 85.082 126.082 91.5986 126.076 91.9C125.909 101.177 138.599 108.956 154.367 109.241C170.134 109.526 183.098 102.21 183.266 92.9331C183.272 92.6302 183.262 92.3301 183.241 92.0314Z" fill="#CC282A"/>
<path d="M133.546 87.6951C133.699 79.2676 123.119 72.2422 109.916 72.0034C96.7122 71.7647 85.8848 78.403 85.732 86.8305C85.5793 95.258 96.159 102.283 109.363 102.522C122.566 102.761 133.393 96.1226 133.546 87.6951Z" fill="#F93D40"/>
<path d="M109.311 105.509C93.5436 105.225 80.8642 96.8051 81.047 86.7412C81.2298 76.6774 94.2055 68.7212 109.973 69.0075C125.74 69.2924 138.419 77.7119 138.237 87.7757C138.054 97.8395 125.078 105.796 109.311 105.509ZM109.919 71.9988C96.7367 71.761 85.8878 78.4116 85.7341 86.8256C85.5818 95.2395 96.1828 102.279 109.365 102.517C122.547 102.755 133.396 96.1039 133.55 87.6899C133.702 79.276 123.101 72.2381 109.919 71.9988Z" fill="#F03033"/>
<path d="M117.161 94.0666C115.896 94.8286 114.209 95.2891 112.103 95.4496L112.06 97.8034L108.673 97.7425L108.715 95.4316C107.232 95.3334 105.857 95.1259 104.59 94.8051C103.322 94.4856 102.217 94.0625 101.274 93.5369L102.771 91.5704C104.679 92.5661 106.751 93.1345 108.985 93.2728L109.065 88.8639C107.586 88.597 106.34 88.3093 105.327 88.0009C104.313 87.6925 103.468 87.2458 102.793 86.6622C102.117 86.0772 101.787 85.3263 101.804 84.4066C101.818 83.6432 102.129 82.9531 102.739 82.3349C103.348 81.7167 104.193 81.2092 105.275 80.8123C106.357 80.4154 107.596 80.172 108.993 80.0848L109.036 77.7324L112.423 77.7933L112.38 80.1249C113.662 80.2466 114.866 80.4665 115.99 80.7846C117.114 81.1027 118.059 81.4941 118.826 81.9601L117.329 83.9267C115.728 83.0499 113.988 82.5092 112.109 82.3059L112.026 86.9056C113.504 87.1725 114.729 87.4533 115.698 87.7465C116.667 88.0396 117.478 88.4684 118.133 89.0312C118.787 89.5941 119.107 90.3215 119.09 91.2108C119.069 92.3517 118.426 93.306 117.161 94.0666ZM106.866 85.5475C107.393 85.8615 108.14 86.1325 109.111 86.3621L109.186 82.2713C108.232 82.3819 107.48 82.6157 106.93 82.9725C106.38 83.3307 106.102 83.7843 106.091 84.3361C106.083 84.8298 106.34 85.2336 106.866 85.5475ZM114.049 92.5481C114.542 92.2107 114.794 91.7667 114.803 91.2149C114.812 90.7765 114.573 90.4197 114.092 90.1418C113.61 89.8652 112.905 89.6259 111.979 89.4254L111.909 93.2202C112.843 93.1082 113.556 92.8855 114.049 92.5481Z" fill="#CC282A"/>
<path d="M82.7903 86.7749C82.9689 76.8978 95.4739 69.0509 110.844 69.0343C110.554 69.0232 110.264 69.0149 109.971 69.0094C94.2041 68.7245 81.2284 76.6793 81.0456 86.7431C80.8642 96.8069 93.5436 105.226 109.311 105.511C109.603 105.517 109.892 105.518 110.183 105.518C94.8231 104.946 82.6117 96.652 82.7903 86.7749Z" fill="#FF7678"/>
<path d="M109.919 71.9997C109.663 71.9955 109.41 71.9941 109.156 71.9941C121.982 72.4837 132.174 79.4124 132.024 87.6631C131.875 95.9139 121.438 102.469 108.604 102.495C108.857 102.505 109.112 102.513 109.367 102.518C122.549 102.755 133.398 96.1047 133.551 87.6908C133.702 79.2768 123.101 72.2389 109.919 71.9997Z" fill="#CC282A"/>
<path d="M106.245 85.0481C106.771 85.3621 107.519 85.6331 108.49 85.8627L108.564 81.7719C107.61 81.8825 106.858 82.1162 106.309 82.473C105.759 82.8312 105.481 83.2848 105.47 83.8366C105.46 84.3317 105.719 84.7356 106.245 85.0481ZM113.426 92.0487C113.919 91.7112 114.171 91.2673 114.181 90.7155C114.189 90.2771 113.951 89.9203 113.469 89.6423C112.987 89.3657 112.282 89.1265 111.356 88.9259L111.287 92.7208C112.22 92.6102 112.933 92.3861 113.426 92.0487ZM116.539 93.5686C115.273 94.3306 113.587 94.7911 111.48 94.9515L111.438 97.3053L108.051 97.2445L108.092 94.9335C106.609 94.8353 105.234 94.6279 103.967 94.3071C102.699 93.9876 101.594 93.5644 100.651 93.0389L102.148 91.0723C104.056 92.068 106.129 92.6364 108.362 92.7747L108.443 88.3658C106.964 88.0989 105.718 87.8113 104.704 87.5029C103.69 87.1945 102.846 86.7478 102.17 86.1642C101.494 85.5792 101.165 84.8282 101.181 83.9086C101.195 83.1452 101.507 82.4551 102.116 81.8369C102.725 81.2187 103.57 80.7111 104.653 80.3142C105.734 79.9173 106.973 79.6739 108.371 79.5868L108.413 77.2344L111.8 77.2952L111.757 79.6269C113.04 79.7486 114.243 79.9685 115.367 80.2866C116.492 80.6047 117.436 80.996 118.203 81.4621L116.706 83.4287C115.106 82.5519 113.365 82.0111 111.486 81.8078L111.403 86.4076C112.882 86.6745 114.106 86.9552 115.075 87.2484C116.044 87.5416 116.856 87.9703 117.511 88.5332C118.164 89.0961 118.484 89.8235 118.468 90.7127C118.447 91.8537 117.803 92.8065 116.539 93.5686Z" fill="white"/>
<path d="M138.089 93.6935L138.13 93.6949L138.237 87.7772C138.054 97.841 125.078 105.797 109.311 105.512C93.5439 105.227 80.8645 96.808 81.0472 86.7441C81.0472 86.7441 80.9295 93.2607 80.924 93.5622C80.7565 102.839 93.447 110.618 109.214 110.903C124.981 111.188 137.946 103.872 138.114 94.5952C138.119 94.2924 138.109 93.9923 138.089 93.6935Z" fill="#CC282A"/>
<path d="M186.529 128.316C186.641 117.995 178.867 109.544 169.163 109.438C159.46 109.332 151.503 117.613 151.39 127.933C151.278 138.253 159.052 146.705 168.756 146.81C178.459 146.916 186.416 138.636 186.529 128.316Z" fill="#CC282A"/>
<path d="M181.874 128.317C181.969 119.689 175.47 112.623 167.357 112.533C159.244 112.444 152.591 119.366 152.496 127.995C152.401 136.623 158.9 143.689 167.013 143.779C175.125 143.868 181.779 136.946 181.874 128.317Z" fill="#F93D40"/>
<path d="M161.096 145.694C152.008 142.137 147.345 131.375 150.702 121.703C154.059 112.032 164.184 107.058 173.273 110.614C182.361 114.171 187.024 124.933 183.667 134.604C180.31 144.276 170.185 149.251 161.096 145.694ZM172.274 113.49C164.676 110.517 156.211 114.675 153.404 122.76C150.597 130.847 154.496 139.844 162.094 142.818C169.693 145.792 178.158 141.633 180.965 133.547C183.772 125.462 179.873 116.465 172.274 113.49Z" fill="#F03033"/>
<path d="M151.707 122.096C155.002 112.604 164.817 107.637 173.772 110.82C173.607 110.749 173.44 110.68 173.273 110.614C164.184 107.058 154.059 112.032 150.702 121.703C147.346 131.374 152.008 142.136 161.097 145.693C161.266 145.759 161.434 145.82 161.603 145.881C152.844 142.131 148.413 131.588 151.707 122.096Z" fill="#FF7678"/>
<path d="M172.276 113.49C172.129 113.432 171.981 113.379 171.833 113.326C179.143 116.469 182.839 125.274 180.087 133.203C177.335 141.132 169.142 145.284 161.66 142.638C161.804 142.7 161.949 142.761 162.097 142.818C169.696 145.792 178.161 141.633 180.967 133.547C183.773 125.461 179.875 116.464 172.276 113.49Z" fill="#CC282A"/>
<path d="M171.838 135.192C171.068 135.963 170.033 136.427 168.734 136.583L168.746 138.976L166.65 138.904L166.638 136.554C165.719 136.451 164.865 136.235 164.076 135.905C163.287 135.577 162.596 135.144 162.004 134.605L162.897 132.61C164.094 133.628 165.385 134.211 166.769 134.359L166.745 129.874C165.825 129.598 165.05 129.303 164.418 128.986C163.786 128.67 163.256 128.213 162.828 127.616C162.401 127.019 162.184 126.254 162.179 125.32C162.174 124.544 162.356 123.842 162.722 123.215C163.089 122.588 163.603 122.074 164.266 121.672C164.928 121.272 165.69 121.028 166.553 120.942L166.54 118.549L168.636 118.621L168.648 120.993C169.444 121.121 170.191 121.348 170.892 121.673C171.592 121.999 172.183 122.401 172.665 122.876L171.772 124.872C170.768 123.975 169.682 123.421 168.517 123.208L168.542 127.887C169.462 128.163 170.223 128.451 170.828 128.753C171.432 129.054 171.941 129.492 172.355 130.066C172.768 130.641 172.978 131.381 172.983 132.286C172.989 133.453 172.608 134.421 171.838 135.192ZM165.33 126.498C165.66 126.818 166.128 127.096 166.731 127.332L166.708 123.171C166.12 123.281 165.659 123.517 165.325 123.879C164.991 124.241 164.826 124.703 164.83 125.263C164.833 125.766 164.999 126.177 165.33 126.498ZM169.888 133.638C170.187 133.296 170.336 132.845 170.333 132.285C170.33 131.84 170.177 131.475 169.875 131.191C169.572 130.908 169.132 130.663 168.556 130.456L168.577 134.316C169.152 134.206 169.589 133.979 169.888 133.638Z" fill="#CC282A"/>
<path d="M164.933 125.985C165.264 126.305 165.73 126.584 166.335 126.82L166.312 122.659C165.723 122.768 165.262 123.004 164.929 123.366C164.595 123.729 164.43 124.19 164.433 124.75C164.437 125.254 164.604 125.665 164.933 125.985ZM169.493 133.127C169.792 132.785 169.94 132.333 169.938 131.773C169.935 131.328 169.782 130.964 169.479 130.68C169.177 130.397 168.737 130.151 168.16 129.944L168.181 133.804C168.756 133.694 169.193 133.468 169.493 133.127ZM171.443 134.68C170.673 135.451 169.638 135.916 168.338 136.071L168.351 138.465L166.255 138.392L166.242 136.042C165.324 135.939 164.47 135.723 163.681 135.394C162.891 135.065 162.201 134.632 161.609 134.094L162.502 132.098C163.699 133.117 164.99 133.699 166.374 133.848L166.349 129.363C165.43 129.087 164.654 128.791 164.022 128.474C163.39 128.159 162.86 127.701 162.433 127.105C162.005 126.508 161.789 125.742 161.783 124.808C161.779 124.032 161.96 123.33 162.327 122.703C162.694 122.076 163.207 121.562 163.87 121.161C164.532 120.76 165.295 120.517 166.157 120.431L166.144 118.037L168.24 118.109L168.253 120.481C169.048 120.61 169.796 120.836 170.496 121.162C171.196 121.487 171.788 121.889 172.27 122.365L171.377 124.36C170.372 123.464 169.286 122.909 168.122 122.697L168.147 127.375C169.066 127.651 169.828 127.94 170.432 128.241C171.036 128.542 171.545 128.98 171.96 129.554C172.374 130.129 172.583 130.869 172.589 131.774C172.594 132.941 172.212 133.909 171.443 134.68Z" fill="white"/>
<path d="M73.2155 123.215C78.1161 114.913 76.722 104.645 70.1016 100.281C63.4813 95.9163 54.1418 99.1083 49.2412 107.41C44.3406 115.712 45.7348 125.98 52.3551 130.345C58.9754 134.709 68.3149 131.517 73.2155 123.215Z" fill="#F03033"/>
<path d="M71.0827 100.874C72.2615 102.707 72.622 105.318 73.0207 107.904C74.4654 117.28 69.4623 127.587 61.8662 130.878C58.5225 132.328 55.2263 132.177 52.4593 130.758C52.4667 130.872 56.3903 134.794 60.5576 134.575C65.2075 134.329 71.7102 130.566 74.6997 123.236C78.8238 113.127 75.5801 107.54 75.0608 106.278C74.0624 103.856 71.162 100.874 71.0827 100.874Z" fill="#CC282A"/>
<path d="M71.3743 121.988C75.4022 115.086 74.1243 106.501 68.52 102.814C62.9158 99.1264 55.1075 101.733 51.0796 108.635C47.0517 115.538 48.3296 124.122 53.9339 127.81C59.5381 131.497 67.3464 128.891 71.3743 121.988Z" fill="#F93D40"/>
<path d="M64.0009 132.073C56.602 135.244 49.3405 130.306 47.8126 121.065C46.2853 111.825 51.0607 101.727 58.4596 98.5557C65.8585 95.3849 73.12 100.323 74.6479 109.563C76.1758 118.803 71.3992 128.901 64.0009 132.073ZM58.9136 101.302C52.728 103.954 48.7352 112.396 50.0122 120.122C51.2893 127.848 57.3614 131.977 63.5463 129.325C69.732 126.674 73.7254 118.231 72.4477 110.505C71.1706 102.779 65.0998 98.6515 58.9136 101.302Z" fill="#F03033"/>
<path d="M65.6732 119.777C65.2158 120.731 64.5191 121.504 63.5829 122.098L63.9324 124.218L62.3779 124.887L62.0341 122.804C61.3431 123.033 60.6827 123.14 60.0549 123.123C59.4259 123.107 58.8558 122.964 58.3441 122.693L58.7187 120.61C59.7453 121.096 60.779 121.162 61.82 120.81L61.1654 116.837C60.4489 116.913 59.8355 116.922 59.3252 116.862C58.8149 116.802 58.3594 116.582 57.9599 116.202C57.5599 115.821 57.2919 115.217 57.1555 114.39C57.0424 113.703 57.0756 113.017 57.2571 112.332C57.438 111.647 57.7439 111.012 58.1749 110.424C58.6059 109.836 59.1326 109.354 59.7563 108.977L59.4074 106.857L60.9619 106.188L61.3083 108.289C61.9125 108.125 62.4953 108.065 63.058 108.11C63.62 108.154 64.1129 108.304 64.5359 108.558L64.1613 110.642C63.2934 110.197 62.4149 110.084 61.5268 110.303L62.2106 114.448C62.9271 114.372 63.5292 114.361 64.0174 114.418C64.5051 114.474 64.9429 114.685 65.3295 115.05C65.7161 115.416 65.9755 116 66.1077 116.802C66.2745 117.831 66.1306 118.824 65.6732 119.777ZM59.6425 114.332C59.9317 114.502 60.3148 114.585 60.7936 114.584L60.1854 110.897C59.7671 111.2 59.4609 111.57 59.2669 112.008C59.0728 112.447 59.0161 112.913 59.0987 113.41C59.1728 113.856 59.3538 114.164 59.6425 114.332ZM64.0159 119.079C64.1879 118.671 64.2334 118.219 64.1509 117.721C64.0858 117.327 63.9213 117.057 63.6585 116.911C63.395 116.765 63.036 116.701 62.582 116.719L63.1457 120.138C63.5537 119.84 63.8434 119.487 64.0159 119.079Z" fill="#CC282A"/>
<path d="M48.3845 121.049C46.9265 112.159 51.4018 102.456 58.405 99.1574C58.2712 99.2099 58.1375 99.2636 58.0037 99.3208C50.7724 102.433 46.0986 112.335 47.5845 121.392C49.0698 130.45 56.1619 135.287 63.3926 132.174C63.5265 132.117 63.6592 132.056 63.7913 131.994C56.7015 134.762 49.8431 129.939 48.3845 121.049Z" fill="#FF7678"/>
<path d="M59.4179 101.221C59.3009 101.272 59.1845 101.324 59.0692 101.379C64.9919 99.0781 70.7172 103.11 71.9356 110.537C73.1534 117.964 69.4187 126.068 63.5728 128.833C63.6903 128.788 63.8072 128.741 63.9242 128.69C69.97 126.087 73.8782 117.808 72.6356 110.235C71.3929 102.662 65.4643 98.6188 59.4179 101.221Z" fill="#CC282A"/>
<path d="M59.3159 114.065C59.6051 114.235 59.9882 114.318 60.467 114.317L59.8588 110.63C59.4405 110.933 59.1343 111.304 58.9402 111.741C58.7461 112.18 58.6895 112.646 58.772 113.144C58.8461 113.59 59.0266 113.897 59.3159 114.065ZM63.6893 118.813C63.8612 118.405 63.9068 117.953 63.8242 117.456C63.7592 117.062 63.5946 116.791 63.3318 116.645C63.0684 116.5 62.7094 116.436 62.2559 116.453L62.8196 119.872C63.2271 119.574 63.5167 119.221 63.6893 118.813ZM65.3466 119.511C64.8892 120.466 64.1924 121.239 63.2563 121.832L63.6058 123.953L62.0512 124.621L61.708 122.539C61.017 122.768 60.3567 122.875 59.7289 122.858C59.0999 122.842 58.5298 122.699 58.018 122.429L58.3921 120.344C59.4186 120.83 60.4523 120.897 61.4933 120.544L60.8387 116.572C60.1222 116.648 59.5088 116.656 58.9985 116.596C58.4882 116.537 58.0327 116.316 57.6333 115.936C57.2332 115.555 56.9653 114.952 56.8289 114.124C56.7157 113.437 56.749 112.751 56.9304 112.066C57.1113 111.382 57.4172 110.746 57.8482 110.158C58.2792 109.571 58.8059 109.088 59.4297 108.711L59.0807 106.591L60.6353 105.923L60.9816 108.023C61.5858 107.86 62.1687 107.8 62.7313 107.844C63.2934 107.889 63.7862 108.038 64.2093 108.293L63.8346 110.377C62.9668 109.932 62.0882 109.818 61.2002 110.037L61.884 114.182C62.6004 114.106 63.2025 114.096 63.6908 114.152C64.1785 114.208 64.6162 114.419 65.0028 114.784C65.3894 115.15 65.6488 115.734 65.781 116.536C65.9478 117.566 65.8034 118.558 65.3466 119.511Z" fill="white"/>
<path d="M207.936 118.147C207.876 128.2 212.866 136.387 219.081 136.433C225.296 136.48 230.383 128.368 230.443 118.315C230.503 108.262 225.513 100.075 219.298 100.028C213.083 99.9818 207.996 108.094 207.936 118.147Z" fill="#F03033"/>
<path d="M216.609 135.976C215.082 135.175 213.859 133.236 212.618 131.34C208.118 124.466 207.932 112.924 212.204 105.609C214.085 102.389 216.521 100.519 219.043 100.018C218.995 99.9285 214.716 99.0609 211.787 101.764C208.519 104.779 205.21 111.822 205.753 119.687C206.501 130.535 210.904 133.189 211.744 133.917C213.358 135.315 216.552 136.024 216.609 135.976Z" fill="#CC282A"/>
<path d="M209.782 118.161C209.732 126.566 213.903 133.411 219.099 133.45C224.295 133.488 228.548 126.706 228.598 118.301C228.648 109.896 224.477 103.051 219.281 103.012C214.085 102.973 209.832 109.756 209.782 118.161Z" fill="#F93D40"/>
<path d="M211.024 105.766C215.296 98.4512 222.433 98.0927 226.933 104.966C231.433 111.839 231.62 123.382 227.347 130.696C223.074 138.011 215.937 138.369 211.437 131.497C206.937 124.624 206.752 113.081 211.024 105.766ZM226.009 128.653C229.581 122.538 229.426 112.888 225.663 107.141C221.901 101.394 215.933 101.694 212.362 107.809C208.79 113.925 208.945 123.576 212.708 129.322C216.47 135.069 222.437 134.769 226.009 128.653Z" fill="#F03033"/>
<path d="M214.131 117.22C214.119 116.103 214.354 114.99 214.836 113.879L213.783 112.271L214.701 110.7L215.735 112.278C216.169 111.639 216.625 111.124 217.102 110.737C217.58 110.348 218.062 110.107 218.547 110.013L219.042 112.052C218.09 112.289 217.289 112.893 216.639 113.863L218.611 116.875C219.12 116.351 219.577 115.951 219.983 115.676C220.388 115.401 220.812 115.301 221.254 115.373C221.696 115.446 222.122 115.796 222.532 116.423C222.873 116.944 223.104 117.558 223.223 118.265C223.342 118.972 223.349 119.716 223.245 120.499C223.14 121.283 222.924 122.036 222.597 122.761L223.649 124.368L222.731 125.94L221.688 124.347C221.295 124.875 220.88 125.3 220.441 125.621C220.003 125.942 219.577 126.129 219.165 126.179L218.669 124.14C219.487 123.969 220.188 123.505 220.774 122.748L218.716 119.606C218.206 120.13 217.758 120.525 217.371 120.788C216.984 121.052 216.576 121.149 216.15 121.082C215.724 121.013 215.312 120.675 214.913 120.067C214.405 119.285 214.143 118.335 214.131 117.22ZM220.687 118.064C220.407 118.102 220.088 118.275 219.729 118.583L221.559 121.377C221.76 120.848 221.852 120.332 221.835 119.83C221.817 119.327 221.686 118.888 221.439 118.512C221.217 118.174 220.967 118.025 220.687 118.064ZM215.635 116.763C215.658 117.225 215.793 117.645 216.04 118.021C216.235 118.32 216.46 118.448 216.711 118.406C216.963 118.363 217.257 118.189 217.591 117.883L215.894 115.291C215.699 115.81 215.613 116.3 215.635 116.763Z" fill="#CC282A"/>
<path d="M226.461 105.774C230.878 112.52 231.138 123.764 227.107 131.094C227.187 130.963 227.268 130.831 227.347 130.696C231.62 123.381 231.434 111.838 226.934 104.965C222.434 98.0914 215.296 98.4503 211.024 105.765C210.945 105.9 210.868 106.038 210.792 106.176C215.087 99.2493 222.044 99.0279 226.461 105.774Z" fill="#FF7678"/>
<path d="M226.009 128.652C226.077 128.533 226.145 128.413 226.212 128.292C222.619 134.068 216.81 134.248 213.12 128.613C209.431 122.977 209.21 113.588 212.571 107.459C212.5 107.574 212.43 107.689 212.361 107.808C208.789 113.924 208.944 123.575 212.707 129.321C216.47 135.067 222.436 134.767 226.009 128.652Z" fill="#CC282A"/>
<path d="M221.078 118.106C220.798 118.145 220.479 118.318 220.121 118.625L221.951 121.419C222.152 120.89 222.244 120.374 222.226 119.873C222.209 119.37 222.077 118.93 221.83 118.554C221.608 118.216 221.358 118.066 221.078 118.106ZM216.026 116.804C216.049 117.266 216.184 117.686 216.431 118.062C216.626 118.361 216.851 118.49 217.102 118.447C217.354 118.404 217.648 118.23 217.982 117.925L216.285 115.333C216.09 115.851 216.004 116.341 216.026 116.804ZM214.522 117.261C214.51 116.145 214.745 115.031 215.227 113.92L214.174 112.313L215.092 110.741L216.125 112.319C216.559 111.679 217.015 111.165 217.492 110.778C217.971 110.389 218.452 110.148 218.937 110.054L219.433 112.094C218.481 112.331 217.68 112.934 217.03 113.904L219.002 116.916C219.511 116.392 219.968 115.992 220.374 115.717C220.779 115.443 221.203 115.342 221.645 115.414C222.087 115.487 222.513 115.837 222.923 116.464C223.264 116.985 223.495 117.599 223.614 118.306C223.733 119.013 223.74 119.758 223.636 120.541C223.531 121.324 223.315 122.077 222.988 122.802L224.04 124.409L223.122 125.981L222.079 124.389C221.686 124.916 221.271 125.341 220.832 125.663C220.394 125.984 219.968 126.17 219.556 126.221L219.06 124.181C219.878 124.01 220.579 123.546 221.165 122.79L219.107 119.648C218.597 120.172 218.149 120.566 217.762 120.829C217.375 121.093 216.967 121.191 216.541 121.123C216.115 121.054 215.703 120.716 215.304 120.108C214.796 119.326 214.534 118.377 214.522 117.261Z" fill="white"/>
<defs>
<filter id="filter0_f_1171_20698" x="19.0005" y="0" width="244" height="194" filterUnits="userSpaceOnUse" color-interpolation-filters="sRGB">
<feFlood flood-opacity="0" result="BackgroundImageFix"/>
<feBlend mode="normal" in="SourceGraphic" in2="BackgroundImageFix" result="shape"/>
<feGaussianBlur stdDeviation="28.5" result="effect1_foregroundBlur_1171_20698"/>
</filter>
</defs>
</svg>
