<svg width="16" height="16" viewBox="0 0 16 16" fill="none" xmlns="http://www.w3.org/2000/svg">
<g clip-path="url(#clip0_260_22180)">
<path d="M8 16C12.4183 16 16 12.4183 16 8C16 3.58172 12.4183 0 8 0C3.58172 0 0 3.58172 0 8C0 12.4183 3.58172 16 8 16Z" fill="#F03033"/>
<path d="M7.99999 14.7895C11.7498 14.7895 14.7895 11.7498 14.7895 7.99999C14.7895 4.25023 11.7498 1.21045 7.99999 1.21045C4.25023 1.21045 1.21045 4.25023 1.21045 7.99999C1.21045 11.7498 4.25023 14.7895 7.99999 14.7895Z" fill="#F93D40"/>
<path d="M11.5523 2.2052C12.2283 3.2607 12.6204 4.51575 12.6204 5.86227C12.6204 9.61207 9.58061 12.6518 5.83082 12.6518C4.52864 12.6518 3.31214 12.2849 2.27856 11.6492C3.48524 13.5329 5.59674 14.7817 8.00001 14.7817C11.7498 14.7817 14.7896 11.742 14.7896 7.99216C14.7896 5.54454 13.4944 3.39978 11.5523 2.2052Z" fill="#CC282A"/>
<path d="M2.39972 8.62133C2.39972 5.31122 5.08293 2.628 8.39304 2.628C10.3279 2.628 12.0481 3.54492 13.1439 4.96778C12.1091 3.171 10.1694 1.96155 7.94706 1.96155C4.63695 1.96155 1.95374 4.64476 1.95374 7.95487C1.95374 9.33011 2.41736 10.597 3.19619 11.6084C2.68974 10.729 2.39972 9.70882 2.39972 8.62133Z" fill="#FF7678"/>
<path d="M8.56037 3.6178V4.48281C8.90758 4.53874 9.19155 4.65339 9.41202 4.82699C9.63274 5.0006 9.84289 5.26693 10.0432 5.62573L9.18273 6.10674C8.9237 5.63607 8.58531 5.40073 8.1678 5.40073C7.90878 5.40073 7.6941 5.47733 7.52351 5.63027C7.35293 5.78322 7.26751 5.97446 7.26751 6.204C7.26751 6.41288 7.33655 6.58649 7.47489 6.72482C7.61019 6.86013 7.88383 7.02063 8.2958 7.20583C8.65183 7.36759 8.94588 7.52003 9.17844 7.66265C9.41076 7.80526 9.58588 7.94284 9.70355 8.07537C10.0359 8.43443 10.2022 8.86832 10.2022 9.37729C10.2022 9.87745 10.0523 10.3189 9.75218 10.7011C9.45485 11.0806 9.05775 11.3366 8.56062 11.4691V12.3825H7.78833V11.4956C7.21158 11.4014 6.77189 11.2028 6.46878 10.8999C6.16566 10.5968 5.94216 10.1292 5.79803 9.49648L6.76887 9.29339C6.90115 9.74063 7.06292 10.0599 7.25441 10.2511C7.45448 10.4335 7.72055 10.5248 8.05315 10.5248C8.37668 10.5248 8.64729 10.4204 8.86525 10.2113C9.07992 10.0055 9.18752 9.73912 9.18752 9.41257C9.18752 9.12129 9.09781 8.88747 8.91841 8.71084C8.8272 8.62567 8.69265 8.52917 8.51451 8.42183C8.33637 8.31449 8.10909 8.19758 7.83268 8.07109C7.26197 7.81509 6.88679 7.57975 6.70739 7.36507C6.42191 7.04432 6.27929 6.66057 6.27929 6.21333C6.27929 6.00142 6.31306 5.80438 6.38084 5.62196C6.44862 5.43953 6.54638 5.27399 6.67438 5.12558C6.80238 4.97717 6.96062 4.84841 7.14884 4.73956C7.33706 4.63071 7.55048 4.54529 7.78859 4.48356V3.61855H8.56037V3.6178Z" fill="white"/>
</g>
<defs>
<clipPath id="clip0_260_22180">
<rect width="16" height="16" fill="white"/>
</clipPath>
</defs>
</svg>
