<svg width="36" height="40" viewBox="0 0 36 40" fill="none" xmlns="http://www.w3.org/2000/svg">
<path fill-rule="evenodd" clip-rule="evenodd" d="M30 36.5C31.6569 36.5 33 35.1569 33 33.5L33 6.5C33 4.84314 31.6569 3.5 30 3.5L18 3.5C16.3432 3.5 15 4.84314 15 6.5L15 14C15 14.8284 14.3284 15.5 13.5 15.5C12.6716 15.5 12 14.8284 12 14L12 6.5C12 3.18629 14.6863 0.499998 18 0.499998L30 0.499999C33.3137 0.5 36 3.18629 36 6.5L36 33.5C36 36.8137 33.3137 39.5 30 39.5L18 39.5C14.6863 39.5 12 36.8137 12 33.5L12 26C12 25.1716 12.6716 24.5 13.5 24.5C14.3284 24.5 15 25.1716 15 26L15 33.5C15 35.1569 16.3431 36.5 18 36.5L30 36.5ZM19.9393 27.0607C19.3536 26.4749 19.3536 25.5251 19.9393 24.9393L23.3787 21.5L1.5 21.5C0.671575 21.5 1.63232e-06 20.8284 1.70474e-06 20C1.77717e-06 19.1716 0.671575 18.5 1.5 18.5L23.3787 18.5L19.9393 15.0607C19.3536 14.4749 19.3536 13.5251 19.9393 12.9393C20.5251 12.3535 21.4749 12.3535 22.0607 12.9393L28.0607 18.9393C28.6464 19.5251 28.6464 20.4749 28.0607 21.0607L22.0607 27.0607C21.4749 27.6464 20.5251 27.6464 19.9393 27.0607Z" fill="#F03033"/>
</svg>
