<svg width="14" height="14" viewBox="0 0 14 14" fill="none" xmlns="http://www.w3.org/2000/svg">
<path fill-rule="evenodd" clip-rule="evenodd" d="M2.17019 5.70593C2.8849 3.0386 5.62659 1.45569 8.29392 2.1704C9.17458 2.40637 9.93578 2.86249 10.5357 3.46352L11.8044 4.73223H9.68192C9.40577 4.73223 9.18192 4.95609 9.18192 5.23223C9.18192 5.50838 9.40577 5.73223 9.68192 5.73223H13.0103C13.1429 5.73223 13.2701 5.67955 13.3639 5.58576C13.4577 5.49198 13.5103 5.36478 13.5103 5.23216V1.90383C13.5103 1.62769 13.2865 1.40383 13.0103 1.40383C12.7342 1.40383 12.5103 1.62769 12.5103 1.90383V4.02394L11.2435 2.75708C10.5227 2.03502 9.60767 1.48714 8.55274 1.20447C5.35194 0.346818 2.06192 2.24631 1.20427 5.44711C1.1328 5.71384 1.29109 5.98801 1.55782 6.05948C1.82456 6.13095 2.09872 5.97266 2.17019 5.70593ZM12.4418 7.94057C12.1751 7.86909 11.9009 8.02739 11.8295 8.29412C11.1147 10.9614 8.37306 12.5444 5.70573 11.8297C4.82508 11.5937 4.06388 11.1376 3.46398 10.5365L2.19605 9.26779H4.31793C4.59407 9.26779 4.81793 9.04393 4.81793 8.76779C4.81793 8.49165 4.59407 8.26779 4.31793 8.26779L0.989502 8.26779C0.71336 8.26779 0.489502 8.49165 0.489502 8.76779V12.0962C0.489502 12.3724 0.71336 12.5962 0.989502 12.5962C1.26564 12.5962 1.4895 12.3724 1.4895 12.0962V9.97545L2.75621 11.243C3.47701 11.9651 4.39189 12.5129 5.44691 12.7956C8.6477 13.6532 11.9377 11.7537 12.7954 8.55294C12.8668 8.28621 12.7086 8.01204 12.4418 7.94057Z" fill="#848B8D"/>
</svg>
