<svg width="32" height="32" viewBox="0 0 32 32" fill="none" xmlns="http://www.w3.org/2000/svg">
<rect width="32" height="32" rx="16" fill="#1E2124"/>
<path d="M5.56241 13.4H6.54641L9.23441 17.208V13.4H10.3144V19H9.33041L6.64241 15.192V19H5.56241V13.4ZM11.3046 13.4H15.4966V14.36H12.4086V15.864H15.2006V16.824H12.4086V19H11.3046V13.4ZM17.5087 14.36H15.7327V13.4H20.3887V14.36H18.6127V19H17.5087V14.36ZM20.6963 15.056L20.9363 14.84C21.2136 14.5893 21.3523 14.2853 21.3523 13.928V13.4H22.4403V13.928C22.4403 14.2853 22.3736 14.608 22.2403 14.896C22.1123 15.184 21.9229 15.4267 21.6723 15.624L21.4003 15.84L20.6963 15.056ZM24.423 19.064C23.9376 19.064 23.5483 18.936 23.255 18.68C22.9616 18.424 22.815 18.088 22.815 17.672H23.887C23.887 17.816 23.935 17.9333 24.031 18.024C24.1323 18.1093 24.263 18.152 24.423 18.152H25.143C25.463 18.152 25.623 18.064 25.623 17.888V17.752C25.623 17.6987 25.5963 17.6507 25.543 17.608C25.4896 17.56 25.4176 17.528 25.327 17.512L23.943 17.272C23.6176 17.2187 23.359 17.104 23.167 16.928C22.9803 16.7467 22.887 16.536 22.887 16.296V16.032C22.887 15.6907 23.0256 15.424 23.303 15.232C23.5856 15.04 23.9776 14.944 24.479 14.944H25.103C25.551 14.944 25.911 15.064 26.183 15.304C26.4603 15.5387 26.599 15.8507 26.599 16.24H25.527C25.527 16.1227 25.487 16.0293 25.407 15.96C25.3323 15.8907 25.231 15.856 25.103 15.856H24.495C24.1483 15.856 23.975 15.936 23.975 16.096V16.224C23.975 16.2827 23.9963 16.3333 24.039 16.376C24.087 16.4133 24.1536 16.44 24.239 16.456L25.695 16.72C25.999 16.7733 26.2443 16.888 26.431 17.064C26.6176 17.2347 26.711 17.4293 26.711 17.648V17.936C26.711 18.2827 26.567 18.5573 26.279 18.76C25.9963 18.9627 25.6176 19.064 25.143 19.064H24.423Z" fill="#DFDFDF"/>
</svg>
