<svg width="47" height="306" viewBox="0 0 47 306" fill="none" xmlns="http://www.w3.org/2000/svg">
<rect x="22" y="38" width="3" height="233" rx="1.5" fill="#F03033"/>
<path d="M39.8421 276.794C42.1975 279.359 40.3782 283.5 36.896 283.5H23.5003L10.1047 283.5C6.62257 283.5 4.80325 279.359 7.15857 276.794L20.554 262.208C22.1389 260.482 24.8613 260.482 26.4462 262.208L39.8421 276.794Z" fill="#F03033"/>
<path d="M7.15786 29.2058C4.80246 26.6411 6.62176 22.5002 10.104 22.5002H23.4997L36.8953 22.5002C40.3774 22.5002 42.1967 26.6411 39.8414 29.2058L26.446 43.7922C24.8611 45.518 22.1387 45.5181 20.5538 43.7922L7.15786 29.2058Z" fill="#F03033"/>
</svg>
