<svg width="48" height="48" viewBox="0 0 48 48" fill="none" xmlns="http://www.w3.org/2000/svg">
<path d="M14.48 4H10.68C6.3 4 4 6.3 4 10.66V14.46C4 18.82 6.3 21.12 10.66 21.12H14.46C18.82 21.12 21.12 18.82 21.12 14.46V10.66C21.14 6.3 18.84 4 14.48 4Z" fill="#F03033"/>
<path d="M37.3409 4H33.5409C29.1809 4 26.8809 6.3 26.8809 10.66V14.46C26.8809 18.82 29.1809 21.12 33.5409 21.12H37.3409C41.7009 21.12 44.0009 18.82 44.0009 14.46V10.66C44.0009 6.3 41.7009 4 37.3409 4Z" fill="#F03033"/>
<path d="M37.3409 26.8599H33.5409C29.1809 26.8599 26.8809 29.1599 26.8809 33.5199V37.3199C26.8809 41.6799 29.1809 43.9799 33.5409 43.9799H37.3409C41.7009 43.9799 44.0009 41.6799 44.0009 37.3199V33.5199C44.0009 29.1599 41.7009 26.8599 37.3409 26.8599Z" fill="#F03033"/>
<path d="M14.48 26.8599H10.68C6.3 26.8599 4 29.1599 4 33.5199V37.3199C4 41.6999 6.3 43.9999 10.66 43.9999H14.46C18.82 43.9999 21.12 41.6999 21.12 37.3399V33.5399C21.14 29.1599 18.84 26.8599 14.48 26.8599Z" fill="#F03033"/>
</svg>
