<svg width="18" height="18" viewBox="0 0 18 18" fill="none" xmlns="http://www.w3.org/2000/svg">
<path d="M14.2391 0.820468C14.2391 2.41047 12.9391 3.71047 11.3491 3.71047H6.64906C5.05906 3.71047 3.75906 2.41047 3.75906 0.820468C3.75906 0.260468 3.15906 -0.0895319 2.65906 0.170468C1.24906 0.920468 0.289062 2.41047 0.289062 4.12047V13.5305C0.289062 15.9905 2.29906 18.0005 4.75906 18.0005H13.2391C15.6991 18.0005 17.7091 15.9905 17.7091 13.5305V4.12047C17.7091 2.41047 16.7491 0.920468 15.3391 0.170468C14.8391 -0.0895319 14.2391 0.260468 14.2391 0.820468ZM9.37906 12.9505H4.99906C4.58906 12.9505 4.24906 12.6105 4.24906 12.2005C4.24906 11.7905 4.58906 11.4505 4.99906 11.4505H9.37906C9.78906 11.4505 10.1291 11.7905 10.1291 12.2005C10.1291 12.6105 9.78906 12.9505 9.37906 12.9505ZM11.9991 8.95047H4.99906C4.58906 8.95047 4.24906 8.61047 4.24906 8.20047C4.24906 7.79047 4.58906 7.45047 4.99906 7.45047H11.9991C12.4091 7.45047 12.7491 7.79047 12.7491 8.20047C12.7491 8.61047 12.4091 8.95047 11.9991 8.95047Z" fill="#848B8D"/>
</svg>
