<svg width="32" height="32" viewBox="0 0 32 32" fill="none" xmlns="http://www.w3.org/2000/svg">
<g clip-path="url(#clip0_12_24)">
<path d="M24 0H8C3.58172 0 0 3.58172 0 8V24C0 28.4183 3.58172 32 8 32H24C28.4183 32 32 28.4183 32 24V8C32 3.58172 28.4183 0 24 0Z" fill="#2C3034"/>
<path fill-rule="evenodd" clip-rule="evenodd" d="M19.0001 10.9855V11.1367C19.6366 11.1949 20.2678 11.2715 20.8932 11.366C21.1247 11.401 21.3555 11.4384 21.5854 11.4782C21.8575 11.5253 22.0399 11.7841 21.9927 12.0562C21.9456 12.3283 21.6868 12.5107 21.4147 12.4635C21.3683 12.4555 21.3219 12.4475 21.2754 12.4397L20.6051 21.1534C20.525 22.1954 19.6561 23 18.611 23H13.3891C12.3441 23 11.4752 22.1954 11.395 21.1534L10.7247 12.4397C10.6783 12.4475 10.6318 12.4555 10.5854 12.4635C10.3133 12.5107 10.0546 12.3283 10.0074 12.0562C9.96029 11.7841 10.1427 11.5253 10.4147 11.4782C10.6447 11.4384 10.8754 11.401 11.107 11.366C11.7324 11.2715 12.3636 11.1949 13.0001 11.1367V10.9855C13.0001 9.94248 13.8084 9.05212 14.877 9.01794C15.2499 9.00601 15.6243 9 16.0001 9C16.3758 9 16.7502 9.00601 17.1231 9.01794C18.1917 9.05212 19.0001 9.94248 19.0001 10.9855ZM14.909 10.0174C15.2713 10.0058 15.635 10 16.0001 10C16.3652 10 16.7289 10.0058 17.0912 10.0174C17.5942 10.0335 18.0001 10.456 18.0001 10.9855V11.0605C17.3385 11.0204 16.6716 11 16.0001 11C15.3285 11 14.6617 11.0204 14.0001 11.0605V10.9855C14.0001 10.456 14.4059 10.0335 14.909 10.0174ZM14.6725 13.9808C14.6619 13.7048 14.4296 13.4898 14.1536 13.5004C13.8777 13.511 13.6626 13.7433 13.6732 14.0192L13.904 20.0192C13.9146 20.2952 14.1469 20.5102 14.4228 20.4996C14.6988 20.489 14.9139 20.2567 14.9033 19.9808L14.6725 13.9808ZM18.3263 14.0192C18.3369 13.7433 18.1219 13.511 17.8459 13.5004C17.57 13.4898 17.3377 13.7048 17.3271 13.9808L17.0963 19.9808C17.0857 20.2567 17.3008 20.489 17.5767 20.4996C17.8526 20.5102 18.0849 20.2952 18.0956 20.0192L18.3263 14.0192Z" fill="#848B8D"/>
</g>
<defs>
<clipPath id="clip0_12_24">
<rect width="32" height="32" fill="white"/>
</clipPath>
</defs>
</svg>
