<svg width="42" height="38" viewBox="0 0 42 38" fill="none" xmlns="http://www.w3.org/2000/svg">
<path fill-rule="evenodd" clip-rule="evenodd" d="M13.5 7.5C13.5 3.35786 16.8579 0 21 0C25.1421 0 28.5 3.35786 28.5 7.5C28.5 11.6421 25.1421 15 21 15C16.8579 15 13.5 11.6421 13.5 7.5Z" fill="#F03033"/>
<path fill-rule="evenodd" clip-rule="evenodd" d="M28.5 13.5C28.5 10.1863 31.1863 7.5 34.5 7.5C37.8137 7.5 40.5 10.1863 40.5 13.5C40.5 16.8137 37.8137 19.5 34.5 19.5C31.1863 19.5 28.5 16.8137 28.5 13.5Z" fill="#F03033"/>
<path fill-rule="evenodd" clip-rule="evenodd" d="M1.5 13.5C1.5 10.1863 4.18629 7.5 7.5 7.5C10.8137 7.5 13.5 10.1863 13.5 13.5C13.5 16.8137 10.8137 19.5 7.5 19.5C4.18629 19.5 1.5 16.8137 1.5 13.5Z" fill="#F03033"/>
<path fill-rule="evenodd" clip-rule="evenodd" d="M9.61972 24.235C12.0157 20.4888 16.2167 18 21 18C25.7839 18 29.9854 20.4894 32.3812 24.2364C34.0375 26.8268 34.7541 29.9504 34.4179 32.9958C34.3654 33.4718 34.0888 33.894 33.6735 34.1323C29.9388 36.2752 25.6102 37.5 21 37.5C16.3898 37.5 12.0612 36.2752 8.32649 34.1323C7.91118 33.894 7.63459 33.4718 7.58207 32.9958C7.24587 29.9498 7.96282 26.8257 9.61972 24.235Z" fill="#F03033"/>
<path d="M7.16457 22.5074C7.14048 22.5444 7.11654 22.5815 7.09275 22.6187C5.16183 25.6378 4.27816 29.2334 4.54943 32.778C3.33334 32.5933 2.15339 32.2962 1.02086 31.8973L0.79094 31.8164C0.371517 31.6687 0.0784548 31.2878 0.0431819 30.8445L0.0238463 30.6015C0.00803429 30.4028 0 30.2022 0 30C0 25.9703 3.17809 22.6828 7.16457 22.5074Z" fill="#F03033"/>
<path d="M37.4513 32.7779C37.7225 29.234 36.8392 25.6391 34.909 22.6204C34.8849 22.5826 34.8606 22.5449 34.8362 22.5074C38.8223 22.6832 42 25.9705 42 30C42 30.2022 41.992 30.4028 41.9762 30.6015L41.9568 30.8445C41.9215 31.2878 41.6285 31.6687 41.2091 31.8164L40.9791 31.8973C39.8468 32.2961 38.6671 32.5932 37.4513 32.7779Z" fill="#F03033"/>
</svg>
