<svg width="22" height="20" viewBox="0 0 22 20" fill="none" xmlns="http://www.w3.org/2000/svg">
<path d="M12.5 2.06063C12.5 0.724272 10.8843 0.0550141 9.93934 0.999964L5.43934 5.49997H3.50905C2.36772 5.49997 1.19106 6.16441 0.849304 7.40502C0.62147 8.2321 0.5 9.10244 0.5 9.99997C0.5 10.8975 0.62147 11.7678 0.849304 12.5949C1.19106 13.8355 2.36772 14.5 3.50905 14.5H5.43934L9.93934 19C10.8843 19.9449 12.5 19.2757 12.5 17.9393V2.06063Z" fill="#848B8D"/>
<path d="M17.5837 3.10561C17.8766 2.81272 18.3514 2.81272 18.6443 3.10561C22.452 6.91322 22.452 13.0866 18.6443 16.8942C18.3514 17.1871 17.8766 17.1871 17.5837 16.8942C17.2908 16.6013 17.2908 16.1264 17.5837 15.8335C20.8055 12.6117 20.8055 7.38809 17.5837 4.16627C17.2908 3.87338 17.2908 3.3985 17.5837 3.10561Z" fill="#848B8D"/>
<path d="M14.9323 5.75734C15.2252 5.46445 15.7001 5.46445 15.993 5.75734C18.3361 8.10049 18.3361 11.8995 15.993 14.2426C15.7001 14.5355 15.2252 14.5355 14.9323 14.2426C14.6394 13.9497 14.6394 13.4749 14.9323 13.182C16.6897 11.4246 16.6897 8.57536 14.9323 6.818C14.6394 6.52511 14.6394 6.05024 14.9323 5.75734Z" fill="#848B8D"/>
</svg>
